{"glyphs":{"0":{"ha":874,"x_min":42,"x_max":832,"o":"m 832 354 q 781 158 832 240 q 641 31 729 75 q 442 -12 553 -12 q 236 31 326 -12 q 94 157 146 74 q 42 354 42 240 q 96 546 42 467 q 241 664 150 625 q 442 703 332 703 q 726 611 621 703 q 832 354 832 519 m 301 396 q 321 260 301 329 q 376 145 340 190 q 460 100 413 100 q 540 161 511 100 q 568 311 568 222 q 549 443 568 376 q 497 554 531 510 q 417 599 463 599 q 334 538 367 599 q 301 396 301 476 z "},"1":{"ha":575,"x_min":49,"x_max":526,"o":"m 419 263 q 426 160 419 192 q 453 117 433 128 q 515 104 472 106 q 526 -4 526 67 q 288 0 446 0 q 49 -4 124 0 q 60 104 49 63 q 123 123 104 111 q 149 164 142 135 q 156 260 156 193 l 156 442 q 148 536 156 506 q 121 577 140 567 q 60 590 101 588 q 49 699 49 635 q 288 694 115 694 q 526 699 460 694 q 515 590 526 635 q 454 577 474 588 q 427 537 435 567 q 419 442 419 507 l 419 263 z "},"2":{"ha":700,"x_min":42,"x_max":665,"o":"m 650 281 q 665 57 650 128 q 633 13 656 28 q 579 -3 611 -3 q 319 0 468 0 q 76 -3 182 0 q 42 135 42 50 q 124 210 75 168 q 233 301 174 253 q 325 387 294 353 q 367 448 356 421 q 379 508 379 475 q 358 571 379 547 q 294 594 336 594 q 231 558 251 594 q 201 426 211 522 q 128 431 158 426 q 65 447 99 436 q 69 532 69 481 q 61 636 69 594 q 199 687 126 671 q 381 703 272 703 q 581 660 515 703 q 646 539 646 617 q 626 456 646 493 q 564 383 607 419 q 440 297 521 347 q 325 222 379 258 l 404 222 q 481 227 458 222 q 514 246 504 232 q 529 293 524 260 q 650 281 617 293 z "},"3":{"ha":706,"x_min":35,"x_max":664,"o":"m 614 700 q 644 586 649 646 q 419 289 525 433 q 603 226 543 283 q 664 63 664 169 q 563 -159 664 -81 q 274 -237 461 -237 q 35 -171 111 -237 q 83 -74 42 -114 q 149 -111 117 -99 q 226 -124 182 -124 q 353 -83 308 -124 q 397 29 397 -42 q 371 113 397 83 q 290 143 344 143 q 247 138 269 143 q 220 184 229 156 q 214 240 211 213 q 397 472 335 385 l 296 472 q 232 465 254 472 q 194 435 210 457 q 163 365 179 413 q 43 393 79 365 q 57 526 54 463 q 60 700 60 589 q 346 694 185 694 q 614 700 508 694 z "},"4":{"ha":840,"x_min":35,"x_max":819,"o":"m 819 181 q 792 95 799 129 q 786 0 786 61 l 667 0 l 667 -197 q 547 -207 600 -197 q 439 -237 494 -217 q 411 -203 419 -222 q 403 -149 403 -183 l 403 0 l 363 0 q 83 -10 207 0 q 35 178 35 85 l 471 703 q 521 704 488 704 q 667 694 600 704 l 667 224 l 738 224 q 786 215 768 224 q 819 181 804 206 m 431 196 l 431 486 l 206 194 l 431 196 z "},"5":{"ha":668,"x_min":42,"x_max":633,"o":"m 140 701 q 428 694 258 694 q 477 715 460 694 q 494 771 494 735 q 614 782 528 782 q 604 518 604 690 q 533 476 589 476 q 201 471 275 476 l 186 397 q 453 328 356 372 q 592 220 551 285 q 633 63 633 156 q 576 -106 633 -37 q 428 -206 519 -174 q 231 -237 336 -237 q 42 -206 97 -237 q 69 -108 42 -143 q 185 -125 103 -125 q 317 -86 267 -125 q 367 18 367 -47 q 310 122 367 81 q 99 192 253 163 q 54 286 63 232 l 140 701 z "},"6":{"ha":817,"x_min":49,"x_max":775,"o":"m 489 549 q 699 480 624 549 q 775 294 775 411 q 721 113 775 182 q 585 16 667 44 q 413 -12 503 -12 q 142 69 236 -12 q 49 333 49 150 q 142 647 49 525 q 367 825 235 769 q 626 886 499 881 q 645 844 639 872 q 649 785 651 817 q 439 691 514 757 q 335 519 364 625 q 489 549 410 549 m 419 104 q 486 144 463 104 q 510 257 510 185 q 474 387 510 338 q 383 436 438 436 q 317 424 351 436 q 313 335 313 381 q 342 165 313 225 q 419 104 371 104 z "},"7":{"ha":656,"x_min":28,"x_max":628,"o":"m 196 -244 q 149 -135 149 -236 q 185 61 149 -35 q 275 242 221 157 q 432 472 329 328 l 324 472 q 244 464 272 472 q 198 434 215 456 q 168 369 181 413 q 28 393 83 365 q 45 526 39 442 q 51 697 51 610 q 313 694 115 694 q 596 697 474 694 q 619 647 611 679 q 628 585 628 615 q 523 421 571 503 q 463 296 475 339 q 434 192 443 236 q 419 68 425 149 q 413 -149 413 -12 q 299 -187 357 -161 q 196 -244 240 -212 z "},"8":{"ha":804,"x_min":63,"x_max":742,"o":"m 581 504 q 701 394 661 454 q 742 244 742 333 q 406 -12 742 -12 q 151 48 239 -12 q 63 222 63 108 q 97 348 63 290 q 204 446 131 406 q 83 647 83 528 q 169 820 83 756 q 415 885 256 885 q 638 835 554 885 q 721 692 721 785 q 684 580 721 629 q 581 504 647 531 m 400 794 q 349 773 368 794 q 331 715 331 751 q 360 638 331 667 q 458 574 389 610 q 485 678 485 619 q 462 763 485 732 q 400 794 439 794 m 418 90 q 473 115 454 90 q 492 182 492 140 q 449 292 492 246 q 333 376 407 338 q 313 267 313 339 q 341 138 313 185 q 418 90 369 90 z "},"9":{"ha":810,"x_min":42,"x_max":768,"o":"m 404 703 q 674 622 581 703 q 768 356 768 540 q 667 31 768 163 q 420 -165 565 -100 q 144 -235 275 -229 q 126 -193 132 -221 q 122 -133 119 -165 q 354 -29 267 -103 q 478 154 442 44 q 328 128 407 128 q 174 162 239 128 q 76 256 110 196 q 42 393 42 317 q 150 632 42 561 q 404 703 258 703 m 433 240 q 500 253 465 240 q 504 331 504 290 q 475 522 504 457 q 397 586 446 586 q 331 546 354 586 q 307 433 307 506 q 344 296 307 351 q 433 240 381 240 z "},"\u0000":{"ha":0,"x_min":0,"x_max":0,"o":""},"\r":{"ha":278,"x_min":0,"x_max":0,"o":""}," ":{"ha":278,"x_min":0,"x_max":0,"o":""},"A":{"ha":996,"x_min":14,"x_max":982,"o":"m 971 104 q 982 -4 982 67 q 764 0 926 0 q 519 -4 572 0 q 531 104 519 60 q 575 124 561 111 q 589 156 589 136 q 574 210 589 175 l 564 231 q 249 217 382 231 l 246 211 q 239 175 239 193 q 253 129 239 149 q 299 104 268 110 q 310 -4 310 57 q 147 0 263 0 q 14 -4 56 0 q 28 104 14 61 q 83 138 61 111 q 139 244 104 165 l 433 939 q 484 946 458 944 q 539 947 510 947 l 847 271 q 900 165 881 199 q 934 119 919 131 q 971 104 949 107 m 525 321 l 472 439 q 401 631 426 540 q 335 439 376 540 l 289 321 l 525 321 z "},"Á":{"ha":996,"x_min":14,"x_max":982,"o":"m 971 104 q 982 -4 982 67 q 764 0 926 0 q 519 -4 572 0 q 531 104 519 60 q 575 124 561 111 q 589 156 589 136 q 574 210 589 175 l 564 231 q 249 217 382 231 l 246 211 q 239 175 239 193 q 253 129 239 149 q 299 104 268 110 q 310 -4 310 57 q 147 0 263 0 q 14 -4 56 0 q 28 104 14 61 q 83 138 61 111 q 139 244 104 165 l 433 939 q 484 946 458 944 q 539 947 510 947 l 847 271 q 900 165 881 199 q 934 119 919 131 q 971 104 949 107 m 525 321 l 472 439 q 401 631 426 540 q 335 439 376 540 l 289 321 l 525 321 m 526 1021 q 385 1046 453 1021 q 469 1211 433 1122 q 600 1225 529 1225 q 694 1217 656 1225 q 526 1021 603 1121 z "},"Ă":{"ha":996,"x_min":14,"x_max":982,"o":"m 971 104 q 982 -4 982 67 q 764 0 926 0 q 519 -4 572 0 q 531 104 519 60 q 575 124 561 111 q 589 156 589 136 q 574 210 589 175 l 564 231 q 249 217 382 231 l 246 211 q 239 175 239 193 q 253 129 239 149 q 299 104 268 110 q 310 -4 310 57 q 147 0 263 0 q 14 -4 56 0 q 28 104 14 61 q 83 138 61 111 q 139 244 104 165 l 433 939 q 484 946 458 944 q 539 947 510 947 l 847 271 q 900 165 881 199 q 934 119 919 131 q 971 104 949 107 m 525 321 l 472 439 q 401 631 426 540 q 335 439 376 540 l 289 321 l 525 321 m 739 1207 q 483 1001 739 1001 q 233 1201 233 1001 q 333 1219 279 1219 q 378 1215 354 1219 q 501 1146 390 1146 q 583 1163 554 1146 q 614 1215 613 1181 q 661 1221 644 1221 q 739 1207 700 1221 z "},"Ắ":{"ha":996,"x_min":14,"x_max":982,"o":"m 971 104 q 982 -4 982 67 q 764 0 926 0 q 519 -4 572 0 q 531 104 519 60 q 575 124 561 111 q 589 156 589 136 q 574 210 589 175 l 564 231 q 249 217 382 231 l 246 211 q 239 175 239 193 q 253 129 239 149 q 299 104 268 110 q 310 -4 310 57 q 147 0 263 0 q 14 -4 56 0 q 28 104 14 61 q 83 138 61 111 q 139 244 104 165 l 433 939 q 484 946 458 944 q 539 947 510 947 l 847 271 q 900 165 881 199 q 934 119 919 131 q 971 104 949 107 m 525 321 l 472 439 q 401 631 426 540 q 335 439 376 540 l 289 321 l 525 321 m 739 1207 q 483 1001 739 1001 q 233 1201 233 1001 q 333 1219 279 1219 q 378 1215 354 1219 q 501 1146 390 1146 q 583 1163 554 1146 q 614 1215 613 1181 q 661 1221 644 1221 q 739 1207 700 1221 m 526 1261 q 385 1286 453 1261 q 469 1451 433 1363 q 600 1465 529 1465 q 694 1457 656 1465 q 526 1261 603 1361 z "},"Ặ":{"ha":996,"x_min":14,"x_max":982,"o":"m 971 104 q 982 -4 982 67 q 764 0 926 0 q 519 -4 572 0 q 531 104 519 60 q 575 124 561 111 q 589 156 589 136 q 574 210 589 175 l 564 231 q 249 217 382 231 l 246 211 q 239 175 239 193 q 253 129 239 149 q 299 104 268 110 q 310 -4 310 57 q 147 0 263 0 q 14 -4 56 0 q 28 104 14 61 q 83 138 61 111 q 139 244 104 165 l 433 939 q 484 946 458 944 q 539 947 510 947 l 847 271 q 900 165 881 199 q 934 119 919 131 q 971 104 949 107 m 525 321 l 472 439 q 401 631 426 540 q 335 439 376 540 l 289 321 l 525 321 m 406 -328 q 302 -297 340 -328 q 264 -215 264 -267 q 306 -124 264 -156 q 415 -92 347 -92 q 527 -122 489 -92 q 565 -212 565 -153 q 522 -296 565 -264 q 406 -328 479 -328 m 739 1207 q 483 1001 739 1001 q 233 1201 233 1001 q 333 1219 279 1219 q 378 1215 354 1219 q 501 1146 390 1146 q 583 1163 554 1146 q 614 1215 613 1181 q 661 1221 644 1221 q 739 1207 700 1221 z "},"Ằ":{"ha":996,"x_min":14,"x_max":982,"o":"m 971 104 q 982 -4 982 67 q 764 0 926 0 q 519 -4 572 0 q 531 104 519 60 q 575 124 561 111 q 589 156 589 136 q 574 210 589 175 l 564 231 q 249 217 382 231 l 246 211 q 239 175 239 193 q 253 129 239 149 q 299 104 268 110 q 310 -4 310 57 q 147 0 263 0 q 14 -4 56 0 q 28 104 14 61 q 83 138 61 111 q 139 244 104 165 l 433 939 q 484 946 458 944 q 539 947 510 947 l 847 271 q 900 165 881 199 q 934 119 919 131 q 971 104 949 107 m 525 321 l 472 439 q 401 631 426 540 q 335 439 376 540 l 289 321 l 525 321 m 739 1207 q 483 1001 739 1001 q 233 1201 233 1001 q 333 1219 279 1219 q 378 1215 354 1219 q 501 1146 390 1146 q 583 1163 554 1146 q 614 1215 613 1181 q 661 1221 644 1221 q 739 1207 700 1221 m 446 1261 q 292 1429 361 1363 q 383 1456 329 1447 q 492 1465 438 1465 q 533 1374 507 1425 q 588 1286 560 1324 q 446 1261 519 1261 z "},"Ẳ":{"ha":996,"x_min":14,"x_max":982,"o":"m 971 104 q 982 -4 982 67 q 764 0 926 0 q 519 -4 572 0 q 531 104 519 60 q 575 124 561 111 q 589 156 589 136 q 574 210 589 175 l 564 231 q 249 217 382 231 l 246 211 q 239 175 239 193 q 253 129 239 149 q 299 104 268 110 q 310 -4 310 57 q 147 0 263 0 q 14 -4 56 0 q 28 104 14 61 q 83 138 61 111 q 139 244 104 165 l 433 939 q 484 946 458 944 q 539 947 510 947 l 847 271 q 900 165 881 199 q 934 119 919 131 q 971 104 949 107 m 525 321 l 472 439 q 401 631 426 540 q 335 439 376 540 l 289 321 l 525 321 m 739 1207 q 483 1001 739 1001 q 233 1201 233 1001 q 333 1219 279 1219 q 378 1215 354 1219 q 501 1146 390 1146 q 583 1163 554 1146 q 614 1215 613 1181 q 661 1221 644 1221 q 739 1207 700 1221 m 433 1238 q 424 1271 424 1253 q 437 1305 424 1292 q 476 1333 450 1318 q 504 1353 494 1344 q 514 1371 514 1361 q 476 1390 514 1390 q 435 1377 451 1390 q 408 1326 419 1364 q 289 1347 339 1326 q 293 1396 293 1372 q 289 1435 293 1417 q 500 1474 367 1474 q 640 1452 596 1474 q 683 1388 683 1431 q 663 1336 683 1356 q 608 1300 643 1317 q 578 1283 588 1290 q 568 1265 568 1275 q 572 1244 568 1257 q 483 1233 532 1233 q 433 1238 456 1233 z "},"Ẵ":{"ha":996,"x_min":14,"x_max":982,"o":"m 971 104 q 982 -4 982 67 q 764 0 926 0 q 519 -4 572 0 q 531 104 519 60 q 575 124 561 111 q 589 156 589 136 q 574 210 589 175 l 564 231 q 249 217 382 231 l 246 211 q 239 175 239 193 q 253 129 239 149 q 299 104 268 110 q 310 -4 310 57 q 147 0 263 0 q 14 -4 56 0 q 28 104 14 61 q 83 138 61 111 q 139 244 104 165 l 433 939 q 484 946 458 944 q 539 947 510 947 l 847 271 q 900 165 881 199 q 934 119 919 131 q 971 104 949 107 m 525 321 l 472 439 q 401 631 426 540 q 335 439 376 540 l 289 321 l 525 321 m 739 1207 q 483 1001 739 1001 q 233 1201 233 1001 q 333 1219 279 1219 q 378 1215 354 1219 q 501 1146 390 1146 q 583 1163 554 1146 q 614 1215 613 1181 q 661 1221 644 1221 q 739 1207 700 1221 m 553 1261 q 492 1271 517 1261 q 436 1300 467 1281 q 397 1322 414 1315 q 357 1329 379 1329 q 249 1264 299 1329 q 211 1313 224 1289 q 197 1369 199 1336 q 290 1448 235 1422 q 399 1474 346 1474 q 457 1465 432 1474 q 518 1438 482 1456 q 563 1417 544 1424 q 600 1410 581 1410 q 685 1465 651 1410 q 775 1418 740 1454 q 681 1302 738 1343 q 553 1261 624 1261 z "},"Â":{"ha":996,"x_min":14,"x_max":982,"o":"m 971 104 q 982 -4 982 67 q 764 0 926 0 q 519 -4 572 0 q 531 104 519 60 q 575 124 561 111 q 589 156 589 136 q 574 210 589 175 l 564 231 q 249 217 382 231 l 246 211 q 239 175 239 193 q 253 129 239 149 q 299 104 268 110 q 310 -4 310 57 q 147 0 263 0 q 14 -4 56 0 q 28 104 14 61 q 83 138 61 111 q 139 244 104 165 l 433 939 q 484 946 458 944 q 539 947 510 947 l 847 271 q 900 165 881 199 q 934 119 919 131 q 971 104 949 107 m 525 321 l 472 439 q 401 631 426 540 q 335 439 376 540 l 289 321 l 525 321 m 311 1011 q 253 1037 278 1015 q 218 1085 228 1058 q 428 1226 363 1171 q 553 1242 475 1242 q 753 1085 626 1168 q 697 1035 728 1054 q 622 1007 667 1015 q 461 1086 568 1040 q 440 1076 450 1081 q 419 1067 429 1071 q 311 1011 350 1036 z "},"Ấ":{"ha":996,"x_min":14,"x_max":982,"o":"m 971 104 q 982 -4 982 67 q 764 0 926 0 q 519 -4 572 0 q 531 104 519 60 q 575 124 561 111 q 589 156 589 136 q 574 210 589 175 l 564 231 q 249 217 382 231 l 246 211 q 239 175 239 193 q 253 129 239 149 q 299 104 268 110 q 310 -4 310 57 q 147 0 263 0 q 14 -4 56 0 q 28 104 14 61 q 83 138 61 111 q 139 244 104 165 l 433 939 q 484 946 458 944 q 539 947 510 947 l 847 271 q 900 165 881 199 q 934 119 919 131 q 971 104 949 107 m 525 321 l 472 439 q 401 631 426 540 q 335 439 376 540 l 289 321 l 525 321 m 311 1011 q 253 1037 278 1015 q 218 1085 228 1058 q 428 1226 363 1171 q 553 1242 475 1242 q 753 1085 626 1168 q 697 1035 728 1054 q 622 1007 667 1015 q 461 1086 568 1040 q 440 1076 450 1081 q 419 1067 429 1071 q 311 1011 350 1036 m 526 1296 q 385 1321 453 1296 q 469 1486 433 1397 q 600 1500 529 1500 q 694 1492 656 1500 q 526 1296 603 1396 z "},"Ậ":{"ha":996,"x_min":14,"x_max":982,"o":"m 971 104 q 982 -4 982 67 q 764 0 926 0 q 519 -4 572 0 q 531 104 519 60 q 575 124 561 111 q 589 156 589 136 q 574 210 589 175 l 564 231 q 249 217 382 231 l 246 211 q 239 175 239 193 q 253 129 239 149 q 299 104 268 110 q 310 -4 310 57 q 147 0 263 0 q 14 -4 56 0 q 28 104 14 61 q 83 138 61 111 q 139 244 104 165 l 433 939 q 484 946 458 944 q 539 947 510 947 l 847 271 q 900 165 881 199 q 934 119 919 131 q 971 104 949 107 m 525 321 l 472 439 q 401 631 426 540 q 335 439 376 540 l 289 321 l 525 321 m 406 -328 q 302 -297 340 -328 q 264 -215 264 -267 q 306 -124 264 -156 q 415 -92 347 -92 q 527 -122 489 -92 q 565 -212 565 -153 q 522 -296 565 -264 q 406 -328 479 -328 m 311 1011 q 253 1037 278 1015 q 218 1085 228 1058 q 428 1226 363 1171 q 553 1242 475 1242 q 753 1085 626 1168 q 697 1035 728 1054 q 622 1007 667 1015 q 461 1086 568 1040 q 440 1076 450 1081 q 419 1067 429 1071 q 311 1011 350 1036 z "},"Ầ":{"ha":996,"x_min":14,"x_max":982,"o":"m 971 104 q 982 -4 982 67 q 764 0 926 0 q 519 -4 572 0 q 531 104 519 60 q 575 124 561 111 q 589 156 589 136 q 574 210 589 175 l 564 231 q 249 217 382 231 l 246 211 q 239 175 239 193 q 253 129 239 149 q 299 104 268 110 q 310 -4 310 57 q 147 0 263 0 q 14 -4 56 0 q 28 104 14 61 q 83 138 61 111 q 139 244 104 165 l 433 939 q 484 946 458 944 q 539 947 510 947 l 847 271 q 900 165 881 199 q 934 119 919 131 q 971 104 949 107 m 525 321 l 472 439 q 401 631 426 540 q 335 439 376 540 l 289 321 l 525 321 m 311 1011 q 253 1037 278 1015 q 218 1085 228 1058 q 428 1226 363 1171 q 553 1242 475 1242 q 753 1085 626 1168 q 697 1035 728 1054 q 622 1007 667 1015 q 461 1086 568 1040 q 440 1076 450 1081 q 419 1067 429 1071 q 311 1011 350 1036 m 446 1296 q 292 1464 361 1397 q 383 1491 329 1482 q 492 1500 438 1500 q 533 1409 507 1460 q 588 1321 560 1358 q 446 1296 519 1296 z "},"Ẩ":{"ha":996,"x_min":14,"x_max":982,"o":"m 971 104 q 982 -4 982 67 q 764 0 926 0 q 519 -4 572 0 q 531 104 519 60 q 575 124 561 111 q 589 156 589 136 q 574 210 589 175 l 564 231 q 249 217 382 231 l 246 211 q 239 175 239 193 q 253 129 239 149 q 299 104 268 110 q 310 -4 310 57 q 147 0 263 0 q 14 -4 56 0 q 28 104 14 61 q 83 138 61 111 q 139 244 104 165 l 433 939 q 484 946 458 944 q 539 947 510 947 l 847 271 q 900 165 881 199 q 934 119 919 131 q 971 104 949 107 m 525 321 l 472 439 q 401 631 426 540 q 335 439 376 540 l 289 321 l 525 321 m 311 1011 q 253 1037 278 1015 q 218 1085 228 1058 q 428 1226 363 1171 q 553 1242 475 1242 q 753 1085 626 1168 q 697 1035 728 1054 q 622 1007 667 1015 q 461 1086 568 1040 q 440 1076 450 1081 q 419 1067 429 1071 q 311 1011 350 1036 m 656 1203 q 646 1236 646 1218 q 659 1270 646 1257 q 699 1299 672 1283 q 726 1318 717 1310 q 736 1336 736 1326 q 699 1356 736 1356 q 658 1342 674 1356 q 631 1292 642 1329 q 511 1313 561 1292 q 515 1361 515 1338 q 511 1400 515 1382 q 722 1439 589 1439 q 862 1417 818 1439 q 906 1353 906 1396 q 885 1301 906 1321 q 831 1265 865 1282 q 800 1248 810 1256 q 790 1231 790 1240 q 794 1210 790 1222 q 706 1199 754 1199 q 656 1203 678 1199 z "},"Ẫ":{"ha":996,"x_min":14,"x_max":982,"o":"m 971 104 q 982 -4 982 67 q 764 0 926 0 q 519 -4 572 0 q 531 104 519 60 q 575 124 561 111 q 589 156 589 136 q 574 210 589 175 l 564 231 q 249 217 382 231 l 246 211 q 239 175 239 193 q 253 129 239 149 q 299 104 268 110 q 310 -4 310 57 q 147 0 263 0 q 14 -4 56 0 q 28 104 14 61 q 83 138 61 111 q 139 244 104 165 l 433 939 q 484 946 458 944 q 539 947 510 947 l 847 271 q 900 165 881 199 q 934 119 919 131 q 971 104 949 107 m 525 321 l 472 439 q 401 631 426 540 q 335 439 376 540 l 289 321 l 525 321 m 311 1011 q 253 1037 278 1015 q 218 1085 228 1058 q 428 1226 363 1171 q 553 1242 475 1242 q 753 1085 626 1168 q 697 1035 728 1054 q 622 1007 667 1015 q 461 1086 568 1040 q 440 1076 450 1081 q 419 1067 429 1071 q 311 1011 350 1036 m 553 1296 q 492 1306 517 1296 q 436 1335 467 1315 q 397 1357 414 1350 q 357 1364 379 1364 q 249 1299 299 1364 q 211 1347 224 1324 q 197 1404 199 1371 q 290 1483 235 1457 q 399 1508 346 1508 q 457 1499 432 1508 q 518 1472 482 1490 q 563 1451 544 1458 q 600 1444 581 1444 q 685 1500 651 1444 q 775 1453 740 1489 q 681 1337 738 1378 q 553 1296 624 1296 z "},"Ȁ":{"ha":996,"x_min":14,"x_max":982,"o":"m 971 104 q 982 -4 982 67 q 764 0 926 0 q 519 -4 572 0 q 531 104 519 60 q 575 124 561 111 q 589 156 589 136 q 574 210 589 175 l 564 231 q 249 217 382 231 l 246 211 q 239 175 239 193 q 253 129 239 149 q 299 104 268 110 q 310 -4 310 57 q 147 0 263 0 q 14 -4 56 0 q 28 104 14 61 q 83 138 61 111 q 139 244 104 165 l 433 939 q 484 946 458 944 q 539 947 510 947 l 847 271 q 900 165 881 199 q 934 119 919 131 q 971 104 949 107 m 525 321 l 472 439 q 401 631 426 540 q 335 439 376 540 l 289 321 l 525 321 m 325 993 q 171 1161 240 1094 q 263 1188 208 1179 q 371 1197 317 1197 q 413 1106 386 1157 q 467 1018 439 1056 q 325 993 399 993 m 603 993 q 463 1167 521 1103 q 548 1190 497 1182 q 649 1197 599 1197 q 690 1106 664 1157 q 744 1018 717 1056 q 603 993 676 993 z "},"Ä":{"ha":996,"x_min":14,"x_max":982,"o":"m 971 104 q 982 -4 982 67 q 764 0 926 0 q 519 -4 572 0 q 531 104 519 60 q 575 124 561 111 q 589 156 589 136 q 574 210 589 175 l 564 231 q 249 217 382 231 l 246 211 q 239 175 239 193 q 253 129 239 149 q 299 104 268 110 q 310 -4 310 57 q 147 0 263 0 q 14 -4 56 0 q 28 104 14 61 q 83 138 61 111 q 139 244 104 165 l 433 939 q 484 946 458 944 q 539 947 510 947 l 847 271 q 900 165 881 199 q 934 119 919 131 q 971 104 949 107 m 525 321 l 472 439 q 401 631 426 540 q 335 439 376 540 l 289 321 l 525 321 m 311 999 q 214 1031 251 999 q 176 1110 176 1063 q 209 1199 176 1163 q 307 1235 242 1235 q 408 1201 375 1235 q 442 1113 442 1168 q 404 1031 442 1064 q 311 999 367 999 m 668 999 q 564 1033 600 999 q 528 1124 528 1067 q 564 1206 528 1176 q 661 1235 600 1235 q 758 1203 719 1235 q 796 1124 796 1171 q 765 1034 796 1069 q 668 999 733 999 z "},"Ạ":{"ha":996,"x_min":14,"x_max":982,"o":"m 971 104 q 982 -4 982 67 q 764 0 926 0 q 519 -4 572 0 q 531 104 519 60 q 575 124 561 111 q 589 156 589 136 q 574 210 589 175 l 564 231 q 249 217 382 231 l 246 211 q 239 175 239 193 q 253 129 239 149 q 299 104 268 110 q 310 -4 310 57 q 147 0 263 0 q 14 -4 56 0 q 28 104 14 61 q 83 138 61 111 q 139 244 104 165 l 433 939 q 484 946 458 944 q 539 947 510 947 l 847 271 q 900 165 881 199 q 934 119 919 131 q 971 104 949 107 m 525 321 l 472 439 q 401 631 426 540 q 335 439 376 540 l 289 321 l 525 321 m 406 -328 q 302 -297 340 -328 q 264 -215 264 -267 q 306 -124 264 -156 q 415 -92 347 -92 q 527 -122 489 -92 q 565 -212 565 -153 q 522 -296 565 -264 q 406 -328 479 -328 z "},"À":{"ha":996,"x_min":14,"x_max":982,"o":"m 971 104 q 982 -4 982 67 q 764 0 926 0 q 519 -4 572 0 q 531 104 519 60 q 575 124 561 111 q 589 156 589 136 q 574 210 589 175 l 564 231 q 249 217 382 231 l 246 211 q 239 175 239 193 q 253 129 239 149 q 299 104 268 110 q 310 -4 310 57 q 147 0 263 0 q 14 -4 56 0 q 28 104 14 61 q 83 138 61 111 q 139 244 104 165 l 433 939 q 484 946 458 944 q 539 947 510 947 l 847 271 q 900 165 881 199 q 934 119 919 131 q 971 104 949 107 m 525 321 l 472 439 q 401 631 426 540 q 335 439 376 540 l 289 321 l 525 321 m 446 1021 q 292 1189 361 1122 q 383 1216 329 1207 q 492 1225 438 1225 q 533 1134 507 1185 q 588 1046 560 1083 q 446 1021 519 1021 z "},"Ả":{"ha":996,"x_min":14,"x_max":982,"o":"m 971 104 q 982 -4 982 67 q 764 0 926 0 q 519 -4 572 0 q 531 104 519 60 q 575 124 561 111 q 589 156 589 136 q 574 210 589 175 l 564 231 q 249 217 382 231 l 246 211 q 239 175 239 193 q 253 129 239 149 q 299 104 268 110 q 310 -4 310 57 q 147 0 263 0 q 14 -4 56 0 q 28 104 14 61 q 83 138 61 111 q 139 244 104 165 l 433 939 q 484 946 458 944 q 539 947 510 947 l 847 271 q 900 165 881 199 q 934 119 919 131 q 971 104 949 107 m 525 321 l 472 439 q 401 631 426 540 q 335 439 376 540 l 289 321 l 525 321 m 433 997 q 424 1031 424 1013 q 437 1065 424 1051 q 476 1093 450 1078 q 504 1113 494 1104 q 514 1131 514 1121 q 476 1150 514 1150 q 435 1137 451 1150 q 408 1086 419 1124 q 289 1107 339 1086 q 293 1156 293 1132 q 289 1194 293 1176 q 500 1233 367 1233 q 640 1212 596 1233 q 683 1147 683 1190 q 663 1096 683 1115 q 608 1060 643 1076 q 578 1042 588 1050 q 568 1025 568 1035 q 572 1004 568 1017 q 483 993 532 993 q 433 997 456 993 z "},"Ȃ":{"ha":996,"x_min":14,"x_max":982,"o":"m 971 104 q 982 -4 982 67 q 764 0 926 0 q 519 -4 572 0 q 531 104 519 60 q 575 124 561 111 q 589 156 589 136 q 574 210 589 175 l 564 231 q 249 217 382 231 l 246 211 q 239 175 239 193 q 253 129 239 149 q 299 104 268 110 q 310 -4 310 57 q 147 0 263 0 q 14 -4 56 0 q 28 104 14 61 q 83 138 61 111 q 139 244 104 165 l 433 939 q 484 946 458 944 q 539 947 510 947 l 847 271 q 900 165 881 199 q 934 119 919 131 q 971 104 949 107 m 525 321 l 472 439 q 401 631 426 540 q 335 439 376 540 l 289 321 l 525 321 m 233 1015 q 489 1221 233 1221 q 739 1021 739 1221 q 639 1003 693 1003 q 594 1007 617 1003 q 471 1076 582 1076 q 389 1059 418 1076 q 358 1007 360 1042 q 311 1001 328 1001 q 233 1015 272 1001 z "},"Ā":{"ha":996,"x_min":14,"x_max":982,"o":"m 971 104 q 982 -4 982 67 q 764 0 926 0 q 519 -4 572 0 q 531 104 519 60 q 575 124 561 111 q 589 156 589 136 q 574 210 589 175 l 564 231 q 249 217 382 231 l 246 211 q 239 175 239 193 q 253 129 239 149 q 299 104 268 110 q 310 -4 310 57 q 147 0 263 0 q 14 -4 56 0 q 28 104 14 61 q 83 138 61 111 q 139 244 104 165 l 433 939 q 484 946 458 944 q 539 947 510 947 l 847 271 q 900 165 881 199 q 934 119 919 131 q 971 104 949 107 m 525 321 l 472 439 q 401 631 426 540 q 335 439 376 540 l 289 321 l 525 321 m 758 1150 q 746 1060 758 1101 q 213 1042 435 1060 q 225 1150 213 1111 l 758 1150 z "},"Ą":{"ha":996,"x_min":14,"x_max":982,"o":"m 839 -176 q 886 -172 865 -176 q 903 -216 896 -185 q 911 -274 911 -247 q 910 -292 911 -286 q 808 -313 858 -299 q 724 -344 758 -328 q 692 -346 710 -346 q 608 -328 650 -346 q 536 -276 565 -311 q 507 -189 507 -240 q 685 0 507 -62 q 519 -4 569 0 q 531 104 519 60 q 575 124 561 111 q 589 156 589 136 q 574 210 589 175 l 564 231 q 249 217 382 231 l 246 211 q 239 175 239 193 q 253 129 239 149 q 299 104 268 110 q 310 -4 310 57 q 147 0 263 0 q 14 -4 56 0 q 28 104 14 61 q 83 138 61 111 q 139 244 104 165 l 433 939 q 484 946 458 944 q 539 947 510 947 l 847 271 q 900 165 881 199 q 934 119 919 131 q 971 104 949 107 q 982 -4 982 67 q 908 -1 943 -1 l 868 0 q 765 -51 797 -19 q 733 -115 733 -83 q 761 -161 733 -146 q 839 -176 789 -176 m 525 321 l 472 439 q 401 631 426 540 q 335 439 376 540 l 289 321 l 525 321 z "},"Å":{"ha":996,"x_min":14,"x_max":982,"o":"m 971 104 q 982 -4 982 67 q 764 0 926 0 q 519 -4 572 0 q 531 104 519 60 q 575 124 561 111 q 589 156 589 136 q 574 210 589 175 l 564 231 q 249 217 382 231 l 246 211 q 239 175 239 193 q 253 129 239 149 q 299 104 268 110 q 310 -4 310 57 q 147 0 263 0 q 14 -4 56 0 q 28 104 14 61 q 83 138 61 111 q 139 244 104 165 l 433 939 q 484 946 458 944 q 539 947 510 947 l 847 271 q 900 165 881 199 q 934 119 919 131 q 971 104 949 107 m 525 321 l 472 439 q 401 631 426 540 q 335 439 376 540 l 289 321 l 525 321 m 478 990 q 353 1023 401 990 q 304 1114 304 1056 q 356 1211 304 1176 q 493 1246 408 1246 q 620 1215 572 1246 q 668 1124 668 1185 q 616 1026 668 1063 q 478 990 564 990 m 489 1054 q 524 1070 510 1054 q 538 1114 538 1086 q 523 1165 538 1142 q 481 1189 508 1189 q 448 1172 460 1189 q 436 1122 436 1154 q 450 1073 436 1092 q 489 1054 464 1054 z "},"Ǻ":{"ha":996,"x_min":14,"x_max":982,"o":"m 971 104 q 982 -4 982 67 q 764 0 926 0 q 519 -4 572 0 q 531 104 519 60 q 575 124 561 111 q 589 156 589 136 q 574 210 589 175 l 564 231 q 249 217 382 231 l 246 211 q 239 175 239 193 q 253 129 239 149 q 299 104 268 110 q 310 -4 310 57 q 147 0 263 0 q 14 -4 56 0 q 28 104 14 61 q 83 138 61 111 q 139 244 104 165 l 433 939 q 484 946 458 944 q 539 947 510 947 l 847 271 q 900 165 881 199 q 934 119 919 131 q 971 104 949 107 m 525 321 l 472 439 q 401 631 426 540 q 335 439 376 540 l 289 321 l 525 321 m 478 990 q 353 1023 401 990 q 304 1114 304 1056 q 356 1211 304 1176 q 493 1246 408 1246 q 620 1215 572 1246 q 668 1124 668 1185 q 616 1026 668 1063 q 478 990 564 990 m 489 1054 q 524 1070 510 1054 q 538 1114 538 1086 q 523 1165 538 1142 q 481 1189 508 1189 q 448 1172 460 1189 q 436 1122 436 1154 q 450 1073 436 1092 q 489 1054 464 1054 m 526 1328 q 385 1353 453 1328 q 469 1518 433 1429 q 600 1532 529 1532 q 694 1524 656 1532 q 526 1328 603 1428 z "},"Ã":{"ha":996,"x_min":14,"x_max":982,"o":"m 971 104 q 982 -4 982 67 q 764 0 926 0 q 519 -4 572 0 q 531 104 519 60 q 575 124 561 111 q 589 156 589 136 q 574 210 589 175 l 564 231 q 249 217 382 231 l 246 211 q 239 175 239 193 q 253 129 239 149 q 299 104 268 110 q 310 -4 310 57 q 147 0 263 0 q 14 -4 56 0 q 28 104 14 61 q 83 138 61 111 q 139 244 104 165 l 433 939 q 484 946 458 944 q 539 947 510 947 l 847 271 q 900 165 881 199 q 934 119 919 131 q 971 104 949 107 m 525 321 l 472 439 q 401 631 426 540 q 335 439 376 540 l 289 321 l 525 321 m 553 1021 q 492 1031 517 1021 q 436 1060 467 1040 q 397 1082 414 1075 q 357 1089 379 1089 q 249 1024 299 1089 q 211 1072 224 1049 q 197 1129 199 1096 q 290 1208 235 1182 q 399 1233 346 1233 q 457 1224 432 1233 q 518 1197 482 1215 q 563 1176 544 1183 q 600 1169 581 1169 q 685 1225 651 1169 q 775 1178 740 1214 q 681 1062 738 1103 q 553 1021 624 1021 z "},"Æ":{"ha":1390,"x_min":14,"x_max":1369,"o":"m 1369 246 q 1342 131 1354 197 q 1326 -3 1331 64 q 933 0 1190 0 q 535 -4 614 0 q 546 104 535 64 q 603 119 585 107 q 630 163 622 132 q 638 260 638 194 l 638 392 q 383 374 460 385 l 307 236 q 283 163 283 192 q 347 104 283 115 q 361 -4 361 71 q 197 0 297 0 q 14 -4 56 0 q 17 57 14 26 q 28 104 21 88 q 103 131 76 111 q 164 211 129 151 l 460 721 q 485 789 485 765 q 419 835 485 828 q 408 883 414 847 q 401 942 401 919 q 690 939 546 939 l 879 939 q 1286 943 1156 939 q 1294 814 1286 881 q 1315 696 1303 747 q 1256 678 1301 685 q 1175 671 1210 671 q 1119 794 1160 754 q 983 835 1079 835 l 915 835 l 915 489 l 931 489 q 993 496 974 489 q 1021 525 1013 503 q 1031 594 1029 547 q 1088 608 1053 603 q 1151 613 1122 613 q 1147 447 1147 546 q 1151 281 1147 342 q 1032 293 1060 281 q 1021 361 1029 340 q 992 390 1013 382 q 931 397 972 397 l 915 397 l 915 267 q 925 165 915 200 q 958 117 935 131 q 1024 104 981 104 l 1047 104 q 1124 120 1094 104 q 1178 176 1154 136 q 1231 293 1201 215 q 1314 274 1275 286 q 1369 246 1353 261 m 638 489 l 638 750 q 642 825 638 783 q 606 758 626 793 l 450 489 l 638 489 z "},"Ǽ":{"ha":1390,"x_min":14,"x_max":1369,"o":"m 1369 246 q 1342 131 1354 197 q 1326 -3 1331 64 q 933 0 1190 0 q 535 -4 614 0 q 546 104 535 64 q 603 119 585 107 q 630 163 622 132 q 638 260 638 194 l 638 392 q 383 374 460 385 l 307 236 q 283 163 283 192 q 347 104 283 115 q 361 -4 361 71 q 197 0 297 0 q 14 -4 56 0 q 17 57 14 26 q 28 104 21 88 q 103 131 76 111 q 164 211 129 151 l 460 721 q 485 789 485 765 q 419 835 485 828 q 408 883 414 847 q 401 942 401 919 q 690 939 546 939 l 879 939 q 1286 943 1156 939 q 1294 814 1286 881 q 1315 696 1303 747 q 1256 678 1301 685 q 1175 671 1210 671 q 1119 794 1160 754 q 983 835 1079 835 l 915 835 l 915 489 l 931 489 q 993 496 974 489 q 1021 525 1013 503 q 1031 594 1029 547 q 1088 608 1053 603 q 1151 613 1122 613 q 1147 447 1147 546 q 1151 281 1147 342 q 1032 293 1060 281 q 1021 361 1029 340 q 992 390 1013 382 q 931 397 972 397 l 915 397 l 915 267 q 925 165 915 200 q 958 117 935 131 q 1024 104 981 104 l 1047 104 q 1124 120 1094 104 q 1178 176 1154 136 q 1231 293 1201 215 q 1314 274 1275 286 q 1369 246 1353 261 m 638 489 l 638 750 q 642 825 638 783 q 606 758 626 793 l 450 489 l 638 489 m 824 1021 q 682 1046 750 1021 q 767 1211 731 1122 q 897 1225 826 1225 q 992 1217 953 1225 q 824 1021 900 1121 z "},"B":{"ha":990,"x_min":42,"x_max":949,"o":"m 678 514 q 885 443 821 506 q 949 269 949 381 q 510 0 949 0 q 42 -4 257 0 q 53 104 42 63 q 110 119 92 107 q 137 163 129 132 q 144 260 144 194 l 144 682 q 138 776 144 746 q 112 817 131 806 q 51 835 93 829 q 42 943 42 874 q 192 939 93 939 q 344 940 285 939 l 510 942 q 741 917 656 942 q 863 847 826 893 q 899 726 899 800 q 841 587 899 644 q 678 514 783 529 m 621 689 q 584 795 621 756 q 488 835 547 835 q 422 822 451 835 l 422 533 l 472 533 q 581 574 542 533 q 621 689 621 614 m 518 103 q 607 143 571 103 q 643 254 643 183 q 598 390 643 350 q 457 429 553 429 l 422 429 l 422 247 q 447 133 422 163 q 518 103 472 103 z "},"C":{"ha":881,"x_min":49,"x_max":853,"o":"m 526 -12 q 276 49 385 -12 q 108 220 168 110 q 49 474 49 331 q 115 733 49 625 q 290 897 181 842 q 526 951 399 951 q 681 933 601 951 q 832 879 760 914 q 817 664 817 792 q 758 649 800 654 q 679 644 717 644 q 532 844 678 844 q 381 750 428 844 q 333 510 333 656 q 401 225 333 332 q 608 118 469 118 q 814 176 710 118 q 853 100 843 151 q 714 19 797 51 q 526 -12 631 -12 z "},"Ć":{"ha":881,"x_min":49,"x_max":853,"o":"m 526 -12 q 276 49 385 -12 q 108 220 168 110 q 49 474 49 331 q 115 733 49 625 q 290 897 181 842 q 526 951 399 951 q 681 933 601 951 q 832 879 760 914 q 817 664 817 792 q 758 649 800 654 q 679 644 717 644 q 532 844 678 844 q 381 750 428 844 q 333 510 333 656 q 401 225 333 332 q 608 118 469 118 q 814 176 710 118 q 853 100 843 151 q 714 19 797 51 q 526 -12 631 -12 m 564 1021 q 422 1046 490 1021 q 507 1211 471 1122 q 638 1225 567 1225 q 732 1217 693 1225 q 564 1021 640 1121 z "},"Č":{"ha":881,"x_min":49,"x_max":853,"o":"m 526 -12 q 276 49 385 -12 q 108 220 168 110 q 49 474 49 331 q 115 733 49 625 q 290 897 181 842 q 526 951 399 951 q 681 933 601 951 q 832 879 760 914 q 817 664 817 792 q 758 649 800 654 q 679 644 717 644 q 532 844 678 844 q 381 750 428 844 q 333 510 333 656 q 401 225 333 332 q 608 118 469 118 q 814 176 710 118 q 853 100 843 151 q 714 19 797 51 q 526 -12 631 -12 m 435 1007 q 235 1164 361 1081 q 290 1214 260 1194 q 365 1242 321 1233 q 526 1163 418 1208 q 548 1173 538 1168 q 568 1182 558 1178 q 676 1238 638 1213 q 735 1212 710 1233 q 769 1164 760 1190 q 560 1022 625 1078 q 435 1007 513 1007 z "},"Ç":{"ha":881,"x_min":49,"x_max":853,"o":"m 532 -60 q 623 -106 590 -69 q 656 -192 656 -143 q 592 -299 656 -261 q 411 -336 529 -336 q 399 -265 399 -311 q 476 -249 444 -265 q 507 -204 507 -233 q 484 -167 507 -182 q 426 -153 461 -153 q 401 -87 401 -124 l 465 -10 q 246 67 340 3 q 100 237 151 132 q 49 474 49 342 q 115 733 49 625 q 290 897 181 842 q 526 951 399 951 q 681 933 601 951 q 832 879 760 914 q 817 664 817 792 q 758 649 800 654 q 679 644 717 644 q 532 844 678 844 q 381 750 428 844 q 333 510 333 656 q 401 225 333 332 q 608 118 469 118 q 814 176 710 118 q 853 100 843 151 q 732 26 804 57 q 569 -11 660 -4 l 532 -60 z "},"Ḉ":{"ha":881,"x_min":49,"x_max":853,"o":"m 732 1217 q 564 1021 640 1121 q 422 1046 490 1021 q 507 1211 471 1122 q 638 1225 567 1225 q 732 1217 692 1225 m 532 -60 q 623 -106 590 -69 q 656 -192 656 -143 q 592 -299 656 -261 q 411 -336 529 -336 q 399 -265 399 -311 q 476 -249 444 -265 q 507 -204 507 -233 q 484 -167 507 -182 q 426 -153 461 -153 q 401 -87 401 -124 l 465 -10 q 246 67 340 3 q 100 237 151 132 q 49 474 49 342 q 115 733 49 625 q 290 897 181 842 q 526 951 399 951 q 681 933 601 951 q 832 879 760 914 q 817 664 817 792 q 758 649 800 654 q 679 644 717 644 q 532 844 678 844 q 381 750 428 844 q 333 510 333 656 q 401 225 333 332 q 608 118 469 118 q 814 176 710 118 q 853 100 843 151 q 732 26 804 57 q 569 -11 660 -4 l 532 -60 z "},"Ĉ":{"ha":881,"x_min":49,"x_max":853,"o":"m 526 -12 q 276 49 385 -12 q 108 220 168 110 q 49 474 49 331 q 115 733 49 625 q 290 897 181 842 q 526 951 399 951 q 681 933 601 951 q 832 879 760 914 q 817 664 817 792 q 758 649 800 654 q 679 644 717 644 q 532 844 678 844 q 381 750 428 844 q 333 510 333 656 q 401 225 333 332 q 608 118 469 118 q 814 176 710 118 q 853 100 843 151 q 714 19 797 51 q 526 -12 631 -12 m 349 1011 q 290 1037 315 1015 q 256 1085 265 1058 q 465 1226 400 1171 q 590 1242 513 1242 q 790 1085 664 1168 q 735 1035 765 1054 q 660 1007 704 1015 q 499 1086 606 1040 q 477 1076 488 1081 q 457 1067 467 1071 q 349 1011 388 1036 z "},"Ċ":{"ha":881,"x_min":49,"x_max":853,"o":"m 526 -12 q 276 49 385 -12 q 108 220 168 110 q 49 474 49 331 q 115 733 49 625 q 290 897 181 842 q 526 951 399 951 q 681 933 601 951 q 832 879 760 914 q 817 664 817 792 q 758 649 800 654 q 679 644 717 644 q 532 844 678 844 q 381 750 428 844 q 333 510 333 656 q 401 225 333 332 q 608 118 469 118 q 814 176 710 118 q 853 100 843 151 q 714 19 797 51 q 526 -12 631 -12 m 514 992 q 410 1022 449 992 q 372 1104 372 1053 q 414 1196 372 1164 q 524 1228 456 1228 q 635 1197 597 1228 q 674 1107 674 1167 q 631 1024 674 1056 q 514 992 588 992 z "},"D":{"ha":1026,"x_min":42,"x_max":978,"o":"m 478 942 q 739 906 631 942 q 913 771 847 869 q 978 493 978 672 q 888 179 978 289 q 685 35 799 69 q 471 0 572 0 q 247 -1 372 0 q 42 -4 122 -3 q 53 104 42 63 q 110 119 92 107 q 137 163 129 132 q 144 260 144 194 l 144 682 q 138 776 144 746 q 112 817 131 806 q 51 835 93 829 q 42 943 42 874 q 332 939 140 939 q 389 940 368 939 l 478 942 m 531 104 q 642 178 588 104 q 697 468 697 251 q 478 838 697 838 q 422 826 447 838 l 422 267 q 432 167 422 201 q 465 118 442 132 q 531 104 488 104 z "},"Ǳ":{"ha":1840,"x_min":42,"x_max":1799,"o":"m 478 942 q 739 906 631 942 q 913 771 847 869 q 978 493 978 672 q 888 179 978 289 q 685 35 799 69 q 471 0 572 0 q 247 -1 372 0 q 42 -4 122 -3 q 53 104 42 63 q 110 119 92 107 q 137 163 129 132 q 144 260 144 194 l 144 682 q 138 776 144 746 q 112 817 131 806 q 51 835 93 829 q 42 943 42 874 q 332 939 140 939 q 389 940 368 939 l 478 942 m 531 104 q 642 178 588 104 q 697 468 697 251 q 478 838 697 838 q 422 826 447 838 l 422 267 q 432 167 422 201 q 465 118 442 132 q 531 104 488 104 m 1649 294 q 1799 254 1739 288 q 1774 124 1786 201 q 1760 -4 1761 47 q 1401 0 1651 0 q 1096 -4 1224 0 q 1068 94 1068 35 q 1292 496 1206 338 q 1467 835 1378 654 l 1393 835 q 1321 818 1349 835 q 1273 759 1293 801 q 1233 633 1253 717 q 1086 653 1131 633 q 1113 794 1104 715 q 1121 942 1121 872 q 1446 939 1190 939 q 1754 942 1669 939 q 1783 844 1779 900 q 1593 464 1682 633 q 1393 104 1504 294 l 1443 104 q 1542 119 1506 104 q 1603 175 1579 135 q 1649 294 1628 215 z "},"Ǆ":{"ha":1840,"x_min":42,"x_max":1799,"o":"m 478 942 q 739 906 631 942 q 913 771 847 869 q 978 493 978 672 q 888 179 978 289 q 685 35 799 69 q 471 0 572 0 q 247 -1 372 0 q 42 -4 122 -3 q 53 104 42 63 q 110 119 92 107 q 137 163 129 132 q 144 260 144 194 l 144 682 q 138 776 144 746 q 112 817 131 806 q 51 835 93 829 q 42 943 42 874 q 332 939 140 939 q 389 940 368 939 l 478 942 m 531 104 q 642 178 588 104 q 697 468 697 251 q 478 838 697 838 q 422 826 447 838 l 422 267 q 432 167 422 201 q 465 118 442 132 q 531 104 488 104 m 1649 294 q 1799 254 1739 288 q 1774 124 1786 201 q 1760 -4 1761 47 q 1401 0 1651 0 q 1096 -4 1224 0 q 1068 94 1068 35 q 1292 496 1206 338 q 1467 835 1378 654 l 1393 835 q 1321 818 1349 835 q 1273 759 1293 801 q 1233 633 1253 717 q 1086 653 1131 633 q 1113 794 1104 715 q 1121 942 1121 872 q 1446 939 1190 939 q 1754 942 1669 939 q 1783 844 1779 900 q 1593 464 1682 633 q 1393 104 1504 294 l 1443 104 q 1542 119 1506 104 q 1603 175 1579 135 q 1649 294 1628 215 m 1354 1007 q 1154 1164 1281 1081 q 1210 1214 1179 1194 q 1285 1242 1240 1233 q 1446 1163 1338 1208 q 1467 1173 1457 1168 q 1488 1182 1478 1178 q 1596 1238 1557 1213 q 1654 1212 1629 1233 q 1689 1164 1679 1190 q 1479 1022 1544 1078 q 1354 1007 1432 1007 z "},"Ð":{"ha":1026,"x_min":42,"x_max":978,"o":"m 478 942 q 739 906 631 942 q 913 771 847 869 q 978 493 978 672 q 888 179 978 289 q 685 35 799 69 q 471 0 572 0 q 247 -1 372 0 q 42 -4 122 -3 q 53 104 42 63 q 110 119 92 107 q 137 163 129 132 q 144 260 144 194 l 144 410 l 46 408 q 61 535 46 486 l 144 535 l 144 682 q 138 776 144 746 q 112 817 131 806 q 51 835 93 829 q 42 943 42 874 q 332 939 140 939 q 389 940 368 939 l 478 942 m 531 104 q 642 178 588 104 q 697 468 697 251 q 478 838 697 838 q 422 826 447 838 l 422 535 l 550 535 q 535 411 550 458 q 422 413 486 413 l 422 267 q 432 167 422 201 q 465 118 442 132 q 531 104 488 104 z "},"Ď":{"ha":1026,"x_min":42,"x_max":978,"o":"m 478 942 q 739 906 631 942 q 913 771 847 869 q 978 493 978 672 q 888 179 978 289 q 685 35 799 69 q 471 0 572 0 q 247 -1 372 0 q 42 -4 122 -3 q 53 104 42 63 q 110 119 92 107 q 137 163 129 132 q 144 260 144 194 l 144 682 q 138 776 144 746 q 112 817 131 806 q 51 835 93 829 q 42 943 42 874 q 332 939 140 939 q 389 940 368 939 l 478 942 m 531 104 q 642 178 588 104 q 697 468 697 251 q 478 838 697 838 q 422 826 447 838 l 422 267 q 432 167 422 201 q 465 118 442 132 q 531 104 488 104 m 397 1007 q 197 1164 324 1081 q 253 1214 222 1194 q 328 1242 283 1233 q 489 1163 381 1208 q 510 1173 500 1168 q 531 1182 521 1178 q 639 1238 600 1213 q 697 1212 672 1233 q 732 1164 722 1190 q 522 1022 588 1078 q 397 1007 475 1007 z "},"Đ":{"ha":1026,"x_min":42,"x_max":978,"o":"m 478 942 q 739 906 631 942 q 913 771 847 869 q 978 493 978 672 q 888 179 978 289 q 685 35 799 69 q 471 0 572 0 q 247 -1 372 0 q 42 -4 122 -3 q 53 104 42 63 q 110 119 92 107 q 137 163 129 132 q 144 260 144 194 l 144 410 l 46 408 q 61 535 46 486 l 144 535 l 144 682 q 138 776 144 746 q 112 817 131 806 q 51 835 93 829 q 42 943 42 874 q 332 939 140 939 q 389 940 368 939 l 478 942 m 531 104 q 642 178 588 104 q 697 468 697 251 q 478 838 697 838 q 422 826 447 838 l 422 535 l 550 535 q 535 411 550 458 q 422 413 486 413 l 422 267 q 432 167 422 201 q 465 118 442 132 q 531 104 488 104 z "},"Ḍ":{"ha":1026,"x_min":42,"x_max":978,"o":"m 478 942 q 739 906 631 942 q 913 771 847 869 q 978 493 978 672 q 888 179 978 289 q 685 35 799 69 q 471 0 572 0 q 247 -1 372 0 q 42 -4 122 -3 q 53 104 42 63 q 110 119 92 107 q 137 163 129 132 q 144 260 144 194 l 144 682 q 138 776 144 746 q 112 817 131 806 q 51 835 93 829 q 42 943 42 874 q 332 939 140 939 q 389 940 368 939 l 478 942 m 531 104 q 642 178 588 104 q 697 468 697 251 q 478 838 697 838 q 422 826 447 838 l 422 267 q 432 167 422 201 q 465 118 442 132 q 531 104 488 104 m 435 -328 q 331 -297 369 -328 q 293 -215 293 -267 q 335 -124 293 -156 q 444 -92 376 -92 q 556 -122 518 -92 q 594 -212 594 -153 q 551 -296 594 -264 q 435 -328 508 -328 z "},"Ḏ":{"ha":1026,"x_min":42,"x_max":978,"o":"m 478 942 q 739 906 631 942 q 913 771 847 869 q 978 493 978 672 q 888 179 978 289 q 685 35 799 69 q 471 0 572 0 q 247 -1 372 0 q 42 -4 122 -3 q 53 104 42 63 q 110 119 92 107 q 137 163 129 132 q 144 260 144 194 l 144 682 q 138 776 144 746 q 112 817 131 806 q 51 835 93 829 q 42 943 42 874 q 332 939 140 939 q 389 940 368 939 l 478 942 m 531 104 q 642 178 588 104 q 697 468 697 251 q 478 838 697 838 q 422 826 447 838 l 422 267 q 432 167 422 201 q 465 118 442 132 q 531 104 488 104 m 164 -218 q 176 -124 164 -157 l 697 -124 q 685 -204 697 -168 q 164 -218 404 -204 z "},"ǲ":{"ha":1746,"x_min":42,"x_max":1718,"o":"m 478 942 q 739 906 631 942 q 913 771 847 869 q 978 493 978 672 q 888 179 978 289 q 685 35 799 69 q 471 0 572 0 q 247 -1 372 0 q 42 -4 122 -3 q 53 104 42 63 q 110 119 92 107 q 137 163 129 132 q 144 260 144 194 l 144 682 q 138 776 144 746 q 112 817 131 806 q 51 835 93 829 q 42 943 42 874 q 332 939 140 939 q 389 940 368 939 l 478 942 m 531 104 q 642 178 588 104 q 697 468 697 251 q 478 838 697 838 q 422 826 447 838 l 422 267 q 432 167 422 201 q 465 118 442 132 q 531 104 488 104 m 1707 250 q 1718 31 1707 97 q 1653 -3 1703 -3 q 1528 -1 1576 -3 l 1374 0 q 1111 -3 1211 0 q 1090 45 1099 17 q 1082 100 1082 74 q 1389 532 1258 325 l 1336 532 q 1284 521 1303 532 q 1254 481 1265 510 q 1235 397 1243 453 q 1151 400 1192 394 q 1086 419 1111 406 q 1103 640 1103 504 q 1399 636 1189 636 q 1671 640 1579 636 q 1693 553 1693 607 q 1394 104 1569 342 l 1461 104 q 1526 119 1504 104 q 1557 168 1547 135 q 1571 265 1567 201 q 1707 250 1644 269 z "},"ǅ":{"ha":1746,"x_min":42,"x_max":1718,"o":"m 478 942 q 739 906 631 942 q 913 771 847 869 q 978 493 978 672 q 888 179 978 289 q 685 35 799 69 q 471 0 572 0 q 247 -1 372 0 q 42 -4 122 -3 q 53 104 42 63 q 110 119 92 107 q 137 163 129 132 q 144 260 144 194 l 144 682 q 138 776 144 746 q 112 817 131 806 q 51 835 93 829 q 42 943 42 874 q 332 939 140 939 q 389 940 368 939 l 478 942 m 531 104 q 642 178 588 104 q 697 468 697 251 q 478 838 697 838 q 422 826 447 838 l 422 267 q 432 167 422 201 q 465 118 442 132 q 531 104 488 104 m 1707 250 q 1718 31 1707 97 q 1653 -3 1703 -3 q 1528 -1 1576 -3 l 1374 0 q 1111 -3 1211 0 q 1090 45 1099 17 q 1082 100 1082 74 q 1389 532 1258 325 l 1336 532 q 1284 521 1303 532 q 1254 481 1265 510 q 1235 397 1243 453 q 1151 400 1192 394 q 1086 419 1111 406 q 1103 640 1103 504 q 1399 636 1189 636 q 1671 640 1579 636 q 1693 553 1693 607 q 1394 104 1569 342 l 1461 104 q 1526 119 1504 104 q 1557 168 1547 135 q 1571 265 1567 201 q 1707 250 1644 269 m 1319 717 q 1110 925 1233 814 q 1144 972 1119 953 q 1210 1004 1169 990 q 1394 894 1296 939 q 1489 943 1439 913 q 1575 1004 1539 974 q 1629 974 1606 997 q 1661 925 1653 950 q 1444 732 1526 824 q 1319 717 1396 714 z "},"E":{"ha":897,"x_min":42,"x_max":876,"o":"m 735 293 q 819 276 781 289 q 876 246 858 263 q 833 -3 844 150 q 471 0 669 0 q 247 -1 372 0 q 42 -4 122 -3 q 53 104 42 63 q 110 119 92 107 q 137 163 129 132 q 144 260 144 194 l 144 682 q 138 776 144 746 q 112 817 131 806 q 51 835 93 829 q 42 943 42 874 q 418 939 171 939 q 793 943 676 939 q 802 813 794 883 q 822 696 810 742 q 682 671 757 671 q 626 794 667 754 q 490 835 586 835 l 422 835 l 422 519 l 424 519 q 512 541 489 519 q 536 618 535 563 q 658 635 579 635 q 653 472 653 546 q 658 307 653 388 q 539 321 579 307 q 510 397 533 378 q 424 415 486 415 l 422 415 l 422 267 q 432 167 422 201 q 465 118 442 132 q 531 104 488 104 l 554 104 q 666 148 625 104 q 735 293 707 192 z "},"É":{"ha":897,"x_min":42,"x_max":876,"o":"m 735 293 q 819 276 781 289 q 876 246 858 263 q 833 -3 844 150 q 471 0 669 0 q 247 -1 372 0 q 42 -4 122 -3 q 53 104 42 63 q 110 119 92 107 q 137 163 129 132 q 144 260 144 194 l 144 682 q 138 776 144 746 q 112 817 131 806 q 51 835 93 829 q 42 943 42 874 q 418 939 171 939 q 793 943 676 939 q 802 813 794 883 q 822 696 810 742 q 682 671 757 671 q 626 794 667 754 q 490 835 586 835 l 422 835 l 422 519 l 424 519 q 512 541 489 519 q 536 618 535 563 q 658 635 579 635 q 653 472 653 546 q 658 307 653 388 q 539 321 579 307 q 510 397 533 378 q 424 415 486 415 l 422 415 l 422 267 q 432 167 422 201 q 465 118 442 132 q 531 104 488 104 l 554 104 q 666 148 625 104 q 735 293 707 192 m 476 1021 q 335 1046 403 1021 q 419 1211 383 1122 q 550 1225 479 1225 q 644 1217 606 1225 q 476 1021 553 1121 z "},"Ĕ":{"ha":897,"x_min":42,"x_max":876,"o":"m 735 293 q 819 276 781 289 q 876 246 858 263 q 833 -3 844 150 q 471 0 669 0 q 247 -1 372 0 q 42 -4 122 -3 q 53 104 42 63 q 110 119 92 107 q 137 163 129 132 q 144 260 144 194 l 144 682 q 138 776 144 746 q 112 817 131 806 q 51 835 93 829 q 42 943 42 874 q 418 939 171 939 q 793 943 676 939 q 802 813 794 883 q 822 696 810 742 q 682 671 757 671 q 626 794 667 754 q 490 835 586 835 l 422 835 l 422 519 l 424 519 q 512 541 489 519 q 536 618 535 563 q 658 635 579 635 q 653 472 653 546 q 658 307 653 388 q 539 321 579 307 q 510 397 533 378 q 424 415 486 415 l 422 415 l 422 267 q 432 167 422 201 q 465 118 442 132 q 531 104 488 104 l 554 104 q 666 148 625 104 q 735 293 707 192 m 689 1207 q 433 1001 689 1001 q 183 1201 183 1001 q 283 1219 229 1219 q 328 1215 304 1219 q 451 1146 340 1146 q 533 1163 504 1146 q 564 1215 563 1181 q 611 1221 594 1221 q 689 1207 650 1221 z "},"Ě":{"ha":897,"x_min":42,"x_max":876,"o":"m 735 293 q 819 276 781 289 q 876 246 858 263 q 833 -3 844 150 q 471 0 669 0 q 247 -1 372 0 q 42 -4 122 -3 q 53 104 42 63 q 110 119 92 107 q 137 163 129 132 q 144 260 144 194 l 144 682 q 138 776 144 746 q 112 817 131 806 q 51 835 93 829 q 42 943 42 874 q 418 939 171 939 q 793 943 676 939 q 802 813 794 883 q 822 696 810 742 q 682 671 757 671 q 626 794 667 754 q 490 835 586 835 l 422 835 l 422 519 l 424 519 q 512 541 489 519 q 536 618 535 563 q 658 635 579 635 q 653 472 653 546 q 658 307 653 388 q 539 321 579 307 q 510 397 533 378 q 424 415 486 415 l 422 415 l 422 267 q 432 167 422 201 q 465 118 442 132 q 531 104 488 104 l 554 104 q 666 148 625 104 q 735 293 707 192 m 347 1007 q 147 1164 274 1081 q 203 1214 172 1194 q 278 1242 233 1233 q 439 1163 331 1208 q 460 1173 450 1168 q 481 1182 471 1178 q 589 1238 550 1213 q 647 1212 622 1233 q 682 1164 672 1190 q 472 1022 538 1078 q 347 1007 425 1007 z "},"Ȩ":{"ha":897,"x_min":42,"x_max":876,"o":"m 833 -3 q 526 0 694 0 l 481 -60 q 572 -106 539 -69 q 604 -192 604 -143 q 541 -299 604 -261 q 360 -336 478 -336 q 347 -265 347 -311 q 424 -249 393 -265 q 456 -204 456 -233 q 433 -167 456 -182 q 375 -153 410 -153 q 350 -87 350 -124 l 422 0 l 267 -1 q 146 -3 207 -3 q 42 -4 85 -3 q 53 104 42 63 q 110 119 92 107 q 137 163 129 132 q 144 260 144 194 l 144 682 q 138 776 144 746 q 112 817 131 806 q 51 835 93 829 q 42 943 42 874 q 418 939 171 939 q 793 943 676 939 q 802 813 794 883 q 822 696 810 742 q 682 671 757 671 q 626 794 667 754 q 490 835 586 835 l 422 835 l 422 519 l 424 519 q 512 541 489 519 q 536 618 535 563 q 658 635 579 635 q 653 472 653 546 q 658 307 653 388 q 539 321 579 307 q 510 397 533 378 q 424 415 486 415 l 422 415 l 422 267 q 432 167 422 201 q 465 118 442 132 q 531 104 488 104 l 554 104 q 666 148 625 104 q 735 293 707 192 q 819 276 781 289 q 876 246 858 263 q 833 -3 844 150 z "},"Ḝ":{"ha":897,"x_min":42,"x_max":876,"o":"m 433 1001 q 183 1201 183 1001 q 283 1219 228 1219 q 328 1215 304 1219 q 451 1146 340 1146 q 533 1163 504 1146 q 564 1215 563 1181 q 611 1221 594 1221 q 689 1207 650 1221 q 433 1001 689 1001 m 833 -3 q 526 0 694 0 l 481 -60 q 572 -106 539 -69 q 604 -192 604 -143 q 541 -299 604 -261 q 360 -336 478 -336 q 347 -265 347 -311 q 424 -249 393 -265 q 456 -204 456 -233 q 433 -167 456 -182 q 375 -153 410 -153 q 350 -87 350 -124 l 422 0 l 267 -1 q 146 -3 207 -3 q 42 -4 85 -3 q 53 104 42 63 q 110 119 92 107 q 137 163 129 132 q 144 260 144 194 l 144 682 q 138 776 144 746 q 112 817 131 806 q 51 835 93 829 q 42 943 42 874 q 418 939 171 939 q 793 943 676 939 q 802 813 794 883 q 822 696 810 742 q 682 671 757 671 q 626 794 667 754 q 490 835 586 835 l 422 835 l 422 519 l 424 519 q 512 541 489 519 q 536 618 535 563 q 658 635 579 635 q 653 472 653 546 q 658 307 653 388 q 539 321 579 307 q 510 397 533 378 q 424 415 486 415 l 422 415 l 422 267 q 432 167 422 201 q 465 118 442 132 q 531 104 488 104 l 554 104 q 666 148 625 104 q 735 293 707 192 q 819 276 781 289 q 876 246 858 263 q 833 -3 844 150 z "},"Ê":{"ha":897,"x_min":42,"x_max":876,"o":"m 735 293 q 819 276 781 289 q 876 246 858 263 q 833 -3 844 150 q 471 0 669 0 q 247 -1 372 0 q 42 -4 122 -3 q 53 104 42 63 q 110 119 92 107 q 137 163 129 132 q 144 260 144 194 l 144 682 q 138 776 144 746 q 112 817 131 806 q 51 835 93 829 q 42 943 42 874 q 418 939 171 939 q 793 943 676 939 q 802 813 794 883 q 822 696 810 742 q 682 671 757 671 q 626 794 667 754 q 490 835 586 835 l 422 835 l 422 519 l 424 519 q 512 541 489 519 q 536 618 535 563 q 658 635 579 635 q 653 472 653 546 q 658 307 653 388 q 539 321 579 307 q 510 397 533 378 q 424 415 486 415 l 422 415 l 422 267 q 432 167 422 201 q 465 118 442 132 q 531 104 488 104 l 554 104 q 666 148 625 104 q 735 293 707 192 m 261 1011 q 203 1037 228 1015 q 168 1085 178 1058 q 378 1226 313 1171 q 503 1242 425 1242 q 703 1085 576 1168 q 647 1035 678 1054 q 572 1007 617 1015 q 411 1086 518 1040 q 390 1076 400 1081 q 369 1067 379 1071 q 261 1011 300 1036 z "},"Ế":{"ha":897,"x_min":42,"x_max":876,"o":"m 735 293 q 819 276 781 289 q 876 246 858 263 q 833 -3 844 150 q 471 0 669 0 q 247 -1 372 0 q 42 -4 122 -3 q 53 104 42 63 q 110 119 92 107 q 137 163 129 132 q 144 260 144 194 l 144 682 q 138 776 144 746 q 112 817 131 806 q 51 835 93 829 q 42 943 42 874 q 418 939 171 939 q 793 943 676 939 q 802 813 794 883 q 822 696 810 742 q 682 671 757 671 q 626 794 667 754 q 490 835 586 835 l 422 835 l 422 519 l 424 519 q 512 541 489 519 q 536 618 535 563 q 658 635 579 635 q 653 472 653 546 q 658 307 653 388 q 539 321 579 307 q 510 397 533 378 q 424 415 486 415 l 422 415 l 422 267 q 432 167 422 201 q 465 118 442 132 q 531 104 488 104 l 554 104 q 666 148 625 104 q 735 293 707 192 m 261 1011 q 203 1037 228 1015 q 168 1085 178 1058 q 378 1226 313 1171 q 503 1242 425 1242 q 703 1085 576 1168 q 647 1035 678 1054 q 572 1007 617 1015 q 411 1086 518 1040 q 390 1076 400 1081 q 369 1067 379 1071 q 261 1011 300 1036 m 476 1296 q 335 1321 403 1296 q 419 1486 383 1397 q 550 1500 479 1500 q 644 1492 606 1500 q 476 1296 553 1396 z "},"Ệ":{"ha":897,"x_min":42,"x_max":876,"o":"m 735 293 q 819 276 781 289 q 876 246 858 263 q 833 -3 844 150 q 471 0 669 0 q 247 -1 372 0 q 42 -4 122 -3 q 53 104 42 63 q 110 119 92 107 q 137 163 129 132 q 144 260 144 194 l 144 682 q 138 776 144 746 q 112 817 131 806 q 51 835 93 829 q 42 943 42 874 q 418 939 171 939 q 793 943 676 939 q 802 813 794 883 q 822 696 810 742 q 682 671 757 671 q 626 794 667 754 q 490 835 586 835 l 422 835 l 422 519 l 424 519 q 512 541 489 519 q 536 618 535 563 q 658 635 579 635 q 653 472 653 546 q 658 307 653 388 q 539 321 579 307 q 510 397 533 378 q 424 415 486 415 l 422 415 l 422 267 q 432 167 422 201 q 465 118 442 132 q 531 104 488 104 l 554 104 q 666 148 625 104 q 735 293 707 192 m 467 -328 q 363 -297 401 -328 q 325 -215 325 -267 q 367 -124 325 -156 q 476 -92 408 -92 q 588 -122 550 -92 q 626 -212 626 -153 q 583 -296 626 -264 q 467 -328 540 -328 m 261 1011 q 203 1037 228 1015 q 168 1085 178 1058 q 378 1226 313 1171 q 503 1242 425 1242 q 703 1085 576 1168 q 647 1035 678 1054 q 572 1007 617 1015 q 411 1086 518 1040 q 390 1076 400 1081 q 369 1067 379 1071 q 261 1011 300 1036 z "},"Ề":{"ha":897,"x_min":42,"x_max":876,"o":"m 735 293 q 819 276 781 289 q 876 246 858 263 q 833 -3 844 150 q 471 0 669 0 q 247 -1 372 0 q 42 -4 122 -3 q 53 104 42 63 q 110 119 92 107 q 137 163 129 132 q 144 260 144 194 l 144 682 q 138 776 144 746 q 112 817 131 806 q 51 835 93 829 q 42 943 42 874 q 418 939 171 939 q 793 943 676 939 q 802 813 794 883 q 822 696 810 742 q 682 671 757 671 q 626 794 667 754 q 490 835 586 835 l 422 835 l 422 519 l 424 519 q 512 541 489 519 q 536 618 535 563 q 658 635 579 635 q 653 472 653 546 q 658 307 653 388 q 539 321 579 307 q 510 397 533 378 q 424 415 486 415 l 422 415 l 422 267 q 432 167 422 201 q 465 118 442 132 q 531 104 488 104 l 554 104 q 666 148 625 104 q 735 293 707 192 m 261 1011 q 203 1037 228 1015 q 168 1085 178 1058 q 378 1226 313 1171 q 503 1242 425 1242 q 703 1085 576 1168 q 647 1035 678 1054 q 572 1007 617 1015 q 411 1086 518 1040 q 390 1076 400 1081 q 369 1067 379 1071 q 261 1011 300 1036 m 396 1296 q 242 1464 311 1397 q 333 1491 279 1482 q 442 1500 388 1500 q 483 1409 457 1460 q 538 1321 510 1358 q 396 1296 469 1296 z "},"Ể":{"ha":897,"x_min":42,"x_max":876,"o":"m 735 293 q 819 276 781 289 q 876 246 858 263 q 833 -3 844 150 q 471 0 669 0 q 247 -1 372 0 q 42 -4 122 -3 q 53 104 42 63 q 110 119 92 107 q 137 163 129 132 q 144 260 144 194 l 144 682 q 138 776 144 746 q 112 817 131 806 q 51 835 93 829 q 42 943 42 874 q 418 939 171 939 q 793 943 676 939 q 802 813 794 883 q 822 696 810 742 q 682 671 757 671 q 626 794 667 754 q 490 835 586 835 l 422 835 l 422 519 l 424 519 q 512 541 489 519 q 536 618 535 563 q 658 635 579 635 q 653 472 653 546 q 658 307 653 388 q 539 321 579 307 q 510 397 533 378 q 424 415 486 415 l 422 415 l 422 267 q 432 167 422 201 q 465 118 442 132 q 531 104 488 104 l 554 104 q 666 148 625 104 q 735 293 707 192 m 261 1011 q 203 1037 228 1015 q 168 1085 178 1058 q 378 1226 313 1171 q 503 1242 425 1242 q 703 1085 576 1168 q 647 1035 678 1054 q 572 1007 617 1015 q 411 1086 518 1040 q 390 1076 400 1081 q 369 1067 379 1071 q 261 1011 300 1036 m 606 1203 q 596 1236 596 1218 q 609 1270 596 1257 q 649 1299 622 1283 q 676 1318 667 1310 q 686 1336 686 1326 q 649 1356 686 1356 q 608 1342 624 1356 q 581 1292 592 1329 q 461 1313 511 1292 q 465 1361 465 1338 q 461 1400 465 1382 q 672 1439 539 1439 q 812 1417 768 1439 q 856 1353 856 1396 q 835 1301 856 1321 q 781 1265 815 1282 q 750 1248 760 1256 q 740 1231 740 1240 q 744 1210 740 1222 q 656 1199 704 1199 q 606 1203 628 1199 z "},"Ễ":{"ha":897,"x_min":42,"x_max":876,"o":"m 735 293 q 819 276 781 289 q 876 246 858 263 q 833 -3 844 150 q 471 0 669 0 q 247 -1 372 0 q 42 -4 122 -3 q 53 104 42 63 q 110 119 92 107 q 137 163 129 132 q 144 260 144 194 l 144 682 q 138 776 144 746 q 112 817 131 806 q 51 835 93 829 q 42 943 42 874 q 418 939 171 939 q 793 943 676 939 q 802 813 794 883 q 822 696 810 742 q 682 671 757 671 q 626 794 667 754 q 490 835 586 835 l 422 835 l 422 519 l 424 519 q 512 541 489 519 q 536 618 535 563 q 658 635 579 635 q 653 472 653 546 q 658 307 653 388 q 539 321 579 307 q 510 397 533 378 q 424 415 486 415 l 422 415 l 422 267 q 432 167 422 201 q 465 118 442 132 q 531 104 488 104 l 554 104 q 666 148 625 104 q 735 293 707 192 m 261 1011 q 203 1037 228 1015 q 168 1085 178 1058 q 378 1226 313 1171 q 503 1242 425 1242 q 703 1085 576 1168 q 647 1035 678 1054 q 572 1007 617 1015 q 411 1086 518 1040 q 390 1076 400 1081 q 369 1067 379 1071 q 261 1011 300 1036 m 503 1296 q 442 1306 467 1296 q 386 1335 417 1315 q 347 1357 364 1350 q 307 1364 329 1364 q 199 1299 249 1364 q 161 1347 174 1324 q 147 1404 149 1371 q 240 1483 185 1457 q 349 1508 296 1508 q 407 1499 382 1508 q 468 1472 432 1490 q 513 1451 494 1458 q 550 1444 531 1444 q 635 1500 601 1444 q 725 1453 690 1489 q 631 1337 688 1378 q 503 1296 574 1296 z "},"Ȅ":{"ha":897,"x_min":42,"x_max":876,"o":"m 735 293 q 819 276 781 289 q 876 246 858 263 q 833 -3 844 150 q 471 0 669 0 q 247 -1 372 0 q 42 -4 122 -3 q 53 104 42 63 q 110 119 92 107 q 137 163 129 132 q 144 260 144 194 l 144 682 q 138 776 144 746 q 112 817 131 806 q 51 835 93 829 q 42 943 42 874 q 418 939 171 939 q 793 943 676 939 q 802 813 794 883 q 822 696 810 742 q 682 671 757 671 q 626 794 667 754 q 490 835 586 835 l 422 835 l 422 519 l 424 519 q 512 541 489 519 q 536 618 535 563 q 658 635 579 635 q 653 472 653 546 q 658 307 653 388 q 539 321 579 307 q 510 397 533 378 q 424 415 486 415 l 422 415 l 422 267 q 432 167 422 201 q 465 118 442 132 q 531 104 488 104 l 554 104 q 666 148 625 104 q 735 293 707 192 m 275 993 q 121 1161 190 1094 q 213 1188 158 1179 q 321 1197 267 1197 q 363 1106 336 1157 q 417 1018 389 1056 q 275 993 349 993 m 553 993 q 413 1167 471 1103 q 498 1190 447 1182 q 599 1197 549 1197 q 640 1106 614 1157 q 694 1018 667 1056 q 553 993 626 993 z "},"Ë":{"ha":897,"x_min":42,"x_max":876,"o":"m 735 293 q 819 276 781 289 q 876 246 858 263 q 833 -3 844 150 q 471 0 669 0 q 247 -1 372 0 q 42 -4 122 -3 q 53 104 42 63 q 110 119 92 107 q 137 163 129 132 q 144 260 144 194 l 144 682 q 138 776 144 746 q 112 817 131 806 q 51 835 93 829 q 42 943 42 874 q 418 939 171 939 q 793 943 676 939 q 802 813 794 883 q 822 696 810 742 q 682 671 757 671 q 626 794 667 754 q 490 835 586 835 l 422 835 l 422 519 l 424 519 q 512 541 489 519 q 536 618 535 563 q 658 635 579 635 q 653 472 653 546 q 658 307 653 388 q 539 321 579 307 q 510 397 533 378 q 424 415 486 415 l 422 415 l 422 267 q 432 167 422 201 q 465 118 442 132 q 531 104 488 104 l 554 104 q 666 148 625 104 q 735 293 707 192 m 261 999 q 164 1031 201 999 q 126 1110 126 1063 q 159 1199 126 1163 q 257 1235 192 1235 q 358 1201 325 1235 q 392 1113 392 1168 q 354 1031 392 1064 q 261 999 317 999 m 618 999 q 514 1033 550 999 q 478 1124 478 1067 q 514 1206 478 1176 q 611 1235 550 1235 q 708 1203 669 1235 q 746 1124 746 1171 q 715 1034 746 1069 q 618 999 683 999 z "},"Ė":{"ha":897,"x_min":42,"x_max":876,"o":"m 735 293 q 819 276 781 289 q 876 246 858 263 q 833 -3 844 150 q 471 0 669 0 q 247 -1 372 0 q 42 -4 122 -3 q 53 104 42 63 q 110 119 92 107 q 137 163 129 132 q 144 260 144 194 l 144 682 q 138 776 144 746 q 112 817 131 806 q 51 835 93 829 q 42 943 42 874 q 418 939 171 939 q 793 943 676 939 q 802 813 794 883 q 822 696 810 742 q 682 671 757 671 q 626 794 667 754 q 490 835 586 835 l 422 835 l 422 519 l 424 519 q 512 541 489 519 q 536 618 535 563 q 658 635 579 635 q 653 472 653 546 q 658 307 653 388 q 539 321 579 307 q 510 397 533 378 q 424 415 486 415 l 422 415 l 422 267 q 432 167 422 201 q 465 118 442 132 q 531 104 488 104 l 554 104 q 666 148 625 104 q 735 293 707 192 m 426 992 q 323 1022 361 992 q 285 1104 285 1053 q 326 1196 285 1164 q 436 1228 368 1228 q 548 1197 510 1228 q 586 1107 586 1167 q 543 1024 586 1056 q 426 992 500 992 z "},"Ẹ":{"ha":897,"x_min":42,"x_max":876,"o":"m 735 293 q 819 276 781 289 q 876 246 858 263 q 833 -3 844 150 q 471 0 669 0 q 247 -1 372 0 q 42 -4 122 -3 q 53 104 42 63 q 110 119 92 107 q 137 163 129 132 q 144 260 144 194 l 144 682 q 138 776 144 746 q 112 817 131 806 q 51 835 93 829 q 42 943 42 874 q 418 939 171 939 q 793 943 676 939 q 802 813 794 883 q 822 696 810 742 q 682 671 757 671 q 626 794 667 754 q 490 835 586 835 l 422 835 l 422 519 l 424 519 q 512 541 489 519 q 536 618 535 563 q 658 635 579 635 q 653 472 653 546 q 658 307 653 388 q 539 321 579 307 q 510 397 533 378 q 424 415 486 415 l 422 415 l 422 267 q 432 167 422 201 q 465 118 442 132 q 531 104 488 104 l 554 104 q 666 148 625 104 q 735 293 707 192 m 467 -328 q 363 -297 401 -328 q 325 -215 325 -267 q 367 -124 325 -156 q 476 -92 408 -92 q 588 -122 550 -92 q 626 -212 626 -153 q 583 -296 626 -264 q 467 -328 540 -328 z "},"È":{"ha":897,"x_min":42,"x_max":876,"o":"m 735 293 q 819 276 781 289 q 876 246 858 263 q 833 -3 844 150 q 471 0 669 0 q 247 -1 372 0 q 42 -4 122 -3 q 53 104 42 63 q 110 119 92 107 q 137 163 129 132 q 144 260 144 194 l 144 682 q 138 776 144 746 q 112 817 131 806 q 51 835 93 829 q 42 943 42 874 q 418 939 171 939 q 793 943 676 939 q 802 813 794 883 q 822 696 810 742 q 682 671 757 671 q 626 794 667 754 q 490 835 586 835 l 422 835 l 422 519 l 424 519 q 512 541 489 519 q 536 618 535 563 q 658 635 579 635 q 653 472 653 546 q 658 307 653 388 q 539 321 579 307 q 510 397 533 378 q 424 415 486 415 l 422 415 l 422 267 q 432 167 422 201 q 465 118 442 132 q 531 104 488 104 l 554 104 q 666 148 625 104 q 735 293 707 192 m 396 1021 q 242 1189 311 1122 q 333 1216 279 1207 q 442 1225 388 1225 q 483 1134 457 1185 q 538 1046 510 1083 q 396 1021 469 1021 z "},"Ẻ":{"ha":897,"x_min":42,"x_max":876,"o":"m 735 293 q 819 276 781 289 q 876 246 858 263 q 833 -3 844 150 q 471 0 669 0 q 247 -1 372 0 q 42 -4 122 -3 q 53 104 42 63 q 110 119 92 107 q 137 163 129 132 q 144 260 144 194 l 144 682 q 138 776 144 746 q 112 817 131 806 q 51 835 93 829 q 42 943 42 874 q 418 939 171 939 q 793 943 676 939 q 802 813 794 883 q 822 696 810 742 q 682 671 757 671 q 626 794 667 754 q 490 835 586 835 l 422 835 l 422 519 l 424 519 q 512 541 489 519 q 536 618 535 563 q 658 635 579 635 q 653 472 653 546 q 658 307 653 388 q 539 321 579 307 q 510 397 533 378 q 424 415 486 415 l 422 415 l 422 267 q 432 167 422 201 q 465 118 442 132 q 531 104 488 104 l 554 104 q 666 148 625 104 q 735 293 707 192 m 383 997 q 374 1031 374 1013 q 387 1065 374 1051 q 426 1093 400 1078 q 454 1113 444 1104 q 464 1131 464 1121 q 426 1150 464 1150 q 385 1137 401 1150 q 358 1086 369 1124 q 239 1107 289 1086 q 243 1156 243 1132 q 239 1194 243 1176 q 450 1233 317 1233 q 590 1212 546 1233 q 633 1147 633 1190 q 613 1096 633 1115 q 558 1060 593 1076 q 528 1042 538 1050 q 518 1025 518 1035 q 522 1004 518 1017 q 433 993 482 993 q 383 997 406 993 z "},"Ȇ":{"ha":897,"x_min":42,"x_max":876,"o":"m 735 293 q 819 276 781 289 q 876 246 858 263 q 833 -3 844 150 q 471 0 669 0 q 247 -1 372 0 q 42 -4 122 -3 q 53 104 42 63 q 110 119 92 107 q 137 163 129 132 q 144 260 144 194 l 144 682 q 138 776 144 746 q 112 817 131 806 q 51 835 93 829 q 42 943 42 874 q 418 939 171 939 q 793 943 676 939 q 802 813 794 883 q 822 696 810 742 q 682 671 757 671 q 626 794 667 754 q 490 835 586 835 l 422 835 l 422 519 l 424 519 q 512 541 489 519 q 536 618 535 563 q 658 635 579 635 q 653 472 653 546 q 658 307 653 388 q 539 321 579 307 q 510 397 533 378 q 424 415 486 415 l 422 415 l 422 267 q 432 167 422 201 q 465 118 442 132 q 531 104 488 104 l 554 104 q 666 148 625 104 q 735 293 707 192 m 183 1015 q 439 1221 183 1221 q 689 1021 689 1221 q 589 1003 643 1003 q 544 1007 567 1003 q 421 1076 532 1076 q 339 1059 368 1076 q 308 1007 310 1042 q 261 1001 278 1001 q 183 1015 222 1001 z "},"Ē":{"ha":897,"x_min":42,"x_max":876,"o":"m 735 293 q 819 276 781 289 q 876 246 858 263 q 833 -3 844 150 q 471 0 669 0 q 247 -1 372 0 q 42 -4 122 -3 q 53 104 42 63 q 110 119 92 107 q 137 163 129 132 q 144 260 144 194 l 144 682 q 138 776 144 746 q 112 817 131 806 q 51 835 93 829 q 42 943 42 874 q 418 939 171 939 q 793 943 676 939 q 802 813 794 883 q 822 696 810 742 q 682 671 757 671 q 626 794 667 754 q 490 835 586 835 l 422 835 l 422 519 l 424 519 q 512 541 489 519 q 536 618 535 563 q 658 635 579 635 q 653 472 653 546 q 658 307 653 388 q 539 321 579 307 q 510 397 533 378 q 424 415 486 415 l 422 415 l 422 267 q 432 167 422 201 q 465 118 442 132 q 531 104 488 104 l 554 104 q 666 148 625 104 q 735 293 707 192 m 708 1150 q 696 1060 708 1101 q 163 1042 385 1060 q 175 1150 163 1111 l 708 1150 z "},"Ḗ":{"ha":897,"x_min":42,"x_max":876,"o":"m 735 293 q 819 276 781 289 q 876 246 858 263 q 833 -3 844 150 q 471 0 669 0 q 247 -1 372 0 q 42 -4 122 -3 q 53 104 42 63 q 110 119 92 107 q 137 163 129 132 q 144 260 144 194 l 144 682 q 138 776 144 746 q 112 817 131 806 q 51 835 93 829 q 42 943 42 874 q 418 939 171 939 q 793 943 676 939 q 802 813 794 883 q 822 696 810 742 q 682 671 757 671 q 626 794 667 754 q 490 835 586 835 l 422 835 l 422 519 l 424 519 q 512 541 489 519 q 536 618 535 563 q 658 635 579 635 q 653 472 653 546 q 658 307 653 388 q 539 321 579 307 q 510 397 533 378 q 424 415 486 415 l 422 415 l 422 267 q 432 167 422 201 q 465 118 442 132 q 531 104 488 104 l 554 104 q 666 148 625 104 q 735 293 707 192 m 708 1150 q 696 1060 708 1101 q 163 1042 385 1060 q 175 1150 163 1111 l 708 1150 m 476 1232 q 335 1257 403 1232 q 419 1422 383 1333 q 550 1436 479 1436 q 644 1428 606 1436 q 476 1232 553 1332 z "},"Ḕ":{"ha":897,"x_min":42,"x_max":876,"o":"m 735 293 q 819 276 781 289 q 876 246 858 263 q 833 -3 844 150 q 471 0 669 0 q 247 -1 372 0 q 42 -4 122 -3 q 53 104 42 63 q 110 119 92 107 q 137 163 129 132 q 144 260 144 194 l 144 682 q 138 776 144 746 q 112 817 131 806 q 51 835 93 829 q 42 943 42 874 q 418 939 171 939 q 793 943 676 939 q 802 813 794 883 q 822 696 810 742 q 682 671 757 671 q 626 794 667 754 q 490 835 586 835 l 422 835 l 422 519 l 424 519 q 512 541 489 519 q 536 618 535 563 q 658 635 579 635 q 653 472 653 546 q 658 307 653 388 q 539 321 579 307 q 510 397 533 378 q 424 415 486 415 l 422 415 l 422 267 q 432 167 422 201 q 465 118 442 132 q 531 104 488 104 l 554 104 q 666 148 625 104 q 735 293 707 192 m 708 1150 q 696 1060 708 1101 q 163 1042 385 1060 q 175 1150 163 1111 l 708 1150 m 396 1232 q 242 1400 311 1333 q 333 1427 279 1418 q 442 1436 388 1436 q 483 1345 457 1396 q 538 1257 510 1294 q 396 1232 469 1232 z "},"Ę":{"ha":897,"x_min":42,"x_max":876,"o":"m 757 -1 q 658 -53 689 -21 q 628 -115 628 -85 q 656 -161 628 -146 q 733 -176 683 -176 q 781 -172 760 -176 q 798 -216 790 -185 q 806 -274 806 -247 q 804 -292 806 -286 q 703 -313 753 -299 q 618 -344 653 -328 q 586 -346 604 -346 q 502 -328 544 -346 q 431 -276 460 -311 q 401 -189 401 -240 q 578 0 401 -62 l 471 0 q 247 -1 372 0 q 42 -4 122 -3 q 53 104 42 63 q 110 119 92 107 q 137 163 129 132 q 144 260 144 194 l 144 682 q 138 776 144 746 q 112 817 131 806 q 51 835 93 829 q 42 943 42 874 q 418 939 171 939 q 793 943 676 939 q 802 813 794 883 q 822 696 810 742 q 682 671 757 671 q 626 794 667 754 q 490 835 586 835 l 422 835 l 422 519 l 424 519 q 512 541 489 519 q 536 618 535 563 q 658 635 579 635 q 653 472 653 546 q 658 307 653 388 q 539 321 579 307 q 510 397 533 378 q 424 415 486 415 l 422 415 l 422 267 q 432 167 422 201 q 465 118 442 132 q 531 104 488 104 l 554 104 q 666 148 625 104 q 735 293 707 192 q 819 276 781 289 q 876 246 858 263 q 833 -3 844 150 l 757 -1 z "},"Ǝ":{"ha":897,"x_min":21,"x_max":856,"o":"m 753 260 q 760 163 753 194 q 787 119 768 132 q 844 104 806 107 q 856 -4 856 63 q 650 -1 775 -3 q 426 0 525 0 q 64 -3 228 0 q 21 246 53 150 q 78 276 39 263 q 163 293 117 289 q 231 148 190 192 q 343 104 272 104 l 367 104 q 433 118 410 104 q 465 167 456 132 q 475 267 475 201 l 475 415 l 474 415 q 388 397 411 415 q 358 321 364 378 q 239 307 318 307 q 244 472 244 388 q 239 635 244 546 q 361 618 318 635 q 385 541 363 563 q 474 519 408 519 l 475 519 l 475 835 l 407 835 q 271 794 311 835 q 215 671 231 754 q 75 696 140 671 q 95 813 88 742 q 104 943 103 883 q 479 939 221 939 q 856 943 726 939 q 846 835 856 874 q 785 817 804 829 q 760 776 767 806 q 753 682 753 746 l 753 260 z "},"Ẽ":{"ha":897,"x_min":42,"x_max":876,"o":"m 735 293 q 819 276 781 289 q 876 246 858 263 q 833 -3 844 150 q 471 0 669 0 q 247 -1 372 0 q 42 -4 122 -3 q 53 104 42 63 q 110 119 92 107 q 137 163 129 132 q 144 260 144 194 l 144 682 q 138 776 144 746 q 112 817 131 806 q 51 835 93 829 q 42 943 42 874 q 418 939 171 939 q 793 943 676 939 q 802 813 794 883 q 822 696 810 742 q 682 671 757 671 q 626 794 667 754 q 490 835 586 835 l 422 835 l 422 519 l 424 519 q 512 541 489 519 q 536 618 535 563 q 658 635 579 635 q 653 472 653 546 q 658 307 653 388 q 539 321 579 307 q 510 397 533 378 q 424 415 486 415 l 422 415 l 422 267 q 432 167 422 201 q 465 118 442 132 q 531 104 488 104 l 554 104 q 666 148 625 104 q 735 293 707 192 m 503 1021 q 442 1031 467 1021 q 386 1060 417 1040 q 347 1082 364 1075 q 307 1089 329 1089 q 199 1024 249 1089 q 161 1072 174 1049 q 147 1129 149 1096 q 240 1208 185 1182 q 349 1233 296 1233 q 407 1224 382 1233 q 468 1197 432 1215 q 513 1176 494 1183 q 550 1169 531 1169 q 635 1225 601 1169 q 725 1178 690 1214 q 631 1062 688 1103 q 503 1021 574 1021 z "},"F":{"ha":857,"x_min":42,"x_max":836,"o":"m 578 569 q 700 586 621 586 q 694 424 694 497 q 700 258 694 339 q 581 272 621 258 q 551 348 575 329 q 465 367 528 367 l 422 367 l 422 274 q 454 147 422 183 q 574 104 486 110 q 586 -4 586 69 q 322 0 507 0 q 42 -4 138 0 q 51 104 42 67 q 110 119 92 107 q 137 163 129 132 q 144 260 144 194 l 144 682 q 138 776 144 747 q 114 817 132 806 q 54 835 96 829 q 42 943 42 885 q 418 939 171 939 q 807 943 690 939 q 816 813 808 883 q 836 696 824 742 q 696 671 771 671 q 640 794 681 754 q 504 835 600 835 l 422 835 l 422 471 l 465 471 q 553 492 531 471 q 578 569 576 514 z "},"G":{"ha":971,"x_min":49,"x_max":936,"o":"m 540 -12 q 277 45 388 -12 q 108 213 167 103 q 49 476 49 322 q 108 733 49 626 q 280 895 168 839 q 546 951 392 951 q 718 931 632 951 q 872 879 804 910 q 857 664 857 792 q 798 648 831 651 q 719 644 765 644 q 669 797 714 750 q 539 843 624 843 q 383 747 433 843 q 332 510 332 651 q 360 297 332 390 q 439 151 388 203 q 558 99 490 99 q 607 104 592 99 q 640 133 629 113 q 651 204 651 154 l 651 251 q 644 315 651 293 q 615 344 636 336 q 553 356 594 353 q 543 463 543 396 q 736 458 599 458 q 936 461 878 458 q 928 356 936 396 q 884 338 893 353 q 875 274 875 322 l 875 240 q 880 160 875 188 q 899 96 885 132 q 737 17 831 47 q 540 -12 643 -12 z "},"Ğ":{"ha":971,"x_min":49,"x_max":936,"o":"m 540 -12 q 277 45 388 -12 q 108 213 167 103 q 49 476 49 322 q 108 733 49 626 q 280 895 168 839 q 546 951 392 951 q 718 931 632 951 q 872 879 804 910 q 857 664 857 792 q 798 648 831 651 q 719 644 765 644 q 669 797 714 750 q 539 843 624 843 q 383 747 433 843 q 332 510 332 651 q 360 297 332 390 q 439 151 388 203 q 558 99 490 99 q 607 104 592 99 q 640 133 629 113 q 651 204 651 154 l 651 251 q 644 315 651 293 q 615 344 636 336 q 553 356 594 353 q 543 463 543 396 q 736 458 599 458 q 936 461 878 458 q 928 356 936 396 q 884 338 893 353 q 875 274 875 322 l 875 240 q 880 160 875 188 q 899 96 885 132 q 737 17 831 47 q 540 -12 643 -12 m 790 1207 q 535 1001 790 1001 q 285 1201 285 1001 q 385 1219 331 1219 q 429 1215 406 1219 q 553 1146 442 1146 q 635 1163 606 1146 q 665 1215 664 1181 q 713 1221 696 1221 q 790 1207 751 1221 z "},"Ǧ":{"ha":971,"x_min":49,"x_max":936,"o":"m 540 -12 q 277 45 388 -12 q 108 213 167 103 q 49 476 49 322 q 108 733 49 626 q 280 895 168 839 q 546 951 392 951 q 718 931 632 951 q 872 879 804 910 q 857 664 857 792 q 798 648 831 651 q 719 644 765 644 q 669 797 714 750 q 539 843 624 843 q 383 747 433 843 q 332 510 332 651 q 360 297 332 390 q 439 151 388 203 q 558 99 490 99 q 607 104 592 99 q 640 133 629 113 q 651 204 651 154 l 651 251 q 644 315 651 293 q 615 344 636 336 q 553 356 594 353 q 543 463 543 396 q 736 458 599 458 q 936 461 878 458 q 928 356 936 396 q 884 338 893 353 q 875 274 875 322 l 875 240 q 880 160 875 188 q 899 96 885 132 q 737 17 831 47 q 540 -12 643 -12 m 449 1007 q 249 1164 375 1081 q 304 1214 274 1194 q 379 1242 335 1233 q 540 1163 432 1208 q 562 1173 551 1168 q 582 1182 572 1178 q 690 1238 651 1213 q 749 1212 724 1233 q 783 1164 774 1190 q 574 1022 639 1078 q 449 1007 526 1007 z "},"Ĝ":{"ha":971,"x_min":49,"x_max":936,"o":"m 540 -12 q 277 45 388 -12 q 108 213 167 103 q 49 476 49 322 q 108 733 49 626 q 280 895 168 839 q 546 951 392 951 q 718 931 632 951 q 872 879 804 910 q 857 664 857 792 q 798 648 831 651 q 719 644 765 644 q 669 797 714 750 q 539 843 624 843 q 383 747 433 843 q 332 510 332 651 q 360 297 332 390 q 439 151 388 203 q 558 99 490 99 q 607 104 592 99 q 640 133 629 113 q 651 204 651 154 l 651 251 q 644 315 651 293 q 615 344 636 336 q 553 356 594 353 q 543 463 543 396 q 736 458 599 458 q 936 461 878 458 q 928 356 936 396 q 884 338 893 353 q 875 274 875 322 l 875 240 q 880 160 875 188 q 899 96 885 132 q 737 17 831 47 q 540 -12 643 -12 m 363 1011 q 304 1037 329 1015 q 269 1085 279 1058 q 479 1226 414 1171 q 604 1242 526 1242 q 804 1085 678 1168 q 749 1035 779 1054 q 674 1007 718 1015 q 513 1086 619 1040 q 491 1076 501 1081 q 471 1067 481 1071 q 363 1011 401 1036 z "},"Ģ":{"ha":971,"x_min":49,"x_max":936,"o":"m 540 -12 q 277 45 388 -12 q 108 213 167 103 q 49 476 49 322 q 108 733 49 626 q 280 895 168 839 q 546 951 392 951 q 718 931 632 951 q 872 879 804 910 q 857 664 857 792 q 798 648 831 651 q 719 644 765 644 q 669 797 714 750 q 539 843 624 843 q 383 747 433 843 q 332 510 332 651 q 360 297 332 390 q 439 151 388 203 q 558 99 490 99 q 607 104 592 99 q 640 133 629 113 q 651 204 651 154 l 651 251 q 644 315 651 293 q 615 344 636 336 q 553 356 594 353 q 543 463 543 396 q 736 458 599 458 q 936 461 878 458 q 928 356 936 396 q 884 338 893 353 q 875 274 875 322 l 875 240 q 880 160 875 188 q 899 96 885 132 q 737 17 831 47 q 540 -12 643 -12 m 600 -51 q 658 -89 640 -62 q 675 -168 675 -115 q 518 -437 675 -333 q 459 -430 488 -439 q 413 -401 431 -421 q 474 -344 454 -374 q 494 -287 494 -314 q 472 -247 494 -261 q 403 -228 450 -233 q 401 -201 401 -219 q 425 -94 401 -149 q 600 -51 539 -92 z "},"Ġ":{"ha":971,"x_min":49,"x_max":936,"o":"m 540 -12 q 277 45 388 -12 q 108 213 167 103 q 49 476 49 322 q 108 733 49 626 q 280 895 168 839 q 546 951 392 951 q 718 931 632 951 q 872 879 804 910 q 857 664 857 792 q 798 648 831 651 q 719 644 765 644 q 669 797 714 750 q 539 843 624 843 q 383 747 433 843 q 332 510 332 651 q 360 297 332 390 q 439 151 388 203 q 558 99 490 99 q 607 104 592 99 q 640 133 629 113 q 651 204 651 154 l 651 251 q 644 315 651 293 q 615 344 636 336 q 553 356 594 353 q 543 463 543 396 q 736 458 599 458 q 936 461 878 458 q 928 356 936 396 q 884 338 893 353 q 875 274 875 322 l 875 240 q 880 160 875 188 q 899 96 885 132 q 737 17 831 47 q 540 -12 643 -12 m 528 992 q 424 1022 463 992 q 386 1104 386 1053 q 428 1196 386 1164 q 538 1228 469 1228 q 649 1197 611 1228 q 688 1107 688 1167 q 644 1024 688 1056 q 528 992 601 992 z "},"Ḡ":{"ha":971,"x_min":49,"x_max":936,"o":"m 540 -12 q 277 45 388 -12 q 108 213 167 103 q 49 476 49 322 q 108 733 49 626 q 280 895 168 839 q 546 951 392 951 q 718 931 632 951 q 872 879 804 910 q 857 664 857 792 q 798 648 831 651 q 719 644 765 644 q 669 797 714 750 q 539 843 624 843 q 383 747 433 843 q 332 510 332 651 q 360 297 332 390 q 439 151 388 203 q 558 99 490 99 q 607 104 592 99 q 640 133 629 113 q 651 204 651 154 l 651 251 q 644 315 651 293 q 615 344 636 336 q 553 356 594 353 q 543 463 543 396 q 736 458 599 458 q 936 461 878 458 q 928 356 936 396 q 884 338 893 353 q 875 274 875 322 l 875 240 q 880 160 875 188 q 899 96 885 132 q 737 17 831 47 q 540 -12 643 -12 m 810 1150 q 797 1060 810 1101 q 264 1042 486 1060 q 276 1150 264 1111 l 810 1150 z "},"Ȝ":{"ha":793,"x_min":39,"x_max":751,"o":"m 419 424 q 664 351 576 426 q 751 146 751 276 q 690 -51 751 36 q 521 -188 628 -139 q 282 -237 414 -237 q 141 -220 206 -237 q 39 -171 76 -203 q 85 -74 43 -112 q 151 -110 113 -97 q 232 -124 189 -124 q 356 -87 303 -124 q 438 10 408 -51 q 467 146 467 72 q 423 282 467 236 q 296 328 379 328 q 186 310 233 328 q 163 397 163 343 q 164 422 163 414 q 358 526 290 463 q 426 704 426 589 q 313 847 426 847 q 250 828 272 847 q 217 771 228 810 q 194 660 206 732 q 114 667 156 660 q 46 689 72 674 q 54 815 54 733 q 51 900 54 844 q 333 951 150 951 q 711 728 711 951 q 635 551 711 625 q 419 424 558 478 z "},"H":{"ha":1114,"x_min":42,"x_max":1072,"o":"m 969 260 q 977 163 969 194 q 1003 119 985 132 q 1061 104 1022 107 q 1072 -4 1072 64 q 851 0 1010 0 q 589 -4 688 0 q 593 51 589 19 q 603 104 597 83 q 660 119 642 107 q 685 163 678 132 q 692 260 692 193 l 692 431 q 422 418 507 431 l 422 260 q 430 163 422 194 q 456 119 438 132 q 514 104 475 107 q 525 -4 525 64 q 304 0 463 0 q 42 -4 140 0 q 46 51 42 19 q 56 104 50 83 q 113 119 94 107 q 138 163 131 132 q 144 260 144 193 l 144 682 q 138 776 144 747 q 114 817 132 806 q 54 835 96 829 q 42 943 42 885 q 290 939 111 939 q 525 943 442 939 q 523 883 525 907 q 513 835 521 858 q 454 819 472 831 q 429 777 436 807 q 422 682 422 747 l 422 540 l 692 540 l 692 682 q 685 776 692 747 q 661 817 679 806 q 601 835 643 829 q 589 943 589 885 q 838 939 658 939 q 1072 943 989 939 q 1070 883 1072 907 q 1060 835 1068 858 q 1001 819 1019 831 q 976 777 983 807 q 969 682 969 747 l 969 260 z "},"Ħ":{"ha":1114,"x_min":42,"x_max":1072,"o":"m 969 260 q 977 163 969 194 q 1003 119 985 132 q 1061 104 1022 107 q 1072 -4 1072 64 q 851 0 1010 0 q 589 -4 688 0 q 593 51 589 19 q 603 104 597 83 q 660 119 642 107 q 685 163 678 132 q 692 260 692 193 l 692 431 q 422 418 507 431 l 422 260 q 430 163 422 194 q 456 119 438 132 q 514 104 475 107 q 525 -4 525 64 q 304 0 463 0 q 42 -4 140 0 q 46 51 42 19 q 56 104 50 83 q 113 119 94 107 q 138 163 131 132 q 144 260 144 193 l 144 611 l 46 610 q 67 722 46 672 l 144 722 q 134 789 142 767 q 108 820 126 811 q 54 835 90 829 q 42 943 42 885 q 290 939 111 939 q 525 943 442 939 q 523 883 525 907 q 513 835 521 858 q 460 822 478 831 q 433 790 442 813 q 422 722 425 767 l 692 722 q 681 789 689 767 q 656 820 674 811 q 601 835 638 829 q 589 943 589 885 q 838 939 658 939 q 1072 943 989 939 q 1070 883 1072 907 q 1060 835 1068 858 q 1007 822 1025 831 q 981 790 989 813 q 969 722 972 767 l 1068 722 q 1047 617 1068 669 l 969 617 l 969 260 m 692 540 l 692 617 l 422 615 l 422 540 l 692 540 z "},"Ḫ":{"ha":1114,"x_min":42,"x_max":1072,"o":"m 969 260 q 977 163 969 194 q 1003 119 985 132 q 1061 104 1022 107 q 1072 -4 1072 64 q 851 0 1010 0 q 589 -4 688 0 q 593 51 589 19 q 603 104 597 83 q 660 119 642 107 q 685 163 678 132 q 692 260 692 193 l 692 431 q 422 418 507 431 l 422 260 q 430 163 422 194 q 456 119 438 132 q 514 104 475 107 q 525 -4 525 64 q 304 0 463 0 q 42 -4 140 0 q 46 51 42 19 q 56 104 50 83 q 113 119 94 107 q 138 163 131 132 q 144 260 144 193 l 144 682 q 138 776 144 747 q 114 817 132 806 q 54 835 96 829 q 42 943 42 885 q 290 939 111 939 q 525 943 442 939 q 523 883 525 907 q 513 835 521 858 q 454 819 472 831 q 429 777 436 807 q 422 682 422 747 l 422 540 l 692 540 l 692 682 q 685 776 692 747 q 661 817 679 806 q 601 835 643 829 q 589 943 589 885 q 838 939 658 939 q 1072 943 989 939 q 1070 883 1072 907 q 1060 835 1068 858 q 1001 819 1019 831 q 976 777 983 807 q 969 682 969 747 l 969 260 m 810 -85 q 554 -290 810 -290 q 304 -90 304 -290 q 404 -72 349 -72 q 449 -76 425 -72 q 572 -146 461 -146 q 654 -128 625 -146 q 685 -76 683 -111 q 732 -71 715 -71 q 810 -85 771 -71 z "},"Ĥ":{"ha":1114,"x_min":42,"x_max":1072,"o":"m 969 260 q 977 163 969 194 q 1003 119 985 132 q 1061 104 1022 107 q 1072 -4 1072 64 q 851 0 1010 0 q 589 -4 688 0 q 593 51 589 19 q 603 104 597 83 q 660 119 642 107 q 685 163 678 132 q 692 260 692 193 l 692 431 q 422 418 507 431 l 422 260 q 430 163 422 194 q 456 119 438 132 q 514 104 475 107 q 525 -4 525 64 q 304 0 463 0 q 42 -4 140 0 q 46 51 42 19 q 56 104 50 83 q 113 119 94 107 q 138 163 131 132 q 144 260 144 193 l 144 682 q 138 776 144 747 q 114 817 132 806 q 54 835 96 829 q 42 943 42 885 q 290 939 111 939 q 525 943 442 939 q 523 883 525 907 q 513 835 521 858 q 454 819 472 831 q 429 777 436 807 q 422 682 422 747 l 422 540 l 692 540 l 692 682 q 685 776 692 747 q 661 817 679 806 q 601 835 643 829 q 589 943 589 885 q 838 939 658 939 q 1072 943 989 939 q 1070 883 1072 907 q 1060 835 1068 858 q 1001 819 1019 831 q 976 777 983 807 q 969 682 969 747 l 969 260 m 382 1011 q 324 1037 349 1015 q 289 1085 299 1058 q 499 1226 433 1171 q 624 1242 546 1242 q 824 1085 697 1168 q 768 1035 799 1054 q 693 1007 738 1015 q 532 1086 639 1040 q 510 1076 521 1081 q 490 1067 500 1071 q 382 1011 421 1036 z "},"Ḥ":{"ha":1114,"x_min":42,"x_max":1072,"o":"m 969 260 q 977 163 969 194 q 1003 119 985 132 q 1061 104 1022 107 q 1072 -4 1072 64 q 851 0 1010 0 q 589 -4 688 0 q 593 51 589 19 q 603 104 597 83 q 660 119 642 107 q 685 163 678 132 q 692 260 692 193 l 692 431 q 422 418 507 431 l 422 260 q 430 163 422 194 q 456 119 438 132 q 514 104 475 107 q 525 -4 525 64 q 304 0 463 0 q 42 -4 140 0 q 46 51 42 19 q 56 104 50 83 q 113 119 94 107 q 138 163 131 132 q 144 260 144 193 l 144 682 q 138 776 144 747 q 114 817 132 806 q 54 835 96 829 q 42 943 42 885 q 290 939 111 939 q 525 943 442 939 q 523 883 525 907 q 513 835 521 858 q 454 819 472 831 q 429 777 436 807 q 422 682 422 747 l 422 540 l 692 540 l 692 682 q 685 776 692 747 q 661 817 679 806 q 601 835 643 829 q 589 943 589 885 q 838 939 658 939 q 1072 943 989 939 q 1070 883 1072 907 q 1060 835 1068 858 q 1001 819 1019 831 q 976 777 983 807 q 969 682 969 747 l 969 260 m 547 -328 q 444 -297 482 -328 q 406 -215 406 -267 q 447 -124 406 -156 q 557 -92 489 -92 q 669 -122 631 -92 q 707 -212 707 -153 q 664 -296 707 -264 q 547 -328 621 -328 z "},"I":{"ha":567,"x_min":42,"x_max":525,"o":"m 144 682 q 138 776 144 747 q 114 817 132 806 q 54 835 96 829 q 42 943 42 885 q 290 939 111 939 q 525 943 442 939 q 523 883 525 907 q 513 835 521 858 q 454 819 472 831 q 429 777 436 807 q 422 682 422 747 l 422 260 q 430 163 422 194 q 456 119 438 132 q 514 104 475 107 q 525 -4 525 64 q 304 0 463 0 q 42 -4 140 0 q 46 51 42 19 q 56 104 50 83 q 113 119 94 107 q 138 163 131 132 q 144 260 144 193 l 144 682 z "},"Ĳ":{"ha":1071,"x_min":42,"x_max":1029,"o":"m 144 682 q 138 776 144 747 q 114 817 132 806 q 54 835 96 829 q 42 943 42 885 q 290 939 111 939 q 525 943 442 939 q 523 883 525 907 q 513 835 521 858 q 454 819 472 831 q 429 777 436 807 q 422 682 422 747 l 422 260 q 430 163 422 194 q 456 119 438 132 q 514 104 475 107 q 525 -4 525 64 q 304 0 463 0 q 42 -4 140 0 q 46 51 42 19 q 56 104 50 83 q 113 119 94 107 q 138 163 131 132 q 144 260 144 193 l 144 682 m 926 188 q 898 -48 926 47 q 789 -217 869 -143 q 556 -346 708 -290 q 504 -243 511 -312 q 589 -168 558 -207 q 634 -69 619 -129 q 649 86 649 -10 l 649 678 q 642 776 649 746 q 617 819 635 807 q 558 835 599 831 q 546 943 546 876 q 788 939 604 939 q 1029 943 967 939 q 1017 835 1029 874 q 956 817 975 832 q 932 772 938 801 q 926 678 926 742 l 926 188 z "},"Í":{"ha":567,"x_min":42,"x_max":525,"o":"m 144 682 q 138 776 144 747 q 114 817 132 806 q 54 835 96 829 q 42 943 42 885 q 290 939 111 939 q 525 943 442 939 q 523 883 525 907 q 513 835 521 858 q 454 819 472 831 q 429 777 436 807 q 422 682 422 747 l 422 260 q 430 163 422 194 q 456 119 438 132 q 514 104 475 107 q 525 -4 525 64 q 304 0 463 0 q 42 -4 140 0 q 46 51 42 19 q 56 104 50 83 q 113 119 94 107 q 138 163 131 132 q 144 260 144 193 l 144 682 m 324 1021 q 182 1046 250 1021 q 267 1211 231 1122 q 397 1225 326 1225 q 492 1217 453 1225 q 324 1021 400 1121 z "},"Ĭ":{"ha":567,"x_min":42,"x_max":525,"o":"m 281 986 q 46 1199 46 986 q 128 1214 83 1214 q 164 1211 139 1214 q 297 1129 181 1129 q 385 1150 353 1129 q 419 1211 417 1171 q 460 1215 440 1215 q 519 1204 494 1215 q 281 986 519 986 m 144 682 q 138 776 144 747 q 114 817 132 806 q 54 835 96 829 q 42 943 42 885 q 290 939 111 939 q 525 943 442 939 q 523 883 525 907 q 513 835 521 858 q 454 819 472 831 q 429 777 436 807 q 422 682 422 747 l 422 260 q 430 163 422 194 q 456 119 438 132 q 514 104 475 107 q 525 -4 525 64 q 304 0 463 0 q 42 -4 140 0 q 46 51 42 19 q 56 104 50 83 q 113 119 94 107 q 138 163 131 132 q 144 260 144 193 l 144 682 z "},"Ǐ":{"ha":567,"x_min":42,"x_max":525,"o":"m 217 985 q 43 1158 163 1047 q 108 1205 68 1186 q 188 1228 149 1224 q 247 1190 214 1208 q 317 1151 281 1171 q 419 1226 378 1183 q 524 1154 490 1210 q 433 1079 494 1132 q 343 1004 372 1026 q 280 990 317 996 q 217 985 243 985 m 144 682 q 138 776 144 747 q 114 817 132 806 q 54 835 96 829 q 42 943 42 885 q 290 939 111 939 q 525 943 442 939 q 523 883 525 907 q 513 835 521 858 q 454 819 472 831 q 429 777 436 807 q 422 682 422 747 l 422 260 q 430 163 422 194 q 456 119 438 132 q 514 104 475 107 q 525 -4 525 64 q 304 0 463 0 q 42 -4 140 0 q 46 51 42 19 q 56 104 50 83 q 113 119 94 107 q 138 163 131 132 q 144 260 144 193 l 144 682 z "},"Î":{"ha":567,"x_min":42,"x_max":525,"o":"m 147 983 q 85 1010 111 993 q 43 1056 60 1028 q 128 1126 75 1081 q 224 1207 203 1192 q 288 1221 251 1215 q 350 1226 325 1226 q 524 1053 415 1151 q 458 1006 499 1025 q 379 982 418 986 q 275 1044 349 1006 l 250 1058 q 147 983 189 1026 m 144 682 q 138 776 144 747 q 114 817 132 806 q 54 835 96 829 q 42 943 42 885 q 290 939 111 939 q 525 943 442 939 q 523 883 525 907 q 513 835 521 858 q 454 819 472 831 q 429 777 436 807 q 422 682 422 747 l 422 260 q 430 163 422 194 q 456 119 438 132 q 514 104 475 107 q 525 -4 525 64 q 304 0 463 0 q 42 -4 140 0 q 46 51 42 19 q 56 104 50 83 q 113 119 94 107 q 138 163 131 132 q 144 260 144 193 l 144 682 z "},"Ȉ":{"ha":567,"x_min":-25,"x_max":528,"o":"m 144 682 q 138 776 144 747 q 114 817 132 806 q 54 835 96 829 q 42 943 42 885 q 290 939 111 939 q 525 943 442 939 q 523 883 525 907 q 513 835 521 858 q 454 819 472 831 q 429 777 436 807 q 422 682 422 747 l 422 260 q 430 163 422 194 q 456 119 438 132 q 514 104 475 107 q 525 -4 525 64 q 304 0 463 0 q 42 -4 140 0 q 46 51 42 19 q 56 104 50 83 q 113 119 94 107 q 138 163 131 132 q 144 260 144 193 l 144 682 m 122 993 q -25 1161 33 1101 q 64 1188 11 1179 q 168 1197 117 1197 q 210 1106 183 1157 q 264 1018 236 1056 q 122 993 196 993 m 386 993 q 257 1167 304 1111 q 338 1190 290 1182 q 432 1197 385 1197 q 474 1106 447 1157 q 528 1018 500 1056 q 386 993 460 993 z "},"Ï":{"ha":567,"x_min":-1,"x_max":567,"o":"m 131 986 q 35 1017 72 986 q -1 1092 -1 1047 q 31 1176 -1 1142 q 126 1210 63 1210 q 226 1178 193 1210 q 258 1093 258 1146 q 222 1017 258 1049 q 131 986 185 986 m 442 986 q 340 1018 375 986 q 304 1104 304 1050 q 340 1182 304 1154 q 435 1210 375 1210 q 529 1179 492 1210 q 567 1104 567 1149 q 536 1019 567 1053 q 442 986 506 986 m 144 682 q 138 776 144 747 q 114 817 132 806 q 54 835 96 829 q 42 943 42 885 q 290 939 111 939 q 525 943 442 939 q 523 883 525 907 q 513 835 521 858 q 454 819 472 831 q 429 777 436 807 q 422 682 422 747 l 422 260 q 430 163 422 194 q 456 119 438 132 q 514 104 475 107 q 525 -4 525 64 q 304 0 463 0 q 42 -4 140 0 q 46 51 42 19 q 56 104 50 83 q 113 119 94 107 q 138 163 131 132 q 144 260 144 193 l 144 682 z "},"Ḯ":{"ha":567,"x_min":-1,"x_max":567,"o":"m 324 1250 q 182 1275 250 1250 q 267 1440 231 1351 q 397 1454 326 1454 q 492 1446 453 1454 q 324 1250 400 1350 m 131 986 q 35 1017 72 986 q -1 1092 -1 1047 q 31 1176 -1 1142 q 126 1210 63 1210 q 226 1178 193 1210 q 258 1093 258 1146 q 222 1017 258 1049 q 131 986 185 986 m 442 986 q 340 1018 375 986 q 304 1104 304 1050 q 340 1182 304 1154 q 435 1210 375 1210 q 529 1179 492 1210 q 567 1104 567 1149 q 536 1019 567 1053 q 442 986 506 986 m 144 682 q 138 776 144 747 q 114 817 132 806 q 54 835 96 829 q 42 943 42 885 q 290 939 111 939 q 525 943 442 939 q 523 883 525 907 q 513 835 521 858 q 454 819 472 831 q 429 777 436 807 q 422 682 422 747 l 422 260 q 430 163 422 194 q 456 119 438 132 q 514 104 475 107 q 525 -4 525 64 q 304 0 463 0 q 42 -4 140 0 q 46 51 42 19 q 56 104 50 83 q 113 119 94 107 q 138 163 131 132 q 144 260 144 193 l 144 682 z "},"İ":{"ha":567,"x_min":42,"x_max":525,"o":"m 144 682 q 138 776 144 747 q 114 817 132 806 q 54 835 96 829 q 42 943 42 885 q 290 939 111 939 q 525 943 442 939 q 523 883 525 907 q 513 835 521 858 q 454 819 472 831 q 429 777 436 807 q 422 682 422 747 l 422 260 q 430 163 422 194 q 456 119 438 132 q 514 104 475 107 q 525 -4 525 64 q 304 0 463 0 q 42 -4 140 0 q 46 51 42 19 q 56 104 50 83 q 113 119 94 107 q 138 163 131 132 q 144 260 144 193 l 144 682 m 274 992 q 170 1022 208 992 q 132 1104 132 1053 q 174 1196 132 1164 q 283 1228 215 1228 q 395 1197 357 1228 q 433 1107 433 1167 q 390 1024 433 1056 q 274 992 347 992 z "},"Ị":{"ha":567,"x_min":42,"x_max":525,"o":"m 144 682 q 138 776 144 747 q 114 817 132 806 q 54 835 96 829 q 42 943 42 885 q 290 939 111 939 q 525 943 442 939 q 523 883 525 907 q 513 835 521 858 q 454 819 472 831 q 429 777 436 807 q 422 682 422 747 l 422 260 q 430 163 422 194 q 456 119 438 132 q 514 104 475 107 q 525 -4 525 64 q 304 0 463 0 q 42 -4 140 0 q 46 51 42 19 q 56 104 50 83 q 113 119 94 107 q 138 163 131 132 q 144 260 144 193 l 144 682 m 274 -328 q 170 -297 208 -328 q 132 -215 132 -267 q 174 -124 132 -156 q 283 -92 215 -92 q 395 -122 357 -92 q 433 -212 433 -153 q 390 -296 433 -264 q 274 -328 347 -328 z "},"Ì":{"ha":567,"x_min":42,"x_max":525,"o":"m 144 682 q 138 776 144 747 q 114 817 132 806 q 54 835 96 829 q 42 943 42 885 q 290 939 111 939 q 525 943 442 939 q 523 883 525 907 q 513 835 521 858 q 454 819 472 831 q 429 777 436 807 q 422 682 422 747 l 422 260 q 430 163 422 194 q 456 119 438 132 q 514 104 475 107 q 525 -4 525 64 q 304 0 463 0 q 42 -4 140 0 q 46 51 42 19 q 56 104 50 83 q 113 119 94 107 q 138 163 131 132 q 144 260 144 193 l 144 682 m 243 1021 q 89 1189 158 1122 q 181 1216 126 1207 q 289 1225 235 1225 q 331 1134 304 1185 q 385 1046 357 1083 q 243 1021 317 1021 z "},"Ỉ":{"ha":567,"x_min":42,"x_max":525,"o":"m 144 682 q 138 776 144 747 q 114 817 132 806 q 54 835 96 829 q 42 943 42 885 q 290 939 111 939 q 525 943 442 939 q 523 883 525 907 q 513 835 521 858 q 454 819 472 831 q 429 777 436 807 q 422 682 422 747 l 422 260 q 430 163 422 194 q 456 119 438 132 q 514 104 475 107 q 525 -4 525 64 q 304 0 463 0 q 42 -4 140 0 q 46 51 42 19 q 56 104 50 83 q 113 119 94 107 q 138 163 131 132 q 144 260 144 193 l 144 682 m 231 997 q 221 1031 221 1013 q 234 1065 221 1051 q 274 1093 247 1078 q 301 1113 292 1104 q 311 1131 311 1121 q 274 1150 311 1150 q 233 1137 249 1150 q 206 1086 217 1124 q 86 1107 136 1086 q 90 1156 90 1132 q 86 1194 90 1176 q 297 1233 164 1233 q 437 1212 393 1233 q 481 1147 481 1190 q 460 1096 481 1115 q 406 1060 440 1076 q 375 1042 385 1050 q 365 1025 365 1035 q 369 1004 365 1017 q 281 993 329 993 q 231 997 253 993 z "},"Ȋ":{"ha":567,"x_min":42,"x_max":525,"o":"m 144 682 q 138 776 144 747 q 114 817 132 806 q 54 835 96 829 q 42 943 42 885 q 290 939 111 939 q 525 943 442 939 q 523 883 525 907 q 513 835 521 858 q 454 819 472 831 q 429 777 436 807 q 422 682 422 747 l 422 260 q 430 163 422 194 q 456 119 438 132 q 514 104 475 107 q 525 -4 525 64 q 304 0 463 0 q 42 -4 140 0 q 46 51 42 19 q 56 104 50 83 q 113 119 94 107 q 138 163 131 132 q 144 260 144 193 l 144 682 m 285 1215 q 519 1003 519 1215 q 438 988 482 988 q 401 990 426 988 q 268 1072 385 1072 q 181 1051 213 1072 q 146 990 149 1031 q 106 986 125 986 q 46 997 71 986 q 285 1215 46 1215 z "},"Ī":{"ha":567,"x_min":42,"x_max":525,"o":"m 56 1035 q 71 1150 56 1114 l 510 1150 q 496 1053 510 1103 q 56 1035 290 1053 m 144 682 q 138 776 144 747 q 114 817 132 806 q 54 835 96 829 q 42 943 42 885 q 290 939 111 939 q 525 943 442 939 q 523 883 525 907 q 513 835 521 858 q 454 819 472 831 q 429 777 436 807 q 422 682 422 747 l 422 260 q 430 163 422 194 q 456 119 438 132 q 514 104 475 107 q 525 -4 525 64 q 304 0 463 0 q 42 -4 140 0 q 46 51 42 19 q 56 104 50 83 q 113 119 94 107 q 138 163 131 132 q 144 260 144 193 l 144 682 z "},"Į":{"ha":567,"x_min":42,"x_max":525,"o":"m 408 0 q 322 -45 356 -15 q 289 -112 289 -75 q 394 -176 289 -176 q 442 -172 421 -176 q 459 -216 451 -185 q 467 -274 467 -247 q 465 -292 467 -286 q 364 -313 414 -299 q 279 -344 314 -328 q 247 -346 265 -346 q 163 -329 206 -346 q 92 -276 121 -312 q 63 -186 63 -240 q 103 -78 63 -125 q 228 0 144 -31 l 42 -4 q 46 51 42 19 q 56 104 50 83 q 113 119 94 107 q 138 163 131 132 q 144 260 144 193 l 144 682 q 138 776 144 747 q 114 817 132 806 q 54 835 96 829 q 42 943 42 885 q 290 939 111 939 q 525 943 442 939 q 523 883 525 907 q 513 835 521 858 q 454 819 472 831 q 429 777 436 807 q 422 682 422 747 l 422 260 q 430 163 422 194 q 456 119 438 132 q 514 104 475 107 q 525 -4 525 64 l 408 0 z "},"Ĩ":{"ha":567,"x_min":28,"x_max":538,"o":"m 353 1008 q 298 1016 319 1008 q 251 1039 276 1024 q 218 1056 233 1050 q 182 1063 203 1063 q 78 1011 129 1063 q 44 1050 56 1031 q 28 1094 32 1069 q 115 1194 71 1165 q 211 1224 160 1224 q 262 1216 242 1224 q 306 1193 282 1208 q 336 1175 322 1181 q 368 1169 350 1169 q 418 1183 394 1169 q 458 1219 442 1196 q 538 1143 517 1193 q 459 1042 503 1075 q 353 1008 415 1008 m 144 682 q 138 776 144 747 q 114 817 132 806 q 54 835 96 829 q 42 943 42 885 q 290 939 111 939 q 525 943 442 939 q 523 883 525 907 q 513 835 521 858 q 454 819 472 831 q 429 777 436 807 q 422 682 422 747 l 422 260 q 430 163 422 194 q 456 119 438 132 q 514 104 475 107 q 525 -4 525 64 q 304 0 463 0 q 42 -4 140 0 q 46 51 42 19 q 56 104 50 83 q 113 119 94 107 q 138 163 131 132 q 144 260 144 193 l 144 682 z "},"J":{"ha":546,"x_min":-21,"x_max":504,"o":"m 401 188 q 373 -48 401 47 q 264 -217 344 -143 q 31 -346 183 -290 q -21 -243 -14 -312 q 64 -168 33 -207 q 109 -69 94 -129 q 124 86 124 -10 l 124 678 q 117 776 124 746 q 92 819 110 807 q 33 835 74 831 q 21 943 21 876 q 263 939 79 939 q 504 943 442 939 q 492 835 504 874 q 431 817 450 832 q 407 772 413 801 q 401 678 401 742 l 401 188 z "},"Ĵ":{"ha":546,"x_min":-21,"x_max":504,"o":"m 126 983 q 65 1010 90 993 q 22 1056 39 1028 q 107 1126 54 1081 q 203 1207 182 1192 q 267 1221 231 1215 q 329 1226 304 1226 q 503 1053 394 1151 q 438 1006 478 1025 q 358 982 397 986 q 254 1044 328 1006 l 229 1058 q 126 983 168 1026 m 401 188 q 373 -48 401 47 q 264 -217 344 -143 q 31 -346 183 -290 q -21 -243 -14 -312 q 64 -168 33 -207 q 109 -69 94 -129 q 124 86 124 -10 l 124 678 q 117 776 124 746 q 92 819 110 807 q 33 835 74 831 q 21 943 21 876 q 263 939 79 939 q 504 943 442 939 q 492 835 504 874 q 431 817 450 832 q 407 772 413 801 q 401 678 401 742 l 401 188 z "},"K":{"ha":1065,"x_min":42,"x_max":1051,"o":"m 869 244 q 956 142 914 172 q 1051 104 997 111 q 1035 0 1051 33 q 842 -3 956 0 q 683 -12 729 -6 q 560 220 621 117 q 422 415 499 324 l 422 260 q 430 163 422 194 q 456 119 438 132 q 514 104 475 107 q 525 -4 525 64 q 304 0 463 0 q 42 -4 140 0 q 46 51 42 19 q 56 104 50 83 q 113 119 94 107 q 138 163 131 132 q 144 260 144 193 l 144 682 q 138 776 144 747 q 114 817 132 806 q 54 835 96 829 q 42 943 42 885 q 290 939 111 939 q 525 943 442 939 q 523 883 525 907 q 513 835 521 858 q 454 819 472 831 q 429 777 436 807 q 422 682 422 747 l 422 521 l 610 707 q 675 807 675 772 q 639 835 675 832 q 626 943 626 874 q 783 939 679 939 q 996 943 946 939 q 992 885 996 917 q 981 835 988 853 q 881 806 929 832 q 785 731 833 781 l 636 576 q 869 244 760 424 z "},"Ķ":{"ha":1065,"x_min":42,"x_max":1051,"o":"m 869 244 q 956 142 914 172 q 1051 104 997 111 q 1035 0 1051 33 q 842 -3 956 0 q 683 -12 729 -6 q 560 220 621 117 q 422 415 499 324 l 422 260 q 430 163 422 194 q 456 119 438 132 q 514 104 475 107 q 525 -4 525 64 q 304 0 463 0 q 42 -4 140 0 q 46 51 42 19 q 56 104 50 83 q 113 119 94 107 q 138 163 131 132 q 144 260 144 193 l 144 682 q 138 776 144 747 q 114 817 132 806 q 54 835 96 829 q 42 943 42 885 q 290 939 111 939 q 525 943 442 939 q 523 883 525 907 q 513 835 521 858 q 454 819 472 831 q 429 777 436 807 q 422 682 422 747 l 422 521 l 610 707 q 675 807 675 772 q 639 835 675 832 q 626 943 626 874 q 783 939 679 939 q 996 943 946 939 q 992 885 996 917 q 981 835 988 853 q 881 806 929 832 q 785 731 833 781 l 636 576 q 869 244 760 424 m 592 -51 q 649 -89 632 -62 q 667 -168 667 -115 q 510 -437 667 -333 q 451 -430 479 -439 q 404 -401 422 -421 q 466 -344 446 -374 q 486 -287 486 -314 q 464 -247 486 -261 q 394 -228 442 -233 q 393 -201 393 -219 q 417 -94 393 -149 q 592 -51 531 -92 z "},"L":{"ha":890,"x_min":42,"x_max":876,"o":"m 554 104 q 666 148 625 104 q 735 293 707 192 q 819 276 781 289 q 876 246 858 263 q 833 -3 844 150 q 471 0 669 0 q 247 -1 372 0 q 42 -4 122 -3 q 53 104 42 63 q 110 119 92 107 q 137 163 129 132 q 144 260 144 194 l 144 682 q 138 775 144 746 q 112 817 131 804 q 51 835 93 829 q 42 943 42 874 q 283 939 174 939 q 525 943 442 939 q 523 879 525 904 q 513 835 521 854 q 454 819 472 831 q 429 777 436 807 q 422 682 422 747 l 422 267 q 432 167 422 201 q 465 118 442 132 q 531 104 488 104 l 554 104 z "},"Ǉ":{"ha":1436,"x_min":42,"x_max":1394,"o":"m 554 104 q 666 148 625 104 q 735 293 707 192 q 819 276 781 289 q 876 246 858 263 q 833 -3 844 150 q 471 0 669 0 q 247 -1 372 0 q 42 -4 122 -3 q 53 104 42 63 q 110 119 92 107 q 137 163 129 132 q 144 260 144 194 l 144 682 q 138 775 144 746 q 112 817 131 804 q 51 835 93 829 q 42 943 42 874 q 283 939 174 939 q 525 943 442 939 q 523 879 525 904 q 513 835 521 854 q 454 819 472 831 q 429 777 436 807 q 422 682 422 747 l 422 267 q 432 167 422 201 q 465 118 442 132 q 531 104 488 104 l 554 104 m 1292 188 q 1263 -48 1292 47 q 1154 -217 1235 -143 q 921 -346 1074 -290 q 869 -243 876 -312 q 954 -168 924 -207 q 999 -69 985 -129 q 1014 86 1014 -10 l 1014 678 q 1007 776 1014 746 q 982 819 1000 807 q 924 835 964 831 q 911 943 911 876 q 1153 939 969 939 q 1394 943 1332 939 q 1382 835 1394 874 q 1322 817 1340 832 q 1297 772 1303 801 q 1292 678 1292 742 l 1292 188 z "},"Ĺ":{"ha":890,"x_min":42,"x_max":876,"o":"m 554 104 q 666 148 625 104 q 735 293 707 192 q 819 276 781 289 q 876 246 858 263 q 833 -3 844 150 q 471 0 669 0 q 247 -1 372 0 q 42 -4 122 -3 q 53 104 42 63 q 110 119 92 107 q 137 163 129 132 q 144 260 144 194 l 144 682 q 138 775 144 746 q 112 817 131 804 q 51 835 93 829 q 42 943 42 874 q 283 939 174 939 q 525 943 442 939 q 523 879 525 904 q 513 835 521 854 q 454 819 472 831 q 429 777 436 807 q 422 682 422 747 l 422 267 q 432 167 422 201 q 465 118 442 132 q 531 104 488 104 l 554 104 m 324 1021 q 182 1046 250 1021 q 267 1211 231 1122 q 397 1225 326 1225 q 492 1217 453 1225 q 324 1021 400 1121 z "},"Ľ":{"ha":890,"x_min":42,"x_max":876,"o":"m 554 104 q 666 148 625 104 q 735 293 707 192 q 819 276 781 289 q 876 246 858 263 q 833 -3 844 150 q 471 0 669 0 q 247 -1 372 0 q 42 -4 122 -3 q 53 104 42 63 q 110 119 92 107 q 137 163 129 132 q 144 260 144 194 l 144 682 q 138 775 144 746 q 112 817 131 804 q 51 835 93 829 q 42 943 42 874 q 283 939 174 939 q 525 943 442 939 q 523 879 525 904 q 513 835 521 854 q 454 819 472 831 q 429 777 436 807 q 422 682 422 747 l 422 267 q 432 167 422 201 q 465 118 442 132 q 531 104 488 104 l 554 104 m 871 875 q 833 713 871 794 q 726 571 794 632 q 621 599 664 571 q 681 676 664 642 q 697 747 697 710 q 674 791 697 776 q 599 811 650 806 q 603 894 599 861 q 621 971 607 926 q 796 1015 736 975 q 854 974 838 1004 q 871 875 871 944 z "},"Ļ":{"ha":890,"x_min":42,"x_max":876,"o":"m 554 104 q 666 148 625 104 q 735 293 707 192 q 819 276 781 289 q 876 246 858 263 q 833 -3 844 150 q 471 0 669 0 q 247 -1 372 0 q 42 -4 122 -3 q 53 104 42 63 q 110 119 92 107 q 137 163 129 132 q 144 260 144 194 l 144 682 q 138 775 144 746 q 112 817 131 804 q 51 835 93 829 q 42 943 42 874 q 283 939 174 939 q 525 943 442 939 q 523 879 525 904 q 513 835 521 854 q 454 819 472 831 q 429 777 436 807 q 422 682 422 747 l 422 267 q 432 167 422 201 q 465 118 442 132 q 531 104 488 104 l 554 104 m 504 -51 q 562 -89 544 -62 q 579 -168 579 -115 q 422 -437 579 -333 q 363 -430 392 -439 q 317 -401 335 -421 q 378 -344 358 -374 q 399 -287 399 -314 q 376 -247 399 -261 q 307 -228 354 -233 q 306 -201 306 -219 q 329 -94 306 -149 q 504 -51 443 -92 z "},"Ŀ":{"ha":890,"x_min":42,"x_max":876,"o":"m 554 104 q 666 148 625 104 q 735 293 707 192 q 819 276 781 289 q 876 246 858 263 q 833 -3 844 150 q 471 0 669 0 q 247 -1 372 0 q 42 -4 122 -3 q 53 104 42 63 q 110 119 92 107 q 137 163 129 132 q 144 260 144 194 l 144 682 q 138 775 144 746 q 112 817 131 804 q 51 835 93 829 q 42 943 42 874 q 283 939 174 939 q 525 943 442 939 q 523 879 525 904 q 513 835 521 854 q 454 819 472 831 q 429 777 436 807 q 422 682 422 747 l 422 267 q 432 167 422 201 q 465 118 442 132 q 531 104 488 104 l 554 104 m 729 407 q 656 433 683 407 q 629 504 629 460 q 659 574 629 549 q 735 600 689 600 q 803 573 776 600 q 831 508 831 546 q 803 436 831 465 q 729 407 776 407 z "},"Ḷ":{"ha":890,"x_min":42,"x_max":876,"o":"m 554 104 q 666 148 625 104 q 735 293 707 192 q 819 276 781 289 q 876 246 858 263 q 833 -3 844 150 q 471 0 669 0 q 247 -1 372 0 q 42 -4 122 -3 q 53 104 42 63 q 110 119 92 107 q 137 163 129 132 q 144 260 144 194 l 144 682 q 138 775 144 746 q 112 817 131 804 q 51 835 93 829 q 42 943 42 874 q 283 939 174 939 q 525 943 442 939 q 523 879 525 904 q 513 835 521 854 q 454 819 472 831 q 429 777 436 807 q 422 682 422 747 l 422 267 q 432 167 422 201 q 465 118 442 132 q 531 104 488 104 l 554 104 m 436 -328 q 333 -297 371 -328 q 294 -215 294 -267 q 336 -124 294 -156 q 446 -92 378 -92 q 558 -122 519 -92 q 596 -212 596 -153 q 553 -296 596 -264 q 436 -328 510 -328 z "},"ǈ":{"ha":1356,"x_min":42,"x_max":1300,"o":"m 1140 715 q 1037 746 1075 715 q 999 828 999 776 q 1040 919 999 888 q 1150 951 1082 951 q 1262 921 1224 951 q 1300 831 1300 890 q 1257 747 1300 779 q 1140 715 1214 715 m 554 104 q 666 148 625 104 q 735 293 707 192 q 819 276 781 289 q 876 246 858 263 q 833 -3 844 150 q 471 0 669 0 q 247 -1 372 0 q 42 -4 122 -3 q 53 104 42 63 q 110 119 92 107 q 137 163 129 132 q 144 260 144 194 l 144 682 q 138 775 144 746 q 112 817 131 804 q 51 835 93 829 q 42 943 42 874 q 283 939 174 939 q 525 943 442 939 q 523 879 525 904 q 513 835 521 854 q 454 819 472 831 q 429 777 436 807 q 422 682 422 747 l 422 267 q 432 167 422 201 q 465 118 442 132 q 531 104 488 104 l 554 104 m 976 -346 q 933 -304 950 -332 q 911 -243 915 -276 q 1005 -111 979 -175 q 1031 51 1031 -47 l 1031 401 q 1010 472 1031 451 q 928 499 989 493 q 946 603 928 568 q 1126 617 1043 603 q 1246 649 1210 631 q 1294 560 1294 626 l 1294 115 q 1244 -90 1294 3 q 1122 -247 1194 -183 q 976 -346 1050 -310 z "},"Ḻ":{"ha":890,"x_min":42,"x_max":876,"o":"m 554 104 q 666 148 625 104 q 735 293 707 192 q 819 276 781 289 q 876 246 858 263 q 833 -3 844 150 q 471 0 669 0 q 247 -1 372 0 q 42 -4 122 -3 q 53 104 42 63 q 110 119 92 107 q 137 163 129 132 q 144 260 144 194 l 144 682 q 138 775 144 746 q 112 817 131 804 q 51 835 93 829 q 42 943 42 874 q 283 939 174 939 q 525 943 442 939 q 523 879 525 904 q 513 835 521 854 q 454 819 472 831 q 429 777 436 807 q 422 682 422 747 l 422 267 q 432 167 422 201 q 465 118 442 132 q 531 104 488 104 l 554 104 m 165 -218 q 178 -124 165 -157 l 699 -124 q 686 -204 699 -168 q 165 -218 406 -204 z "},"Ł":{"ha":890,"x_min":8,"x_max":876,"o":"m 735 293 q 819 276 781 289 q 876 246 858 263 q 833 -3 844 150 q 471 0 669 0 q 247 -1 372 0 q 42 -4 122 -3 q 53 104 42 63 q 110 119 92 107 q 137 163 129 132 q 144 260 144 194 l 144 314 l 56 258 q 24 322 38 288 q 8 379 11 356 l 144 461 l 144 682 q 138 775 144 746 q 112 817 131 804 q 51 835 93 829 q 42 943 42 874 q 283 939 174 939 q 525 943 442 939 q 523 879 525 904 q 513 835 521 854 q 454 819 472 831 q 429 777 436 807 q 422 682 422 747 l 422 596 l 524 656 q 552 597 542 626 q 565 543 563 567 l 422 456 l 422 267 q 432 167 422 201 q 465 118 442 132 q 531 104 488 104 l 554 104 q 666 148 625 104 q 735 293 707 192 z "},"M":{"ha":1386,"x_min":14,"x_max":1372,"o":"m 1363 106 q 1372 -4 1372 61 q 1101 0 1318 0 q 888 -4 988 0 q 900 104 888 44 q 967 126 950 110 q 985 192 985 143 q 979 278 985 229 l 939 660 l 679 -1 q 575 -12 647 -12 l 282 656 l 249 342 q 242 236 242 272 q 263 134 242 161 q 331 104 283 107 q 342 -4 342 61 q 189 0 300 0 q 14 -4 97 0 q 25 104 14 61 q 85 128 63 107 q 122 198 107 149 q 144 336 136 247 l 175 675 q 179 738 179 711 q 160 815 179 796 q 89 835 140 835 q 78 943 78 872 q 272 939 140 939 q 461 943 419 939 l 713 343 l 929 943 q 1129 939 1004 939 q 1317 943 1254 939 q 1306 835 1317 872 q 1233 813 1254 835 q 1213 735 1213 790 q 1217 674 1213 710 l 1256 293 q 1274 172 1264 208 q 1303 122 1285 135 q 1363 106 1322 110 z "},"Ṃ":{"ha":1386,"x_min":14,"x_max":1372,"o":"m 1363 106 q 1372 -4 1372 61 q 1101 0 1318 0 q 888 -4 988 0 q 900 104 888 44 q 967 126 950 110 q 985 192 985 143 q 979 278 985 229 l 939 660 l 679 -1 q 575 -12 647 -12 l 282 656 l 249 342 q 242 236 242 272 q 263 134 242 161 q 331 104 283 107 q 342 -4 342 61 q 189 0 300 0 q 14 -4 97 0 q 25 104 14 61 q 85 128 63 107 q 122 198 107 149 q 144 336 136 247 l 175 675 q 179 738 179 711 q 160 815 179 796 q 89 835 140 835 q 78 943 78 872 q 272 939 140 939 q 461 943 419 939 l 713 343 l 929 943 q 1129 939 1004 939 q 1317 943 1254 939 q 1306 835 1317 872 q 1233 813 1254 835 q 1213 735 1213 790 q 1217 674 1213 710 l 1256 293 q 1274 172 1264 208 q 1303 122 1285 135 q 1363 106 1322 110 m 611 -328 q 508 -297 546 -328 q 469 -215 469 -267 q 511 -124 469 -156 q 621 -92 553 -92 q 733 -122 694 -92 q 771 -212 771 -153 q 728 -296 771 -264 q 611 -328 685 -328 z "},"N":{"ha":988,"x_min":21,"x_max":946,"o":"m 799 939 q 946 943 896 939 q 944 887 946 915 q 936 835 943 858 q 881 814 899 829 q 856 759 863 799 q 849 636 849 719 l 849 0 q 794 -10 822 -8 q 722 -12 767 -12 l 249 629 l 249 303 q 258 181 249 221 q 289 126 267 142 q 358 104 311 110 q 368 -4 368 68 q 200 0 310 0 q 21 -4 71 0 q 32 104 21 69 q 101 126 78 110 q 134 183 124 143 q 144 303 144 224 l 144 769 l 125 796 q 95 823 114 815 q 32 835 76 831 q 21 943 21 875 q 206 939 75 939 q 363 943 325 939 l 744 417 l 744 636 q 735 757 744 718 q 703 813 726 796 q 626 835 679 829 q 617 943 617 872 q 799 939 675 939 z "},"Ǌ":{"ha":1533,"x_min":21,"x_max":1492,"o":"m 799 939 q 946 943 896 939 q 944 887 946 915 q 936 835 943 858 q 881 814 899 829 q 856 759 863 799 q 849 636 849 719 l 849 0 q 794 -10 822 -8 q 722 -12 767 -12 l 249 629 l 249 303 q 258 181 249 221 q 289 126 267 142 q 358 104 311 110 q 368 -4 368 68 q 200 0 310 0 q 21 -4 71 0 q 32 104 21 69 q 101 126 78 110 q 134 183 124 143 q 144 303 144 224 l 144 769 l 125 796 q 95 823 114 815 q 32 835 76 831 q 21 943 21 875 q 206 939 75 939 q 363 943 325 939 l 744 417 l 744 636 q 735 757 744 718 q 703 813 726 796 q 626 835 679 829 q 617 943 617 872 q 799 939 675 939 m 1389 188 q 1360 -48 1389 47 q 1251 -217 1332 -143 q 1018 -346 1171 -290 q 967 -243 974 -312 q 1051 -168 1021 -207 q 1097 -69 1082 -129 q 1111 86 1111 -10 l 1111 678 q 1104 776 1111 746 q 1079 819 1097 807 q 1021 835 1061 831 q 1008 943 1008 876 q 1250 939 1067 939 q 1492 943 1429 939 q 1479 835 1492 874 q 1419 817 1438 832 q 1394 772 1400 801 q 1389 678 1389 742 l 1389 188 z "},"Ń":{"ha":988,"x_min":21,"x_max":946,"o":"m 799 939 q 946 943 896 939 q 944 887 946 915 q 936 835 943 858 q 881 814 899 829 q 856 759 863 799 q 849 636 849 719 l 849 0 q 794 -10 822 -8 q 722 -12 767 -12 l 249 629 l 249 303 q 258 181 249 221 q 289 126 267 142 q 358 104 311 110 q 368 -4 368 68 q 200 0 310 0 q 21 -4 71 0 q 32 104 21 69 q 101 126 78 110 q 134 183 124 143 q 144 303 144 224 l 144 769 l 125 796 q 95 823 114 815 q 32 835 76 831 q 21 943 21 875 q 206 939 75 939 q 363 943 325 939 l 744 417 l 744 636 q 735 757 744 718 q 703 813 726 796 q 626 835 679 829 q 617 943 617 872 q 799 939 675 939 m 540 1021 q 399 1046 467 1021 q 483 1211 447 1122 q 614 1225 543 1225 q 708 1217 669 1225 q 540 1021 617 1121 z "},"Ň":{"ha":988,"x_min":21,"x_max":946,"o":"m 799 939 q 946 943 896 939 q 944 887 946 915 q 936 835 943 858 q 881 814 899 829 q 856 759 863 799 q 849 636 849 719 l 849 0 q 794 -10 822 -8 q 722 -12 767 -12 l 249 629 l 249 303 q 258 181 249 221 q 289 126 267 142 q 358 104 311 110 q 368 -4 368 68 q 200 0 310 0 q 21 -4 71 0 q 32 104 21 69 q 101 126 78 110 q 134 183 124 143 q 144 303 144 224 l 144 769 l 125 796 q 95 823 114 815 q 32 835 76 831 q 21 943 21 875 q 206 939 75 939 q 363 943 325 939 l 744 417 l 744 636 q 735 757 744 718 q 703 813 726 796 q 626 835 679 829 q 617 943 617 872 q 799 939 675 939 m 411 1007 q 211 1164 338 1081 q 267 1214 236 1194 q 342 1242 297 1233 q 503 1163 394 1208 q 524 1173 514 1168 q 544 1182 535 1178 q 653 1238 614 1213 q 711 1212 686 1233 q 746 1164 736 1190 q 536 1022 601 1078 q 411 1007 489 1007 z "},"Ņ":{"ha":988,"x_min":21,"x_max":946,"o":"m 799 939 q 946 943 896 939 q 944 887 946 915 q 936 835 943 858 q 881 814 899 829 q 856 759 863 799 q 849 636 849 719 l 849 0 q 794 -10 822 -8 q 722 -12 767 -12 l 249 629 l 249 303 q 258 181 249 221 q 289 126 267 142 q 358 104 311 110 q 368 -4 368 68 q 200 0 310 0 q 21 -4 71 0 q 32 104 21 69 q 101 126 78 110 q 134 183 124 143 q 144 303 144 224 l 144 769 l 125 796 q 95 823 114 815 q 32 835 76 831 q 21 943 21 875 q 206 939 75 939 q 363 943 325 939 l 744 417 l 744 636 q 735 757 744 718 q 703 813 726 796 q 626 835 679 829 q 617 943 617 872 q 799 939 675 939 m 599 -51 q 656 -89 639 -62 q 674 -168 674 -115 q 517 -437 674 -333 q 458 -430 486 -439 q 411 -401 429 -421 q 473 -344 453 -374 q 493 -287 493 -314 q 471 -247 493 -261 q 401 -228 449 -233 q 400 -201 400 -219 q 424 -94 400 -149 q 599 -51 538 -92 z "},"Ṅ":{"ha":988,"x_min":21,"x_max":946,"o":"m 799 939 q 946 943 896 939 q 944 887 946 915 q 936 835 943 858 q 881 814 899 829 q 856 759 863 799 q 849 636 849 719 l 849 0 q 794 -10 822 -8 q 722 -12 767 -12 l 249 629 l 249 303 q 258 181 249 221 q 289 126 267 142 q 358 104 311 110 q 368 -4 368 68 q 200 0 310 0 q 21 -4 71 0 q 32 104 21 69 q 101 126 78 110 q 134 183 124 143 q 144 303 144 224 l 144 769 l 125 796 q 95 823 114 815 q 32 835 76 831 q 21 943 21 875 q 206 939 75 939 q 363 943 325 939 l 744 417 l 744 636 q 735 757 744 718 q 703 813 726 796 q 626 835 679 829 q 617 943 617 872 q 799 939 675 939 m 490 992 q 387 1022 425 992 q 349 1104 349 1053 q 390 1196 349 1164 q 500 1228 432 1228 q 612 1197 574 1228 q 650 1107 650 1167 q 607 1024 650 1056 q 490 992 564 992 z "},"Ṇ":{"ha":988,"x_min":21,"x_max":946,"o":"m 799 939 q 946 943 896 939 q 944 887 946 915 q 936 835 943 858 q 881 814 899 829 q 856 759 863 799 q 849 636 849 719 l 849 0 q 794 -10 822 -8 q 722 -12 767 -12 l 249 629 l 249 303 q 258 181 249 221 q 289 126 267 142 q 358 104 311 110 q 368 -4 368 68 q 200 0 310 0 q 21 -4 71 0 q 32 104 21 69 q 101 126 78 110 q 134 183 124 143 q 144 303 144 224 l 144 769 l 125 796 q 95 823 114 815 q 32 835 76 831 q 21 943 21 875 q 206 939 75 939 q 363 943 325 939 l 744 417 l 744 636 q 735 757 744 718 q 703 813 726 796 q 626 835 679 829 q 617 943 617 872 q 799 939 675 939 m 531 -328 q 427 -297 465 -328 q 389 -215 389 -267 q 431 -124 389 -156 q 540 -92 472 -92 q 652 -122 614 -92 q 690 -212 690 -153 q 647 -296 690 -264 q 531 -328 604 -328 z "},"Ŋ":{"ha":988,"x_min":21,"x_max":946,"o":"m 946 943 q 944 887 946 917 q 936 835 943 857 q 881 814 899 829 q 856 759 863 799 q 849 636 849 719 l 849 188 q 820 -48 849 47 q 711 -217 792 -143 q 478 -346 631 -290 q 426 -243 433 -312 q 546 -157 504 -193 q 614 -65 588 -121 q 640 79 640 -8 l 640 99 l 249 629 l 249 303 q 258 181 249 221 q 289 126 267 142 q 358 104 311 110 q 368 -4 368 68 q 200 0 310 0 l 72 1 q 21 0 32 1 q 23 60 21 38 q 32 104 25 83 q 101 126 78 110 q 134 183 124 143 q 144 303 144 224 l 144 769 l 125 796 q 95 823 114 815 q 32 835 76 831 q 21 943 21 875 q 206 939 75 939 q 363 943 325 939 l 744 417 l 744 636 q 735 757 744 718 q 703 813 726 796 q 626 835 679 829 q 617 943 617 872 q 799 939 675 939 q 946 943 896 939 z "},"Ɲ":{"ha":988,"x_min":-225,"x_max":946,"o":"m 799 939 q 946 943 896 939 q 944 887 946 915 q 936 835 943 858 q 881 814 899 829 q 856 759 863 799 q 849 636 849 719 l 849 0 q 794 -10 822 -8 q 722 -12 767 -12 l 249 629 l 249 129 q 208 -135 249 -29 q 98 -294 167 -242 q -57 -346 29 -346 q -157 -324 -114 -346 q -224 -271 -200 -303 q -225 -239 -225 -262 q -206 -121 -225 -171 q -135 -139 -179 -131 q -51 -147 -92 -147 q 98 -87 51 -147 q 144 107 144 -26 l 144 769 l 125 796 q 95 823 114 815 q 32 835 76 831 q 21 943 21 875 q 206 939 75 939 q 363 943 325 939 l 744 417 l 744 636 q 735 757 744 718 q 703 813 726 796 q 626 835 679 829 q 617 943 617 872 q 799 939 675 939 z "},"ǋ":{"ha":1453,"x_min":21,"x_max":1397,"o":"m 1238 715 q 1134 746 1172 715 q 1096 828 1096 776 q 1138 919 1096 888 q 1247 951 1179 951 q 1359 921 1321 951 q 1397 831 1397 890 q 1354 747 1397 779 q 1238 715 1311 715 m 617 943 q 799 939 675 939 q 946 943 896 939 q 944 887 946 915 q 936 835 943 858 q 881 814 899 829 q 856 759 863 799 q 849 636 849 719 l 849 0 q 794 -10 822 -8 q 722 -12 767 -12 l 249 629 l 249 303 q 258 181 249 221 q 289 126 267 142 q 358 104 311 110 q 368 -4 368 68 q 200 0 310 0 q 21 -4 71 0 q 32 104 21 69 q 101 126 78 110 q 134 183 124 143 q 144 303 144 224 l 144 769 l 125 796 q 95 823 114 815 q 32 835 76 831 q 21 943 21 875 q 206 939 75 939 q 363 943 325 939 l 744 417 l 744 636 q 735 757 744 718 q 703 813 726 796 q 626 835 679 829 q 617 943 617 872 m 1343 649 q 1392 560 1392 626 l 1392 115 q 1342 -90 1392 3 q 1219 -247 1292 -183 q 1074 -346 1147 -310 q 1030 -304 1047 -332 q 1008 -243 1013 -276 q 1102 -111 1076 -175 q 1128 51 1128 -47 l 1128 401 q 1107 472 1128 451 q 1025 499 1086 493 q 1043 603 1025 568 q 1224 617 1140 603 q 1343 649 1307 631 z "},"Ṉ":{"ha":988,"x_min":21,"x_max":946,"o":"m 799 939 q 946 943 896 939 q 944 887 946 915 q 936 835 943 858 q 881 814 899 829 q 856 759 863 799 q 849 636 849 719 l 849 0 q 794 -10 822 -8 q 722 -12 767 -12 l 249 629 l 249 303 q 258 181 249 221 q 289 126 267 142 q 358 104 311 110 q 368 -4 368 68 q 200 0 310 0 q 21 -4 71 0 q 32 104 21 69 q 101 126 78 110 q 134 183 124 143 q 144 303 144 224 l 144 769 l 125 796 q 95 823 114 815 q 32 835 76 831 q 21 943 21 875 q 206 939 75 939 q 363 943 325 939 l 744 417 l 744 636 q 735 757 744 718 q 703 813 726 796 q 626 835 679 829 q 617 943 617 872 q 799 939 675 939 m 260 -218 q 272 -124 260 -157 l 793 -124 q 781 -204 793 -168 q 260 -218 500 -204 z "},"Ñ":{"ha":988,"x_min":21,"x_max":946,"o":"m 799 939 q 946 943 896 939 q 944 887 946 915 q 936 835 943 858 q 881 814 899 829 q 856 759 863 799 q 849 636 849 719 l 849 0 q 794 -10 822 -8 q 722 -12 767 -12 l 249 629 l 249 303 q 258 181 249 221 q 289 126 267 142 q 358 104 311 110 q 368 -4 368 68 q 200 0 310 0 q 21 -4 71 0 q 32 104 21 69 q 101 126 78 110 q 134 183 124 143 q 144 303 144 224 l 144 769 l 125 796 q 95 823 114 815 q 32 835 76 831 q 21 943 21 875 q 206 939 75 939 q 363 943 325 939 l 744 417 l 744 636 q 735 757 744 718 q 703 813 726 796 q 626 835 679 829 q 617 943 617 872 q 799 939 675 939 m 567 1021 q 506 1031 531 1021 q 450 1060 481 1040 q 410 1082 428 1075 q 371 1089 393 1089 q 263 1024 313 1089 q 225 1072 238 1049 q 211 1129 213 1096 q 304 1208 249 1182 q 413 1233 360 1233 q 471 1224 446 1233 q 532 1197 496 1215 q 576 1176 558 1183 q 614 1169 594 1169 q 699 1225 665 1169 q 789 1178 754 1214 q 694 1062 751 1103 q 567 1021 638 1021 z "},"O":{"ha":1057,"x_min":49,"x_max":1008,"o":"m 528 -12 q 272 48 381 -12 q 106 219 164 108 q 49 474 49 329 q 110 727 49 619 q 279 893 171 835 q 528 951 388 951 q 781 894 672 951 q 949 733 889 838 q 1008 492 1008 629 q 949 228 1008 343 q 781 51 890 114 q 528 -12 672 -12 m 544 96 q 676 194 629 96 q 724 463 724 293 q 698 657 724 569 q 624 796 672 744 q 510 847 575 847 q 379 759 425 847 q 333 507 333 671 q 387 212 333 328 q 544 96 440 96 z "},"Ó":{"ha":1057,"x_min":49,"x_max":1008,"o":"m 528 -12 q 272 48 381 -12 q 106 219 164 108 q 49 474 49 329 q 110 727 49 619 q 279 893 171 835 q 528 951 388 951 q 781 894 672 951 q 949 733 889 838 q 1008 492 1008 629 q 949 228 1008 343 q 781 51 890 114 q 528 -12 672 -12 m 544 96 q 676 194 629 96 q 724 463 724 293 q 698 657 724 569 q 624 796 672 744 q 510 847 575 847 q 379 759 425 847 q 333 507 333 671 q 387 212 333 328 q 544 96 440 96 m 569 1021 q 428 1046 496 1021 q 513 1211 476 1122 q 643 1225 572 1225 q 738 1217 699 1225 q 569 1021 646 1121 z "},"Ŏ":{"ha":1057,"x_min":49,"x_max":1008,"o":"m 528 -12 q 272 48 381 -12 q 106 219 164 108 q 49 474 49 329 q 110 727 49 619 q 279 893 171 835 q 528 951 388 951 q 781 894 672 951 q 949 733 889 838 q 1008 492 1008 629 q 949 228 1008 343 q 781 51 890 114 q 528 -12 672 -12 m 544 96 q 676 194 629 96 q 724 463 724 293 q 698 657 724 569 q 624 796 672 744 q 510 847 575 847 q 379 759 425 847 q 333 507 333 671 q 387 212 333 328 q 544 96 440 96 m 782 1207 q 526 1001 782 1001 q 276 1201 276 1001 q 376 1219 322 1219 q 421 1215 397 1219 q 544 1146 433 1146 q 626 1163 597 1146 q 657 1215 656 1181 q 704 1221 688 1221 q 782 1207 743 1221 z "},"Ô":{"ha":1057,"x_min":49,"x_max":1008,"o":"m 528 -12 q 272 48 381 -12 q 106 219 164 108 q 49 474 49 329 q 110 727 49 619 q 279 893 171 835 q 528 951 388 951 q 781 894 672 951 q 949 733 889 838 q 1008 492 1008 629 q 949 228 1008 343 q 781 51 890 114 q 528 -12 672 -12 m 544 96 q 676 194 629 96 q 724 463 724 293 q 698 657 724 569 q 624 796 672 744 q 510 847 575 847 q 379 759 425 847 q 333 507 333 671 q 387 212 333 328 q 544 96 440 96 m 354 1011 q 296 1037 321 1015 q 261 1085 271 1058 q 471 1226 406 1171 q 596 1242 518 1242 q 796 1085 669 1168 q 740 1035 771 1054 q 665 1007 710 1015 q 504 1086 611 1040 q 483 1076 493 1081 q 463 1067 472 1071 q 354 1011 393 1036 z "},"Ố":{"ha":1057,"x_min":49,"x_max":1008,"o":"m 528 -12 q 272 48 381 -12 q 106 219 164 108 q 49 474 49 329 q 110 727 49 619 q 279 893 171 835 q 528 951 388 951 q 781 894 672 951 q 949 733 889 838 q 1008 492 1008 629 q 949 228 1008 343 q 781 51 890 114 q 528 -12 672 -12 m 544 96 q 676 194 629 96 q 724 463 724 293 q 698 657 724 569 q 624 796 672 744 q 510 847 575 847 q 379 759 425 847 q 333 507 333 671 q 387 212 333 328 q 544 96 440 96 m 354 1011 q 296 1037 321 1015 q 261 1085 271 1058 q 471 1226 406 1171 q 596 1242 518 1242 q 796 1085 669 1168 q 740 1035 771 1054 q 665 1007 710 1015 q 504 1086 611 1040 q 483 1076 493 1081 q 463 1067 472 1071 q 354 1011 393 1036 m 569 1296 q 428 1321 496 1296 q 513 1486 476 1397 q 643 1500 572 1500 q 738 1492 699 1500 q 569 1296 646 1396 z "},"Ộ":{"ha":1057,"x_min":49,"x_max":1008,"o":"m 528 -12 q 272 48 381 -12 q 106 219 164 108 q 49 474 49 329 q 110 727 49 619 q 279 893 171 835 q 528 951 388 951 q 781 894 672 951 q 949 733 889 838 q 1008 492 1008 629 q 949 228 1008 343 q 781 51 890 114 q 528 -12 672 -12 m 544 96 q 676 194 629 96 q 724 463 724 293 q 698 657 724 569 q 624 796 672 744 q 510 847 575 847 q 379 759 425 847 q 333 507 333 671 q 387 212 333 328 q 544 96 440 96 m 519 -328 q 416 -297 454 -328 q 378 -215 378 -267 q 419 -124 378 -156 q 529 -92 461 -92 q 641 -122 603 -92 q 679 -212 679 -153 q 636 -296 679 -264 q 519 -328 593 -328 m 354 1011 q 296 1037 321 1015 q 261 1085 271 1058 q 471 1226 406 1171 q 596 1242 518 1242 q 796 1085 669 1168 q 740 1035 771 1054 q 665 1007 710 1015 q 504 1086 611 1040 q 483 1076 493 1081 q 463 1067 472 1071 q 354 1011 393 1036 z "},"Ồ":{"ha":1057,"x_min":49,"x_max":1008,"o":"m 528 -12 q 272 48 381 -12 q 106 219 164 108 q 49 474 49 329 q 110 727 49 619 q 279 893 171 835 q 528 951 388 951 q 781 894 672 951 q 949 733 889 838 q 1008 492 1008 629 q 949 228 1008 343 q 781 51 890 114 q 528 -12 672 -12 m 544 96 q 676 194 629 96 q 724 463 724 293 q 698 657 724 569 q 624 796 672 744 q 510 847 575 847 q 379 759 425 847 q 333 507 333 671 q 387 212 333 328 q 544 96 440 96 m 354 1011 q 296 1037 321 1015 q 261 1085 271 1058 q 471 1226 406 1171 q 596 1242 518 1242 q 796 1085 669 1168 q 740 1035 771 1054 q 665 1007 710 1015 q 504 1086 611 1040 q 483 1076 493 1081 q 463 1067 472 1071 q 354 1011 393 1036 m 489 1296 q 335 1464 404 1397 q 426 1491 372 1482 q 535 1500 481 1500 q 576 1409 550 1460 q 631 1321 603 1358 q 489 1296 563 1296 z "},"Ổ":{"ha":1057,"x_min":49,"x_max":1008,"o":"m 528 -12 q 272 48 381 -12 q 106 219 164 108 q 49 474 49 329 q 110 727 49 619 q 279 893 171 835 q 528 951 388 951 q 781 894 672 951 q 949 733 889 838 q 1008 492 1008 629 q 949 228 1008 343 q 781 51 890 114 q 528 -12 672 -12 m 544 96 q 676 194 629 96 q 724 463 724 293 q 698 657 724 569 q 624 796 672 744 q 510 847 575 847 q 379 759 425 847 q 333 507 333 671 q 387 212 333 328 q 544 96 440 96 m 354 1011 q 296 1037 321 1015 q 261 1085 271 1058 q 471 1226 406 1171 q 596 1242 518 1242 q 796 1085 669 1168 q 740 1035 771 1054 q 665 1007 710 1015 q 504 1086 611 1040 q 483 1076 493 1081 q 463 1067 472 1071 q 354 1011 393 1036 m 699 1203 q 689 1236 689 1218 q 702 1270 689 1257 q 742 1299 715 1283 q 769 1318 760 1310 q 779 1336 779 1326 q 742 1356 779 1356 q 701 1342 717 1356 q 674 1292 685 1329 q 554 1313 604 1292 q 558 1361 558 1338 q 554 1400 558 1382 q 765 1439 632 1439 q 905 1417 861 1439 q 949 1353 949 1396 q 928 1301 949 1321 q 874 1265 908 1282 q 843 1248 853 1256 q 833 1231 833 1240 q 838 1210 833 1222 q 749 1199 797 1199 q 699 1203 721 1199 z "},"Ỗ":{"ha":1057,"x_min":49,"x_max":1008,"o":"m 528 -12 q 272 48 381 -12 q 106 219 164 108 q 49 474 49 329 q 110 727 49 619 q 279 893 171 835 q 528 951 388 951 q 781 894 672 951 q 949 733 889 838 q 1008 492 1008 629 q 949 228 1008 343 q 781 51 890 114 q 528 -12 672 -12 m 544 96 q 676 194 629 96 q 724 463 724 293 q 698 657 724 569 q 624 796 672 744 q 510 847 575 847 q 379 759 425 847 q 333 507 333 671 q 387 212 333 328 q 544 96 440 96 m 354 1011 q 296 1037 321 1015 q 261 1085 271 1058 q 471 1226 406 1171 q 596 1242 518 1242 q 796 1085 669 1168 q 740 1035 771 1054 q 665 1007 710 1015 q 504 1086 611 1040 q 483 1076 493 1081 q 463 1067 472 1071 q 354 1011 393 1036 m 596 1296 q 535 1306 560 1296 q 479 1335 510 1315 q 440 1357 457 1350 q 400 1364 422 1364 q 292 1299 342 1364 q 254 1347 267 1324 q 240 1404 242 1371 q 333 1483 278 1457 q 442 1508 389 1508 q 500 1499 475 1508 q 561 1472 525 1490 q 606 1451 588 1458 q 643 1444 624 1444 q 728 1500 694 1444 q 818 1453 783 1489 q 724 1337 781 1378 q 596 1296 667 1296 z "},"Ȍ":{"ha":1057,"x_min":49,"x_max":1008,"o":"m 528 -12 q 272 48 381 -12 q 106 219 164 108 q 49 474 49 329 q 110 727 49 619 q 279 893 171 835 q 528 951 388 951 q 781 894 672 951 q 949 733 889 838 q 1008 492 1008 629 q 949 228 1008 343 q 781 51 890 114 q 528 -12 672 -12 m 544 96 q 676 194 629 96 q 724 463 724 293 q 698 657 724 569 q 624 796 672 744 q 510 847 575 847 q 379 759 425 847 q 333 507 333 671 q 387 212 333 328 q 544 96 440 96 m 368 993 q 214 1161 283 1094 q 306 1188 251 1179 q 414 1197 360 1197 q 456 1106 429 1157 q 510 1018 482 1056 q 368 993 442 993 m 646 993 q 506 1167 564 1103 q 591 1190 540 1182 q 692 1197 642 1197 q 733 1106 707 1157 q 788 1018 760 1056 q 646 993 719 993 z "},"Ö":{"ha":1057,"x_min":49,"x_max":1008,"o":"m 528 -12 q 272 48 381 -12 q 106 219 164 108 q 49 474 49 329 q 110 727 49 619 q 279 893 171 835 q 528 951 388 951 q 781 894 672 951 q 949 733 889 838 q 1008 492 1008 629 q 949 228 1008 343 q 781 51 890 114 q 528 -12 672 -12 m 544 96 q 676 194 629 96 q 724 463 724 293 q 698 657 724 569 q 624 796 672 744 q 510 847 575 847 q 379 759 425 847 q 333 507 333 671 q 387 212 333 328 q 544 96 440 96 m 354 999 q 257 1031 294 999 q 219 1110 219 1063 q 252 1199 219 1163 q 350 1235 285 1235 q 451 1201 418 1235 q 485 1113 485 1168 q 447 1031 485 1064 q 354 999 410 999 m 711 999 q 607 1033 643 999 q 571 1124 571 1067 q 607 1206 571 1176 q 704 1235 643 1235 q 801 1203 763 1235 q 839 1124 839 1171 q 808 1034 839 1069 q 711 999 776 999 z "},"Ȫ":{"ha":1057,"x_min":49,"x_max":1008,"o":"m 528 -12 q 272 48 381 -12 q 106 219 164 108 q 49 474 49 329 q 110 727 49 619 q 279 893 171 835 q 528 951 388 951 q 781 894 672 951 q 949 733 889 838 q 1008 492 1008 629 q 949 228 1008 343 q 781 51 890 114 q 528 -12 672 -12 m 544 96 q 676 194 629 96 q 724 463 724 293 q 698 657 724 569 q 624 796 672 744 q 510 847 575 847 q 379 759 425 847 q 333 507 333 671 q 387 212 333 328 q 544 96 440 96 m 354 999 q 257 1031 294 999 q 219 1110 219 1063 q 252 1199 219 1163 q 350 1235 285 1235 q 451 1201 418 1235 q 485 1113 485 1168 q 447 1031 485 1064 q 354 999 410 999 m 711 999 q 607 1033 643 999 q 571 1124 571 1067 q 607 1206 571 1176 q 704 1235 643 1235 q 801 1203 763 1235 q 839 1124 839 1171 q 808 1034 839 1069 q 711 999 776 999 m 801 1418 q 789 1328 801 1369 q 256 1310 478 1328 q 268 1418 256 1379 l 801 1418 z "},"Ȱ":{"ha":1057,"x_min":49,"x_max":1008,"o":"m 528 -12 q 272 48 381 -12 q 106 219 164 108 q 49 474 49 329 q 110 727 49 619 q 279 893 171 835 q 528 951 388 951 q 781 894 672 951 q 949 733 889 838 q 1008 492 1008 629 q 949 228 1008 343 q 781 51 890 114 q 528 -12 672 -12 m 544 96 q 676 194 629 96 q 724 463 724 293 q 698 657 724 569 q 624 796 672 744 q 510 847 575 847 q 379 759 425 847 q 333 507 333 671 q 387 212 333 328 q 544 96 440 96 m 519 992 q 416 1022 454 992 q 378 1104 378 1053 q 419 1196 378 1164 q 529 1228 461 1228 q 641 1197 603 1228 q 679 1107 679 1167 q 636 1024 679 1056 q 519 992 593 992 m 801 1383 q 789 1293 801 1335 q 256 1275 478 1293 q 268 1383 256 1344 l 801 1383 z "},"Ọ":{"ha":1057,"x_min":49,"x_max":1008,"o":"m 528 -12 q 272 48 381 -12 q 106 219 164 108 q 49 474 49 329 q 110 727 49 619 q 279 893 171 835 q 528 951 388 951 q 781 894 672 951 q 949 733 889 838 q 1008 492 1008 629 q 949 228 1008 343 q 781 51 890 114 q 528 -12 672 -12 m 544 96 q 676 194 629 96 q 724 463 724 293 q 698 657 724 569 q 624 796 672 744 q 510 847 575 847 q 379 759 425 847 q 333 507 333 671 q 387 212 333 328 q 544 96 440 96 m 519 -328 q 416 -297 454 -328 q 378 -215 378 -267 q 419 -124 378 -156 q 529 -92 461 -92 q 641 -122 603 -92 q 679 -212 679 -153 q 636 -296 679 -264 q 519 -328 593 -328 z "},"Ò":{"ha":1057,"x_min":49,"x_max":1008,"o":"m 528 -12 q 272 48 381 -12 q 106 219 164 108 q 49 474 49 329 q 110 727 49 619 q 279 893 171 835 q 528 951 388 951 q 781 894 672 951 q 949 733 889 838 q 1008 492 1008 629 q 949 228 1008 343 q 781 51 890 114 q 528 -12 672 -12 m 544 96 q 676 194 629 96 q 724 463 724 293 q 698 657 724 569 q 624 796 672 744 q 510 847 575 847 q 379 759 425 847 q 333 507 333 671 q 387 212 333 328 q 544 96 440 96 m 489 1021 q 335 1189 404 1122 q 426 1216 372 1207 q 535 1225 481 1225 q 576 1134 550 1185 q 631 1046 603 1083 q 489 1021 563 1021 z "},"Ỏ":{"ha":1057,"x_min":49,"x_max":1008,"o":"m 528 -12 q 272 48 381 -12 q 106 219 164 108 q 49 474 49 329 q 110 727 49 619 q 279 893 171 835 q 528 951 388 951 q 781 894 672 951 q 949 733 889 838 q 1008 492 1008 629 q 949 228 1008 343 q 781 51 890 114 q 528 -12 672 -12 m 544 96 q 676 194 629 96 q 724 463 724 293 q 698 657 724 569 q 624 796 672 744 q 510 847 575 847 q 379 759 425 847 q 333 507 333 671 q 387 212 333 328 q 544 96 440 96 m 476 997 q 467 1031 467 1013 q 480 1065 467 1051 q 519 1093 493 1078 q 547 1113 538 1104 q 557 1131 557 1121 q 519 1150 557 1150 q 478 1137 494 1150 q 451 1086 463 1124 q 332 1107 382 1086 q 336 1156 336 1132 q 332 1194 336 1176 q 543 1233 410 1233 q 683 1212 639 1233 q 726 1147 726 1190 q 706 1096 726 1115 q 651 1060 686 1076 q 621 1042 631 1050 q 611 1025 611 1035 q 615 1004 611 1017 q 526 993 575 993 q 476 997 499 993 z "},"Ơ":{"ha":1057,"x_min":49,"x_max":1075,"o":"m 869 833 q 973 685 938 772 q 1008 492 1008 599 q 949 228 1008 343 q 781 51 890 114 q 528 -12 672 -12 q 272 48 381 -12 q 106 219 164 108 q 49 474 49 329 q 110 727 49 619 q 279 893 171 835 q 528 951 388 951 l 529 951 q 576 950 561 951 q 660 943 604 949 q 767 935 738 935 q 851 959 826 935 q 876 1050 876 983 q 869 1131 876 1090 q 850 1196 861 1171 q 968 1215 900 1215 q 1000 1214 992 1215 q 1053 1147 1032 1192 q 1075 1057 1075 1101 q 1047 959 1075 1007 q 971 877 1018 911 q 869 833 924 843 m 544 96 q 676 194 629 96 q 724 463 724 293 q 698 657 724 569 q 624 796 672 744 q 510 847 575 847 q 379 759 425 847 q 333 507 333 671 q 387 212 333 328 q 544 96 440 96 z "},"Ớ":{"ha":1057,"x_min":49,"x_max":1075,"o":"m 869 833 q 973 685 938 772 q 1008 492 1008 599 q 949 228 1008 343 q 781 51 890 114 q 528 -12 672 -12 q 272 48 381 -12 q 106 219 164 108 q 49 474 49 329 q 110 727 49 619 q 279 893 171 835 q 528 951 388 951 l 529 951 q 576 950 561 951 q 660 943 604 949 q 767 935 738 935 q 851 959 826 935 q 876 1050 876 983 q 869 1131 876 1090 q 850 1196 861 1171 q 968 1215 900 1215 q 1000 1214 992 1215 q 1053 1147 1032 1192 q 1075 1057 1075 1101 q 1047 959 1075 1007 q 971 877 1018 911 q 869 833 924 843 m 544 96 q 676 194 629 96 q 724 463 724 293 q 698 657 724 569 q 624 796 672 744 q 510 847 575 847 q 379 759 425 847 q 333 507 333 671 q 387 212 333 328 q 544 96 440 96 m 569 1021 q 428 1046 496 1021 q 513 1211 476 1122 q 643 1225 572 1225 q 738 1217 699 1225 q 569 1021 646 1121 z "},"Ợ":{"ha":1057,"x_min":49,"x_max":1075,"o":"m 869 833 q 973 685 938 772 q 1008 492 1008 599 q 949 228 1008 343 q 781 51 890 114 q 528 -12 672 -12 q 272 48 381 -12 q 106 219 164 108 q 49 474 49 329 q 110 727 49 619 q 279 893 171 835 q 528 951 388 951 l 529 951 q 576 950 561 951 q 660 943 604 949 q 767 935 738 935 q 851 959 826 935 q 876 1050 876 983 q 869 1131 876 1090 q 850 1196 861 1171 q 968 1215 900 1215 q 1000 1214 992 1215 q 1053 1147 1032 1192 q 1075 1057 1075 1101 q 1047 959 1075 1007 q 971 877 1018 911 q 869 833 924 843 m 544 96 q 676 194 629 96 q 724 463 724 293 q 698 657 724 569 q 624 796 672 744 q 510 847 575 847 q 379 759 425 847 q 333 507 333 671 q 387 212 333 328 q 544 96 440 96 m 519 -328 q 416 -297 454 -328 q 378 -215 378 -267 q 419 -124 378 -156 q 529 -92 461 -92 q 641 -122 603 -92 q 679 -212 679 -153 q 636 -296 679 -264 q 519 -328 593 -328 z "},"Ờ":{"ha":1057,"x_min":49,"x_max":1075,"o":"m 869 833 q 973 685 938 772 q 1008 492 1008 599 q 949 228 1008 343 q 781 51 890 114 q 528 -12 672 -12 q 272 48 381 -12 q 106 219 164 108 q 49 474 49 329 q 110 727 49 619 q 279 893 171 835 q 528 951 388 951 l 529 951 q 576 950 561 951 q 660 943 604 949 q 767 935 738 935 q 851 959 826 935 q 876 1050 876 983 q 869 1131 876 1090 q 850 1196 861 1171 q 968 1215 900 1215 q 1000 1214 992 1215 q 1053 1147 1032 1192 q 1075 1057 1075 1101 q 1047 959 1075 1007 q 971 877 1018 911 q 869 833 924 843 m 544 96 q 676 194 629 96 q 724 463 724 293 q 698 657 724 569 q 624 796 672 744 q 510 847 575 847 q 379 759 425 847 q 333 507 333 671 q 387 212 333 328 q 544 96 440 96 m 489 1021 q 335 1189 404 1122 q 426 1216 372 1207 q 535 1225 481 1225 q 576 1134 550 1185 q 631 1046 603 1083 q 489 1021 563 1021 z "},"Ở":{"ha":1057,"x_min":49,"x_max":1075,"o":"m 869 833 q 973 685 938 772 q 1008 492 1008 599 q 949 228 1008 343 q 781 51 890 114 q 528 -12 672 -12 q 272 48 381 -12 q 106 219 164 108 q 49 474 49 329 q 110 727 49 619 q 279 893 171 835 q 528 951 388 951 l 529 951 q 576 950 561 951 q 660 943 604 949 q 767 935 738 935 q 851 959 826 935 q 876 1050 876 983 q 869 1131 876 1090 q 850 1196 861 1171 q 968 1215 900 1215 q 1000 1214 992 1215 q 1053 1147 1032 1192 q 1075 1057 1075 1101 q 1047 959 1075 1007 q 971 877 1018 911 q 869 833 924 843 m 544 96 q 676 194 629 96 q 724 463 724 293 q 698 657 724 569 q 624 796 672 744 q 510 847 575 847 q 379 759 425 847 q 333 507 333 671 q 387 212 333 328 q 544 96 440 96 m 476 997 q 467 1031 467 1013 q 480 1065 467 1051 q 519 1093 493 1078 q 547 1113 538 1104 q 557 1131 557 1121 q 519 1150 557 1150 q 478 1137 494 1150 q 451 1086 463 1124 q 332 1107 382 1086 q 336 1156 336 1132 q 332 1194 336 1176 q 543 1233 410 1233 q 683 1212 639 1233 q 726 1147 726 1190 q 706 1096 726 1115 q 651 1060 686 1076 q 621 1042 631 1050 q 611 1025 611 1035 q 615 1004 611 1017 q 526 993 575 993 q 476 997 499 993 z "},"Ỡ":{"ha":1057,"x_min":49,"x_max":1075,"o":"m 869 833 q 973 685 938 772 q 1008 492 1008 599 q 949 228 1008 343 q 781 51 890 114 q 528 -12 672 -12 q 272 48 381 -12 q 106 219 164 108 q 49 474 49 329 q 110 727 49 619 q 279 893 171 835 q 528 951 388 951 l 529 951 q 576 950 561 951 q 660 943 604 949 q 767 935 738 935 q 851 959 826 935 q 876 1050 876 983 q 869 1131 876 1090 q 850 1196 861 1171 q 968 1215 900 1215 q 1000 1214 992 1215 q 1053 1147 1032 1192 q 1075 1057 1075 1101 q 1047 959 1075 1007 q 971 877 1018 911 q 869 833 924 843 m 544 96 q 676 194 629 96 q 724 463 724 293 q 698 657 724 569 q 624 796 672 744 q 510 847 575 847 q 379 759 425 847 q 333 507 333 671 q 387 212 333 328 q 544 96 440 96 m 596 1021 q 535 1031 560 1021 q 479 1060 510 1040 q 440 1082 457 1075 q 400 1089 422 1089 q 292 1024 342 1089 q 254 1072 267 1049 q 240 1129 242 1096 q 333 1208 278 1182 q 442 1233 389 1233 q 500 1224 475 1233 q 561 1197 525 1215 q 606 1176 588 1183 q 643 1169 624 1169 q 728 1225 694 1169 q 818 1178 783 1214 q 724 1062 781 1103 q 596 1021 667 1021 z "},"Ő":{"ha":1057,"x_min":49,"x_max":1008,"o":"m 528 -12 q 272 48 381 -12 q 106 219 164 108 q 49 474 49 329 q 110 727 49 619 q 279 893 171 835 q 528 951 388 951 q 781 894 672 951 q 949 733 889 838 q 1008 492 1008 629 q 949 228 1008 343 q 781 51 890 114 q 528 -12 672 -12 m 544 96 q 676 194 629 96 q 724 463 724 293 q 698 657 724 569 q 624 796 672 744 q 510 847 575 847 q 379 759 425 847 q 333 507 333 671 q 387 212 333 328 q 544 96 440 96 m 436 1022 q 362 1033 400 1024 q 301 1054 324 1042 q 360 1206 335 1124 q 501 1226 414 1226 q 586 1218 558 1226 q 436 1022 510 1132 m 714 1022 q 640 1033 678 1024 q 579 1054 601 1042 q 638 1206 613 1124 q 779 1226 692 1226 q 864 1218 836 1226 q 714 1022 788 1132 z "},"Ȏ":{"ha":1057,"x_min":49,"x_max":1008,"o":"m 528 -12 q 272 48 381 -12 q 106 219 164 108 q 49 474 49 329 q 110 727 49 619 q 279 893 171 835 q 528 951 388 951 q 781 894 672 951 q 949 733 889 838 q 1008 492 1008 629 q 949 228 1008 343 q 781 51 890 114 q 528 -12 672 -12 m 544 96 q 676 194 629 96 q 724 463 724 293 q 698 657 724 569 q 624 796 672 744 q 510 847 575 847 q 379 759 425 847 q 333 507 333 671 q 387 212 333 328 q 544 96 440 96 m 276 1015 q 532 1221 276 1221 q 782 1021 782 1221 q 682 1003 736 1003 q 638 1007 660 1003 q 514 1076 625 1076 q 432 1059 461 1076 q 401 1007 403 1042 q 354 1001 371 1001 q 276 1015 315 1001 z "},"Ō":{"ha":1057,"x_min":49,"x_max":1008,"o":"m 528 -12 q 272 48 381 -12 q 106 219 164 108 q 49 474 49 329 q 110 727 49 619 q 279 893 171 835 q 528 951 388 951 q 781 894 672 951 q 949 733 889 838 q 1008 492 1008 629 q 949 228 1008 343 q 781 51 890 114 q 528 -12 672 -12 m 544 96 q 676 194 629 96 q 724 463 724 293 q 698 657 724 569 q 624 796 672 744 q 510 847 575 847 q 379 759 425 847 q 333 507 333 671 q 387 212 333 328 q 544 96 440 96 m 801 1150 q 789 1060 801 1101 q 256 1042 478 1060 q 268 1150 256 1111 l 801 1150 z "},"Ṓ":{"ha":1057,"x_min":49,"x_max":1008,"o":"m 528 -12 q 272 48 381 -12 q 106 219 164 108 q 49 474 49 329 q 110 727 49 619 q 279 893 171 835 q 528 951 388 951 q 781 894 672 951 q 949 733 889 838 q 1008 492 1008 629 q 949 228 1008 343 q 781 51 890 114 q 528 -12 672 -12 m 544 96 q 676 194 629 96 q 724 463 724 293 q 698 657 724 569 q 624 796 672 744 q 510 847 575 847 q 379 759 425 847 q 333 507 333 671 q 387 212 333 328 q 544 96 440 96 m 801 1150 q 789 1060 801 1101 q 256 1042 478 1060 q 268 1150 256 1111 l 801 1150 m 569 1232 q 428 1257 496 1232 q 513 1422 476 1333 q 643 1436 572 1436 q 738 1428 699 1436 q 569 1232 646 1332 z "},"Ṑ":{"ha":1057,"x_min":49,"x_max":1008,"o":"m 528 -12 q 272 48 381 -12 q 106 219 164 108 q 49 474 49 329 q 110 727 49 619 q 279 893 171 835 q 528 951 388 951 q 781 894 672 951 q 949 733 889 838 q 1008 492 1008 629 q 949 228 1008 343 q 781 51 890 114 q 528 -12 672 -12 m 544 96 q 676 194 629 96 q 724 463 724 293 q 698 657 724 569 q 624 796 672 744 q 510 847 575 847 q 379 759 425 847 q 333 507 333 671 q 387 212 333 328 q 544 96 440 96 m 801 1150 q 789 1060 801 1101 q 256 1042 478 1060 q 268 1150 256 1111 l 801 1150 m 489 1232 q 335 1400 404 1333 q 426 1427 372 1418 q 535 1436 481 1436 q 576 1345 550 1396 q 631 1257 603 1294 q 489 1232 563 1232 z "},"Ǫ":{"ha":1057,"x_min":49,"x_max":1008,"o":"m 725 24 q 653 -35 679 1 q 626 -110 626 -72 q 732 -181 626 -181 q 779 -176 758 -181 q 797 -220 789 -189 q 804 -278 804 -251 q 803 -296 804 -290 q 701 -317 751 -303 q 617 -349 651 -332 q 585 -350 603 -350 q 501 -333 544 -350 q 429 -281 458 -315 q 400 -197 400 -246 q 433 -99 400 -149 q 522 -12 465 -50 q 269 50 376 -11 q 106 220 163 111 q 49 474 49 329 q 110 727 49 619 q 279 893 171 835 q 528 951 388 951 q 781 894 672 951 q 949 733 889 838 q 1008 492 1008 629 q 933 201 1008 324 q 725 24 858 78 m 333 507 q 387 212 333 328 q 544 96 440 96 q 676 194 629 96 q 724 463 724 293 q 698 657 724 569 q 624 796 672 744 q 510 847 575 847 q 379 759 425 847 q 333 507 333 671 z "},"Ø":{"ha":1057,"x_min":49,"x_max":1014,"o":"m 901 800 q 981 663 953 740 q 1008 492 1008 585 q 949 228 1008 343 q 781 51 890 114 q 528 -12 672 -12 q 286 40 389 -12 l 222 -36 q 138 -28 176 -36 q 78 -6 100 -19 l 181 117 q 83 272 117 181 q 49 474 49 363 q 110 727 49 619 q 279 893 171 835 q 528 951 388 951 q 799 885 682 951 l 869 972 q 951 963 911 972 q 1014 939 992 954 l 901 800 m 510 847 q 379 759 425 847 q 333 507 333 671 q 351 322 333 403 l 668 732 q 600 817 640 786 q 510 847 560 847 m 544 96 q 676 194 629 96 q 724 463 724 293 q 715 575 724 521 l 406 178 q 544 96 458 96 z "},"Ǿ":{"ha":1057,"x_min":49,"x_max":1014,"o":"m 901 800 q 981 663 953 740 q 1008 492 1008 585 q 949 228 1008 343 q 781 51 890 114 q 528 -12 672 -12 q 286 40 389 -12 l 222 -36 q 138 -28 176 -36 q 78 -6 100 -19 l 181 117 q 83 272 117 181 q 49 474 49 363 q 110 727 49 619 q 279 893 171 835 q 528 951 388 951 q 799 885 682 951 l 869 972 q 951 963 911 972 q 1014 939 992 954 l 901 800 m 510 847 q 379 759 425 847 q 333 507 333 671 q 351 322 333 403 l 668 732 q 600 817 640 786 q 510 847 560 847 m 544 96 q 676 194 629 96 q 724 463 724 293 q 715 575 724 521 l 406 178 q 544 96 458 96 m 569 1021 q 428 1046 496 1021 q 513 1211 476 1122 q 643 1225 572 1225 q 738 1217 699 1225 q 569 1021 646 1121 z "},"Õ":{"ha":1057,"x_min":49,"x_max":1008,"o":"m 528 -12 q 272 48 381 -12 q 106 219 164 108 q 49 474 49 329 q 110 727 49 619 q 279 893 171 835 q 528 951 388 951 q 781 894 672 951 q 949 733 889 838 q 1008 492 1008 629 q 949 228 1008 343 q 781 51 890 114 q 528 -12 672 -12 m 544 96 q 676 194 629 96 q 724 463 724 293 q 698 657 724 569 q 624 796 672 744 q 510 847 575 847 q 379 759 425 847 q 333 507 333 671 q 387 212 333 328 q 544 96 440 96 m 596 1021 q 535 1031 560 1021 q 479 1060 510 1040 q 440 1082 457 1075 q 400 1089 422 1089 q 292 1024 342 1089 q 254 1072 267 1049 q 240 1129 242 1096 q 333 1208 278 1182 q 442 1233 389 1233 q 500 1224 475 1233 q 561 1197 525 1215 q 606 1176 588 1183 q 643 1169 624 1169 q 728 1225 694 1169 q 818 1178 783 1214 q 724 1062 781 1103 q 596 1021 667 1021 z "},"Ṍ":{"ha":1057,"x_min":49,"x_max":1008,"o":"m 528 -12 q 272 48 381 -12 q 106 219 164 108 q 49 474 49 329 q 110 727 49 619 q 279 893 171 835 q 528 951 388 951 q 781 894 672 951 q 949 733 889 838 q 1008 492 1008 629 q 949 228 1008 343 q 781 51 890 114 q 528 -12 672 -12 m 544 96 q 676 194 629 96 q 724 463 724 293 q 698 657 724 569 q 624 796 672 744 q 510 847 575 847 q 379 759 425 847 q 333 507 333 671 q 387 212 333 328 q 544 96 440 96 m 596 1021 q 535 1031 560 1021 q 479 1060 510 1040 q 440 1082 457 1075 q 400 1089 422 1089 q 292 1024 342 1089 q 254 1072 267 1049 q 240 1129 242 1096 q 333 1208 278 1182 q 442 1233 389 1233 q 500 1224 475 1233 q 561 1197 525 1215 q 606 1176 588 1183 q 643 1169 624 1169 q 728 1225 694 1169 q 818 1178 783 1214 q 724 1062 781 1103 q 596 1021 667 1021 m 569 1315 q 428 1340 496 1315 q 513 1506 476 1417 q 643 1519 572 1519 q 738 1511 699 1519 q 569 1315 646 1415 z "},"Ṏ":{"ha":1057,"x_min":49,"x_max":1008,"o":"m 528 -12 q 272 48 381 -12 q 106 219 164 108 q 49 474 49 329 q 110 727 49 619 q 279 893 171 835 q 528 951 388 951 q 781 894 672 951 q 949 733 889 838 q 1008 492 1008 629 q 949 228 1008 343 q 781 51 890 114 q 528 -12 672 -12 m 544 96 q 676 194 629 96 q 724 463 724 293 q 698 657 724 569 q 624 796 672 744 q 510 847 575 847 q 379 759 425 847 q 333 507 333 671 q 387 212 333 328 q 544 96 440 96 m 596 1021 q 535 1031 560 1021 q 479 1060 510 1040 q 440 1082 457 1075 q 400 1089 422 1089 q 292 1024 342 1089 q 254 1072 267 1049 q 240 1129 242 1096 q 333 1208 278 1182 q 442 1233 389 1233 q 500 1224 475 1233 q 561 1197 525 1215 q 606 1176 588 1183 q 643 1169 624 1169 q 728 1225 694 1169 q 818 1178 783 1214 q 724 1062 781 1103 q 596 1021 667 1021 m 354 1293 q 257 1325 294 1293 q 219 1404 219 1357 q 252 1493 219 1457 q 350 1529 285 1529 q 451 1496 418 1529 q 485 1407 485 1463 q 447 1326 485 1358 q 354 1293 410 1293 m 711 1293 q 607 1327 643 1293 q 571 1418 571 1361 q 607 1500 571 1471 q 704 1529 643 1529 q 801 1497 763 1529 q 839 1418 839 1465 q 808 1328 839 1364 q 711 1293 776 1293 z "},"Ȭ":{"ha":1057,"x_min":49,"x_max":1008,"o":"m 528 -12 q 272 48 381 -12 q 106 219 164 108 q 49 474 49 329 q 110 727 49 619 q 279 893 171 835 q 528 951 388 951 q 781 894 672 951 q 949 733 889 838 q 1008 492 1008 629 q 949 228 1008 343 q 781 51 890 114 q 528 -12 672 -12 m 544 96 q 676 194 629 96 q 724 463 724 293 q 698 657 724 569 q 624 796 672 744 q 510 847 575 847 q 379 759 425 847 q 333 507 333 671 q 387 212 333 328 q 544 96 440 96 m 596 1021 q 535 1031 560 1021 q 479 1060 510 1040 q 440 1082 457 1075 q 400 1089 422 1089 q 292 1024 342 1089 q 254 1072 267 1049 q 240 1129 242 1096 q 333 1208 278 1182 q 442 1233 389 1233 q 500 1224 475 1233 q 561 1197 525 1215 q 606 1176 588 1183 q 643 1169 624 1169 q 728 1225 694 1169 q 818 1178 783 1214 q 724 1062 781 1103 q 596 1021 667 1021 m 801 1444 q 789 1354 801 1396 q 256 1336 478 1354 q 268 1444 256 1406 l 801 1444 z "},"Œ":{"ha":1426,"x_min":49,"x_max":1406,"o":"m 517 951 q 703 946 578 951 q 965 939 888 939 q 1336 943 1218 939 q 1345 813 1338 883 q 1365 696 1353 742 q 1225 671 1300 671 q 1169 797 1210 756 q 1033 838 1129 838 l 847 838 q 976 511 969 725 l 989 511 q 1070 533 1049 511 q 1093 610 1092 554 q 1215 626 1136 626 q 1210 464 1210 538 q 1215 299 1210 379 q 1096 313 1136 299 q 1067 388 1090 369 q 986 407 1044 407 l 972 407 q 832 103 949 214 l 1083 103 q 1194 147 1153 103 q 1264 293 1236 192 q 1349 276 1310 289 q 1406 246 1388 263 q 1363 -3 1374 150 q 958 0 1199 0 q 719 -7 835 0 q 517 -12 592 -12 q 264 48 369 -12 q 103 218 158 108 q 49 474 49 328 q 107 728 49 619 q 271 894 165 836 q 517 951 376 951 m 499 847 q 372 760 415 847 q 329 507 329 672 q 379 211 329 326 q 533 96 429 96 q 662 193 618 96 q 706 463 706 290 q 681 658 706 571 q 610 797 657 746 q 499 847 564 847 z "},"P":{"ha":963,"x_min":42,"x_max":914,"o":"m 511 410 q 594 459 560 410 q 629 610 629 508 q 591 772 629 713 q 476 832 553 832 q 422 822 447 832 l 422 274 q 454 147 422 183 q 574 104 486 110 q 586 -4 586 69 q 318 0 507 0 q 42 -4 138 0 q 51 104 42 67 q 110 119 92 107 q 137 163 129 132 q 144 260 144 194 l 144 682 q 138 776 144 747 q 114 817 132 806 q 54 835 96 829 q 42 943 42 885 q 268 939 174 939 l 447 940 q 542 942 489 942 q 831 866 747 942 q 914 651 914 790 q 821 394 914 490 q 563 299 728 299 q 468 313 504 299 q 465 346 465 335 q 481 413 465 385 q 511 410 492 410 z "},"Þ":{"ha":951,"x_min":42,"x_max":903,"o":"m 521 318 q 604 358 569 318 q 639 481 639 399 q 601 601 639 554 q 492 647 563 647 q 422 636 447 647 l 422 274 q 454 147 422 183 q 574 104 486 110 q 586 -4 586 69 q 318 0 507 0 q 42 -4 144 0 q 46 51 42 19 q 56 104 50 83 q 113 119 94 107 q 138 163 131 132 q 144 260 144 193 l 144 682 q 138 776 144 747 q 114 817 132 806 q 54 835 96 829 q 42 943 42 885 q 290 939 111 939 q 525 943 442 939 q 523 883 525 907 q 513 835 521 858 q 449 814 467 829 q 425 756 431 799 l 593 757 q 828 685 754 757 q 903 499 903 613 q 863 347 903 413 q 748 244 822 281 q 574 207 674 207 q 478 218 511 207 q 475 253 475 243 q 490 318 475 290 q 508 317 499 317 q 521 318 517 318 z "},"Q":{"ha":1057,"x_min":49,"x_max":1093,"o":"m 1092 -119 q 1089 -181 1093 -149 q 1078 -236 1085 -214 q 944 -260 1011 -242 q 821 -304 876 -278 q 751 -252 776 -285 q 689 -158 725 -219 q 619 -56 651 -92 q 529 -12 586 -21 l 528 -12 q 272 48 381 -12 q 106 219 164 108 q 49 474 49 329 q 110 727 49 619 q 279 893 171 835 q 528 951 388 951 q 781 894 672 951 q 949 733 889 838 q 1008 492 1008 629 q 935 202 1008 325 q 729 25 861 79 q 863 -47 790 3 q 968 -106 921 -87 q 1092 -119 1015 -124 m 333 507 q 387 212 333 328 q 544 96 440 96 q 676 194 629 96 q 724 463 724 293 q 698 657 724 569 q 624 796 672 744 q 510 847 575 847 q 379 759 425 847 q 333 507 333 671 z "},"R":{"ha":997,"x_min":42,"x_max":983,"o":"m 875 200 q 923 128 903 146 q 983 108 943 111 q 968 0 983 53 q 657 -12 740 0 q 592 151 643 19 l 574 200 q 526 305 547 271 q 474 360 506 339 q 422 361 440 360 l 422 274 q 428 163 422 199 q 449 117 435 128 q 490 104 463 106 q 500 -4 500 76 q 257 0 421 0 q 42 -4 138 0 q 53 104 42 63 q 110 119 92 107 q 137 163 129 132 q 144 260 144 194 l 144 685 q 138 778 144 749 q 112 820 131 808 q 51 838 93 832 q 44 890 47 856 q 42 944 42 924 q 281 939 153 939 l 369 942 q 568 946 540 946 q 761 911 683 946 q 876 817 839 876 q 914 685 914 758 q 861 494 914 568 q 719 397 808 421 q 774 365 753 385 q 817 310 796 346 q 875 200 839 274 m 464 468 q 576 516 529 468 q 624 651 624 564 q 585 790 624 740 q 481 840 546 840 q 422 831 450 840 l 422 474 q 464 468 450 468 z "},"Ŕ":{"ha":997,"x_min":42,"x_max":983,"o":"m 875 200 q 923 128 903 146 q 983 108 943 111 q 968 0 983 53 q 657 -12 740 0 q 592 151 643 19 l 574 200 q 526 305 547 271 q 474 360 506 339 q 422 361 440 360 l 422 274 q 428 163 422 199 q 449 117 435 128 q 490 104 463 106 q 500 -4 500 76 q 257 0 421 0 q 42 -4 138 0 q 53 104 42 63 q 110 119 92 107 q 137 163 129 132 q 144 260 144 194 l 144 685 q 138 778 144 749 q 112 820 131 808 q 51 838 93 832 q 44 890 47 856 q 42 944 42 924 q 281 939 153 939 l 369 942 q 568 946 540 946 q 761 911 683 946 q 876 817 839 876 q 914 685 914 758 q 861 494 914 568 q 719 397 808 421 q 774 365 753 385 q 817 310 796 346 q 875 200 839 274 m 464 468 q 576 516 529 468 q 624 651 624 564 q 585 790 624 740 q 481 840 546 840 q 422 831 450 840 l 422 474 q 464 468 450 468 m 511 1021 q 369 1046 438 1021 q 454 1211 418 1122 q 585 1225 514 1225 q 679 1217 640 1225 q 511 1021 588 1121 z "},"Ř":{"ha":997,"x_min":42,"x_max":983,"o":"m 875 200 q 923 128 903 146 q 983 108 943 111 q 968 0 983 53 q 657 -12 740 0 q 592 151 643 19 l 574 200 q 526 305 547 271 q 474 360 506 339 q 422 361 440 360 l 422 274 q 428 163 422 199 q 449 117 435 128 q 490 104 463 106 q 500 -4 500 76 q 257 0 421 0 q 42 -4 138 0 q 53 104 42 63 q 110 119 92 107 q 137 163 129 132 q 144 260 144 194 l 144 685 q 138 778 144 749 q 112 820 131 808 q 51 838 93 832 q 44 890 47 856 q 42 944 42 924 q 281 939 153 939 l 369 942 q 568 946 540 946 q 761 911 683 946 q 876 817 839 876 q 914 685 914 758 q 861 494 914 568 q 719 397 808 421 q 774 365 753 385 q 817 310 796 346 q 875 200 839 274 m 464 468 q 576 516 529 468 q 624 651 624 564 q 585 790 624 740 q 481 840 546 840 q 422 831 450 840 l 422 474 q 464 468 450 468 m 382 1007 q 182 1164 308 1081 q 238 1214 207 1194 q 313 1242 268 1233 q 474 1163 365 1208 q 495 1173 485 1168 q 515 1182 506 1178 q 624 1238 585 1213 q 682 1212 657 1233 q 717 1164 707 1190 q 507 1022 572 1078 q 382 1007 460 1007 z "},"Ŗ":{"ha":997,"x_min":42,"x_max":983,"o":"m 875 200 q 923 128 903 146 q 983 108 943 111 q 968 0 983 53 q 657 -12 740 0 q 592 151 643 19 l 574 200 q 526 305 547 271 q 474 360 506 339 q 422 361 440 360 l 422 274 q 428 163 422 199 q 449 117 435 128 q 490 104 463 106 q 500 -4 500 76 q 257 0 421 0 q 42 -4 138 0 q 53 104 42 63 q 110 119 92 107 q 137 163 129 132 q 144 260 144 194 l 144 685 q 138 778 144 749 q 112 820 131 808 q 51 838 93 832 q 44 890 47 856 q 42 944 42 924 q 281 939 153 939 l 369 942 q 568 946 540 946 q 761 911 683 946 q 876 817 839 876 q 914 685 914 758 q 861 494 914 568 q 719 397 808 421 q 774 365 753 385 q 817 310 796 346 q 875 200 839 274 m 464 468 q 576 516 529 468 q 624 651 624 564 q 585 790 624 740 q 481 840 546 840 q 422 831 450 840 l 422 474 q 464 468 450 468 m 613 -51 q 670 -89 653 -62 q 688 -168 688 -115 q 531 -437 688 -333 q 472 -430 500 -439 q 425 -401 443 -421 q 487 -344 467 -374 q 507 -287 507 -314 q 485 -247 507 -261 q 415 -228 463 -233 q 414 -201 414 -219 q 438 -94 414 -149 q 613 -51 551 -92 z "},"Ȑ":{"ha":997,"x_min":42,"x_max":983,"o":"m 875 200 q 923 128 903 146 q 983 108 943 111 q 968 0 983 53 q 657 -12 740 0 q 592 151 643 19 l 574 200 q 526 305 547 271 q 474 360 506 339 q 422 361 440 360 l 422 274 q 428 163 422 199 q 449 117 435 128 q 490 104 463 106 q 500 -4 500 76 q 257 0 421 0 q 42 -4 138 0 q 53 104 42 63 q 110 119 92 107 q 137 163 129 132 q 144 260 144 194 l 144 685 q 138 778 144 749 q 112 820 131 808 q 51 838 93 832 q 44 890 47 856 q 42 944 42 924 q 281 939 153 939 l 369 942 q 568 946 540 946 q 761 911 683 946 q 876 817 839 876 q 914 685 914 758 q 861 494 914 568 q 719 397 808 421 q 774 365 753 385 q 817 310 796 346 q 875 200 839 274 m 464 468 q 576 516 529 468 q 624 651 624 564 q 585 790 624 740 q 481 840 546 840 q 422 831 450 840 l 422 474 q 464 468 450 468 m 310 993 q 156 1161 225 1094 q 247 1188 193 1179 q 356 1197 301 1197 q 397 1106 371 1157 q 451 1018 424 1056 q 310 993 383 993 m 588 993 q 447 1167 506 1103 q 533 1190 482 1182 q 633 1197 583 1197 q 675 1106 649 1157 q 729 1018 701 1056 q 588 993 661 993 z "},"Ṛ":{"ha":997,"x_min":42,"x_max":983,"o":"m 875 200 q 923 128 903 146 q 983 108 943 111 q 968 0 983 53 q 657 -12 740 0 q 592 151 643 19 l 574 200 q 526 305 547 271 q 474 360 506 339 q 422 361 440 360 l 422 274 q 428 163 422 199 q 449 117 435 128 q 490 104 463 106 q 500 -4 500 76 q 257 0 421 0 q 42 -4 138 0 q 53 104 42 63 q 110 119 92 107 q 137 163 129 132 q 144 260 144 194 l 144 685 q 138 778 144 749 q 112 820 131 808 q 51 838 93 832 q 44 890 47 856 q 42 944 42 924 q 281 939 153 939 l 369 942 q 568 946 540 946 q 761 911 683 946 q 876 817 839 876 q 914 685 914 758 q 861 494 914 568 q 719 397 808 421 q 774 365 753 385 q 817 310 796 346 q 875 200 839 274 m 464 468 q 576 516 529 468 q 624 651 624 564 q 585 790 624 740 q 481 840 546 840 q 422 831 450 840 l 422 474 q 464 468 450 468 m 544 -328 q 441 -297 479 -328 q 403 -215 403 -267 q 444 -124 403 -156 q 554 -92 486 -92 q 666 -122 628 -92 q 704 -212 704 -153 q 661 -296 704 -264 q 544 -328 618 -328 z "},"Ȓ":{"ha":997,"x_min":42,"x_max":983,"o":"m 875 200 q 923 128 903 146 q 983 108 943 111 q 968 0 983 53 q 657 -12 740 0 q 592 151 643 19 l 574 200 q 526 305 547 271 q 474 360 506 339 q 422 361 440 360 l 422 274 q 428 163 422 199 q 449 117 435 128 q 490 104 463 106 q 500 -4 500 76 q 257 0 421 0 q 42 -4 138 0 q 53 104 42 63 q 110 119 92 107 q 137 163 129 132 q 144 260 144 194 l 144 685 q 138 778 144 749 q 112 820 131 808 q 51 838 93 832 q 44 890 47 856 q 42 944 42 924 q 281 939 153 939 l 369 942 q 568 946 540 946 q 761 911 683 946 q 876 817 839 876 q 914 685 914 758 q 861 494 914 568 q 719 397 808 421 q 774 365 753 385 q 817 310 796 346 q 875 200 839 274 m 464 468 q 576 516 529 468 q 624 651 624 564 q 585 790 624 740 q 481 840 546 840 q 422 831 450 840 l 422 474 q 464 468 450 468 m 218 1015 q 474 1221 218 1221 q 724 1021 724 1221 q 624 1003 678 1003 q 579 1007 601 1003 q 456 1076 567 1076 q 374 1059 403 1076 q 343 1007 344 1042 q 296 1001 313 1001 q 218 1015 257 1001 z "},"Ṟ":{"ha":997,"x_min":42,"x_max":983,"o":"m 875 200 q 923 128 903 146 q 983 108 943 111 q 968 0 983 53 q 657 -12 740 0 q 592 151 643 19 l 574 200 q 526 305 547 271 q 474 360 506 339 q 422 361 440 360 l 422 274 q 428 163 422 199 q 449 117 435 128 q 490 104 463 106 q 500 -4 500 76 q 257 0 421 0 q 42 -4 138 0 q 53 104 42 63 q 110 119 92 107 q 137 163 129 132 q 144 260 144 194 l 144 685 q 138 778 144 749 q 112 820 131 808 q 51 838 93 832 q 44 890 47 856 q 42 944 42 924 q 281 939 153 939 l 369 942 q 568 946 540 946 q 761 911 683 946 q 876 817 839 876 q 914 685 914 758 q 861 494 914 568 q 719 397 808 421 q 774 365 753 385 q 817 310 796 346 q 875 200 839 274 m 464 468 q 576 516 529 468 q 624 651 624 564 q 585 790 624 740 q 481 840 546 840 q 422 831 450 840 l 422 474 q 464 468 450 468 m 274 -218 q 286 -124 274 -157 l 807 -124 q 794 -204 807 -168 q 274 -218 514 -204 z "},"S":{"ha":783,"x_min":39,"x_max":756,"o":"m 381 -12 q 39 67 196 -12 q 58 301 58 154 q 229 319 122 319 q 250 183 236 229 q 292 119 264 138 q 374 101 319 101 q 474 128 440 101 q 507 194 507 156 q 470 259 507 233 q 353 322 433 285 q 205 400 264 363 q 103 503 146 438 q 60 664 60 568 q 155 881 60 811 q 399 951 250 951 q 561 934 478 951 q 685 890 644 917 q 694 681 685 740 q 623 656 668 664 q 535 649 578 649 q 480 798 518 756 q 379 840 442 840 q 303 820 333 840 q 274 760 274 800 q 317 683 274 714 q 451 613 361 651 q 607 533 546 571 q 712 432 668 496 q 756 275 756 368 q 658 63 756 139 q 381 -12 561 -12 z "},"Ś":{"ha":783,"x_min":39,"x_max":756,"o":"m 381 -12 q 39 67 196 -12 q 58 301 58 154 q 229 319 122 319 q 250 183 236 229 q 292 119 264 138 q 374 101 319 101 q 474 128 440 101 q 507 194 507 156 q 470 259 507 233 q 353 322 433 285 q 205 400 264 363 q 103 503 146 438 q 60 664 60 568 q 155 881 60 811 q 399 951 250 951 q 561 934 478 951 q 685 890 644 917 q 694 681 685 740 q 623 656 668 664 q 535 649 578 649 q 480 798 518 756 q 379 840 442 840 q 303 820 333 840 q 274 760 274 800 q 317 683 274 714 q 451 613 361 651 q 607 533 546 571 q 712 432 668 496 q 756 275 756 368 q 658 63 756 139 q 381 -12 561 -12 m 443 1021 q 301 1046 369 1021 q 386 1211 350 1122 q 517 1225 446 1225 q 611 1217 572 1225 q 443 1021 519 1121 z "},"Ṥ":{"ha":783,"x_min":39,"x_max":756,"o":"m 381 -12 q 39 67 196 -12 q 58 301 58 154 q 229 319 122 319 q 250 183 236 229 q 292 119 264 138 q 374 101 319 101 q 474 128 440 101 q 507 194 507 156 q 470 259 507 233 q 353 322 433 285 q 205 400 264 363 q 103 503 146 438 q 60 664 60 568 q 155 881 60 811 q 399 951 250 951 q 561 934 478 951 q 685 890 644 917 q 694 681 685 740 q 623 656 668 664 q 535 649 578 649 q 480 798 518 756 q 379 840 442 840 q 303 820 333 840 q 274 760 274 800 q 317 683 274 714 q 451 613 361 651 q 607 533 546 571 q 712 432 668 496 q 756 275 756 368 q 658 63 756 139 q 381 -12 561 -12 m 443 1021 q 301 1046 369 1021 q 386 1211 350 1122 q 517 1225 446 1225 q 611 1217 572 1225 q 443 1021 519 1121 m 410 1278 q 306 1308 344 1278 q 268 1390 268 1339 q 310 1482 268 1450 q 419 1514 351 1514 q 531 1483 493 1514 q 569 1393 569 1453 q 526 1310 569 1342 q 410 1278 483 1278 z "},"Š":{"ha":783,"x_min":39,"x_max":756,"o":"m 381 -12 q 39 67 196 -12 q 58 301 58 154 q 229 319 122 319 q 250 183 236 229 q 292 119 264 138 q 374 101 319 101 q 474 128 440 101 q 507 194 507 156 q 470 259 507 233 q 353 322 433 285 q 205 400 264 363 q 103 503 146 438 q 60 664 60 568 q 155 881 60 811 q 399 951 250 951 q 561 934 478 951 q 685 890 644 917 q 694 681 685 740 q 623 656 668 664 q 535 649 578 649 q 480 798 518 756 q 379 840 442 840 q 303 820 333 840 q 274 760 274 800 q 317 683 274 714 q 451 613 361 651 q 607 533 546 571 q 712 432 668 496 q 756 275 756 368 q 658 63 756 139 q 381 -12 561 -12 m 314 1007 q 114 1164 240 1081 q 169 1214 139 1194 q 244 1242 200 1233 q 406 1163 297 1208 q 427 1173 417 1168 q 447 1182 438 1178 q 556 1238 517 1213 q 614 1212 589 1233 q 649 1164 639 1190 q 439 1022 504 1078 q 314 1007 392 1007 z "},"Ṧ":{"ha":783,"x_min":39,"x_max":756,"o":"m 381 -12 q 39 67 196 -12 q 58 301 58 154 q 229 319 122 319 q 250 183 236 229 q 292 119 264 138 q 374 101 319 101 q 474 128 440 101 q 507 194 507 156 q 470 259 507 233 q 353 322 433 285 q 205 400 264 363 q 103 503 146 438 q 60 664 60 568 q 155 881 60 811 q 399 951 250 951 q 561 934 478 951 q 685 890 644 917 q 694 681 685 740 q 623 656 668 664 q 535 649 578 649 q 480 798 518 756 q 379 840 442 840 q 303 820 333 840 q 274 760 274 800 q 317 683 274 714 q 451 613 361 651 q 607 533 546 571 q 712 432 668 496 q 756 275 756 368 q 658 63 756 139 q 381 -12 561 -12 m 314 1007 q 114 1164 240 1081 q 169 1214 139 1194 q 244 1242 200 1233 q 406 1163 297 1208 q 427 1173 417 1168 q 447 1182 438 1178 q 556 1238 517 1213 q 614 1212 589 1233 q 649 1164 639 1190 q 439 1022 504 1078 q 314 1007 392 1007 m 393 1294 q 290 1325 328 1294 q 251 1407 251 1356 q 293 1499 251 1467 q 403 1531 335 1531 q 515 1500 476 1531 q 553 1410 553 1469 q 510 1326 553 1358 q 393 1294 467 1294 z "},"Ş":{"ha":783,"x_min":39,"x_max":756,"o":"m 756 275 q 674 76 756 151 q 439 -10 592 1 l 401 -60 q 492 -106 460 -69 q 525 -192 525 -143 q 462 -299 525 -261 q 281 -336 399 -336 q 268 -265 268 -311 q 345 -249 314 -265 q 376 -204 376 -233 q 353 -167 376 -182 q 296 -153 331 -153 q 271 -87 271 -124 l 333 -11 q 39 67 176 -3 q 58 301 58 154 q 229 319 122 319 q 250 183 236 229 q 292 119 264 138 q 374 101 319 101 q 474 128 440 101 q 507 194 507 156 q 470 259 507 233 q 353 322 433 285 q 205 400 264 363 q 103 503 146 438 q 60 664 60 568 q 155 881 60 811 q 399 951 250 951 q 561 934 478 951 q 685 890 644 917 q 694 681 685 740 q 623 656 668 664 q 535 649 578 649 q 480 798 518 756 q 379 840 442 840 q 303 820 333 840 q 274 760 274 800 q 317 683 274 714 q 451 613 361 651 q 607 533 546 571 q 712 432 668 496 q 756 275 756 368 z "},"Ŝ":{"ha":783,"x_min":39,"x_max":756,"o":"m 381 -12 q 39 67 196 -12 q 58 301 58 154 q 229 319 122 319 q 250 183 236 229 q 292 119 264 138 q 374 101 319 101 q 474 128 440 101 q 507 194 507 156 q 470 259 507 233 q 353 322 433 285 q 205 400 264 363 q 103 503 146 438 q 60 664 60 568 q 155 881 60 811 q 399 951 250 951 q 561 934 478 951 q 685 890 644 917 q 694 681 685 740 q 623 656 668 664 q 535 649 578 649 q 480 798 518 756 q 379 840 442 840 q 303 820 333 840 q 274 760 274 800 q 317 683 274 714 q 451 613 361 651 q 607 533 546 571 q 712 432 668 496 q 756 275 756 368 q 658 63 756 139 q 381 -12 561 -12 m 228 1011 q 169 1037 194 1015 q 135 1085 144 1058 q 344 1226 279 1171 q 469 1242 392 1242 q 669 1085 543 1168 q 614 1035 644 1054 q 539 1007 583 1015 q 378 1086 485 1040 q 356 1076 367 1081 q 336 1067 346 1071 q 228 1011 267 1036 z "},"Ș":{"ha":783,"x_min":39,"x_max":756,"o":"m 381 -12 q 39 67 196 -12 q 58 301 58 154 q 229 319 122 319 q 250 183 236 229 q 292 119 264 138 q 374 101 319 101 q 474 128 440 101 q 507 194 507 156 q 470 259 507 233 q 353 322 433 285 q 205 400 264 363 q 103 503 146 438 q 60 664 60 568 q 155 881 60 811 q 399 951 250 951 q 561 934 478 951 q 685 890 644 917 q 694 681 685 740 q 623 656 668 664 q 535 649 578 649 q 480 798 518 756 q 379 840 442 840 q 303 820 333 840 q 274 760 274 800 q 317 683 274 714 q 451 613 361 651 q 607 533 546 571 q 712 432 668 496 q 756 275 756 368 q 658 63 756 139 q 381 -12 561 -12 m 456 -51 q 513 -89 496 -62 q 531 -168 531 -115 q 374 -437 531 -333 q 315 -430 343 -439 q 268 -401 286 -421 q 330 -344 310 -374 q 350 -287 350 -314 q 328 -247 350 -261 q 258 -228 306 -233 q 257 -201 257 -219 q 281 -94 257 -149 q 456 -51 394 -92 z "},"Ṡ":{"ha":783,"x_min":39,"x_max":756,"o":"m 381 -12 q 39 67 196 -12 q 58 301 58 154 q 229 319 122 319 q 250 183 236 229 q 292 119 264 138 q 374 101 319 101 q 474 128 440 101 q 507 194 507 156 q 470 259 507 233 q 353 322 433 285 q 205 400 264 363 q 103 503 146 438 q 60 664 60 568 q 155 881 60 811 q 399 951 250 951 q 561 934 478 951 q 685 890 644 917 q 694 681 685 740 q 623 656 668 664 q 535 649 578 649 q 480 798 518 756 q 379 840 442 840 q 303 820 333 840 q 274 760 274 800 q 317 683 274 714 q 451 613 361 651 q 607 533 546 571 q 712 432 668 496 q 756 275 756 368 q 658 63 756 139 q 381 -12 561 -12 m 393 992 q 290 1022 328 992 q 251 1104 251 1053 q 293 1196 251 1164 q 403 1228 335 1228 q 515 1197 476 1228 q 553 1107 553 1167 q 510 1024 553 1056 q 393 992 467 992 z "},"Ṣ":{"ha":783,"x_min":39,"x_max":756,"o":"m 381 -12 q 39 67 196 -12 q 58 301 58 154 q 229 319 122 319 q 250 183 236 229 q 292 119 264 138 q 374 101 319 101 q 474 128 440 101 q 507 194 507 156 q 470 259 507 233 q 353 322 433 285 q 205 400 264 363 q 103 503 146 438 q 60 664 60 568 q 155 881 60 811 q 399 951 250 951 q 561 934 478 951 q 685 890 644 917 q 694 681 685 740 q 623 656 668 664 q 535 649 578 649 q 480 798 518 756 q 379 840 442 840 q 303 820 333 840 q 274 760 274 800 q 317 683 274 714 q 451 613 361 651 q 607 533 546 571 q 712 432 668 496 q 756 275 756 368 q 658 63 756 139 q 381 -12 561 -12 m 388 -328 q 284 -297 322 -328 q 246 -215 246 -267 q 288 -124 246 -156 q 397 -92 329 -92 q 509 -122 471 -92 q 547 -212 547 -153 q 504 -296 547 -264 q 388 -328 461 -328 z "},"Ṩ":{"ha":783,"x_min":39,"x_max":756,"o":"m 381 -12 q 39 67 196 -12 q 58 301 58 154 q 229 319 122 319 q 250 183 236 229 q 292 119 264 138 q 374 101 319 101 q 474 128 440 101 q 507 194 507 156 q 470 259 507 233 q 353 322 433 285 q 205 400 264 363 q 103 503 146 438 q 60 664 60 568 q 155 881 60 811 q 399 951 250 951 q 561 934 478 951 q 685 890 644 917 q 694 681 685 740 q 623 656 668 664 q 535 649 578 649 q 480 798 518 756 q 379 840 442 840 q 303 820 333 840 q 274 760 274 800 q 317 683 274 714 q 451 613 361 651 q 607 533 546 571 q 712 432 668 496 q 756 275 756 368 q 658 63 756 139 q 381 -12 561 -12 m 388 -328 q 284 -297 322 -328 q 246 -215 246 -267 q 288 -124 246 -156 q 397 -92 329 -92 q 509 -122 471 -92 q 547 -212 547 -153 q 504 -296 547 -264 q 388 -328 461 -328 m 393 992 q 290 1022 328 992 q 251 1104 251 1053 q 293 1196 251 1164 q 403 1228 335 1228 q 515 1197 476 1228 q 553 1107 553 1167 q 510 1024 553 1056 q 393 992 467 992 z "},"ẞ":{"ha":1076,"x_min":28,"x_max":1049,"o":"m 824 547 q 1049 272 1049 488 q 956 60 1049 133 q 689 -12 864 -12 q 556 3 607 -12 q 468 44 504 18 q 482 143 478 86 q 486 246 486 200 q 639 267 547 267 q 657 136 640 168 q 707 104 674 104 q 771 133 744 104 q 797 238 797 163 q 738 394 797 344 q 560 456 679 444 q 538 513 547 475 q 528 574 528 550 q 696 829 611 669 l 626 833 q 546 836 565 836 q 463 818 492 836 q 422 747 435 800 q 408 588 408 693 l 408 -4 q 257 0 365 0 q 28 -4 140 0 q 32 51 28 19 q 42 104 36 83 q 99 119 81 107 q 124 163 117 132 q 131 261 131 194 l 131 574 q 240 864 131 781 q 544 947 349 947 q 635 943 590 947 q 761 939 735 939 q 964 947 861 939 q 985 890 975 928 q 994 826 994 853 q 824 547 924 679 z "},"Ə":{"ha":979,"x_min":49,"x_max":931,"o":"m 422 951 q 809 823 688 951 q 931 488 931 694 q 872 225 931 338 q 708 51 814 113 q 461 -10 601 -10 q 156 113 257 -10 q 49 428 54 236 q 67 475 54 453 q 96 513 79 497 l 643 513 q 574 758 633 669 q 388 847 514 847 q 271 803 304 847 q 228 650 238 758 q 201 649 219 649 q 141 656 171 649 q 93 674 111 663 q 100 782 100 736 q 92 889 100 835 q 246 935 160 919 q 422 951 332 951 m 478 94 q 646 401 638 94 q 313 408 493 408 q 354 174 313 253 q 478 94 396 94 z "},"T":{"ha":999,"x_min":35,"x_max":964,"o":"m 635 835 l 635 260 q 645 163 635 193 q 683 119 656 132 q 771 104 711 107 q 785 -4 785 68 q 514 0 707 0 q 193 -4 285 0 q 198 51 193 19 q 210 104 203 83 q 301 119 271 107 q 344 163 332 132 q 357 260 357 194 l 357 835 l 354 835 q 241 793 281 835 q 178 657 201 751 q 35 678 79 657 q 60 810 50 735 q 69 943 69 886 q 504 939 186 939 q 931 943 757 939 q 940 813 931 885 q 964 679 949 742 q 819 657 910 657 q 766 794 800 753 q 663 835 732 835 l 635 835 z "},"Ŧ":{"ha":999,"x_min":35,"x_max":964,"o":"m 635 835 l 635 538 l 797 538 q 779 414 797 464 q 635 415 717 415 l 635 260 q 645 163 635 193 q 683 119 656 132 q 771 104 711 107 q 785 -4 785 68 q 514 0 707 0 q 193 -4 285 0 q 198 51 193 19 q 210 104 203 83 q 301 119 271 107 q 344 163 332 132 q 357 260 357 194 l 357 414 q 290 413 314 414 l 203 411 q 221 538 203 488 l 357 538 l 357 835 l 354 835 q 241 793 281 835 q 178 657 201 751 q 35 678 79 657 q 60 810 50 735 q 69 943 69 886 q 504 939 186 939 q 931 943 757 939 q 940 813 931 885 q 964 679 949 742 q 819 657 910 657 q 766 794 800 753 q 663 835 732 835 l 635 835 z "},"Ť":{"ha":999,"x_min":35,"x_max":964,"o":"m 635 835 l 635 260 q 645 163 635 193 q 683 119 656 132 q 771 104 711 107 q 785 -4 785 68 q 514 0 707 0 q 193 -4 285 0 q 198 51 193 19 q 210 104 203 83 q 301 119 271 107 q 344 163 332 132 q 357 260 357 194 l 357 835 l 354 835 q 241 793 281 835 q 178 657 201 751 q 35 678 79 657 q 60 810 50 735 q 69 943 69 886 q 504 939 186 939 q 931 943 757 939 q 940 813 931 885 q 964 679 949 742 q 819 657 910 657 q 766 794 800 753 q 663 835 732 835 l 635 835 m 411 1007 q 211 1164 338 1081 q 267 1214 236 1194 q 342 1242 297 1233 q 503 1163 394 1208 q 524 1173 514 1168 q 544 1182 535 1178 q 653 1238 614 1213 q 711 1212 686 1233 q 746 1164 736 1190 q 536 1022 601 1078 q 411 1007 489 1007 z "},"Ţ":{"ha":999,"x_min":35,"x_max":964,"o":"m 635 835 l 635 260 q 645 163 635 193 q 683 119 656 132 q 771 104 711 107 q 785 -4 785 68 q 539 0 714 0 l 493 -60 q 584 -106 551 -69 q 617 -192 617 -143 q 553 -299 617 -261 q 372 -336 490 -336 q 360 -265 360 -311 q 437 -249 406 -265 q 468 -204 468 -233 q 445 -167 468 -182 q 388 -153 422 -153 q 363 -87 363 -124 l 435 0 q 193 -4 264 0 q 198 51 193 19 q 210 104 203 83 q 301 119 271 107 q 344 163 332 132 q 357 260 357 194 l 357 835 l 354 835 q 241 793 281 835 q 178 657 201 751 q 35 678 79 657 q 60 810 50 735 q 69 943 69 886 q 504 939 186 939 q 931 943 757 939 q 940 813 931 885 q 964 679 949 742 q 819 657 910 657 q 766 794 800 753 q 663 835 732 835 l 635 835 z "},"Ț":{"ha":999,"x_min":35,"x_max":964,"o":"m 635 835 l 635 260 q 645 163 635 193 q 683 119 656 132 q 771 104 711 107 q 785 -4 785 68 q 514 0 707 0 q 193 -4 285 0 q 198 51 193 19 q 210 104 203 83 q 301 119 271 107 q 344 163 332 132 q 357 260 357 194 l 357 835 l 354 835 q 241 793 281 835 q 178 657 201 751 q 35 678 79 657 q 60 810 50 735 q 69 943 69 886 q 504 939 186 939 q 931 943 757 939 q 940 813 931 885 q 964 679 949 742 q 819 657 910 657 q 766 794 800 753 q 663 835 732 835 l 635 835 m 547 -51 q 605 -89 588 -62 q 622 -168 622 -115 q 465 -437 622 -333 q 406 -430 435 -439 q 360 -401 378 -421 q 422 -344 401 -374 q 442 -287 442 -314 q 419 -247 442 -261 q 350 -228 397 -233 q 349 -201 349 -219 q 372 -94 349 -149 q 547 -51 486 -92 z "},"Ṭ":{"ha":999,"x_min":35,"x_max":964,"o":"m 635 835 l 635 260 q 645 163 635 193 q 683 119 656 132 q 771 104 711 107 q 785 -4 785 68 q 514 0 707 0 q 193 -4 285 0 q 198 51 193 19 q 210 104 203 83 q 301 119 271 107 q 344 163 332 132 q 357 260 357 194 l 357 835 l 354 835 q 241 793 281 835 q 178 657 201 751 q 35 678 79 657 q 60 810 50 735 q 69 943 69 886 q 504 939 186 939 q 931 943 757 939 q 940 813 931 885 q 964 679 949 742 q 819 657 910 657 q 766 794 800 753 q 663 835 732 835 l 635 835 m 479 -328 q 376 -297 414 -328 q 338 -215 338 -267 q 379 -124 338 -156 q 489 -92 421 -92 q 601 -122 563 -92 q 639 -212 639 -153 q 596 -296 639 -264 q 479 -328 553 -328 z "},"Ṯ":{"ha":999,"x_min":35,"x_max":964,"o":"m 635 835 l 635 260 q 645 163 635 193 q 683 119 656 132 q 771 104 711 107 q 785 -4 785 68 q 514 0 707 0 q 193 -4 285 0 q 198 51 193 19 q 210 104 203 83 q 301 119 271 107 q 344 163 332 132 q 357 260 357 194 l 357 835 l 354 835 q 241 793 281 835 q 178 657 201 751 q 35 678 79 657 q 60 810 50 735 q 69 943 69 886 q 504 939 186 939 q 931 943 757 939 q 940 813 931 885 q 964 679 949 742 q 819 657 910 657 q 766 794 800 753 q 663 835 732 835 l 635 835 m 208 -218 q 221 -124 208 -157 l 742 -124 q 729 -204 742 -168 q 208 -218 449 -204 z "},"U":{"ha":968,"x_min":28,"x_max":926,"o":"m 828 385 q 810 183 828 258 q 744 61 792 107 q 499 -12 665 -12 q 279 23 360 -12 q 165 133 199 58 q 131 332 131 207 l 131 675 q 123 772 131 740 q 97 815 115 803 q 39 835 79 828 q 28 943 28 882 q 217 939 85 939 q 506 943 439 939 q 497 835 506 874 q 440 815 457 828 q 415 772 422 803 q 408 675 408 742 l 408 356 q 447 163 408 226 q 564 100 486 100 q 631 115 599 100 q 683 160 663 129 q 713 243 703 189 q 722 399 722 297 l 722 649 q 714 756 722 718 q 686 810 706 793 q 631 835 667 828 q 622 943 622 892 q 778 939 679 939 q 926 943 875 939 q 915 835 926 875 q 860 813 879 829 q 835 763 842 797 q 828 661 828 728 l 828 385 z "},"Ú":{"ha":968,"x_min":28,"x_max":926,"o":"m 828 385 q 810 183 828 258 q 744 61 792 107 q 499 -12 665 -12 q 279 23 360 -12 q 165 133 199 58 q 131 332 131 207 l 131 675 q 123 772 131 740 q 97 815 115 803 q 39 835 79 828 q 28 943 28 882 q 217 939 85 939 q 506 943 439 939 q 497 835 506 874 q 440 815 457 828 q 415 772 422 803 q 408 675 408 742 l 408 356 q 447 163 408 226 q 564 100 486 100 q 631 115 599 100 q 683 160 663 129 q 713 243 703 189 q 722 399 722 297 l 722 649 q 714 756 722 718 q 686 810 706 793 q 631 835 667 828 q 622 943 622 892 q 778 939 679 939 q 926 943 875 939 q 915 835 926 875 q 860 813 879 829 q 835 763 842 797 q 828 661 828 728 l 828 385 m 604 1021 q 463 1046 531 1021 q 547 1211 511 1122 q 678 1225 607 1225 q 772 1217 733 1225 q 604 1021 681 1121 z "},"Ŭ":{"ha":968,"x_min":28,"x_max":926,"o":"m 828 385 q 810 183 828 258 q 744 61 792 107 q 499 -12 665 -12 q 279 23 360 -12 q 165 133 199 58 q 131 332 131 207 l 131 675 q 123 772 131 740 q 97 815 115 803 q 39 835 79 828 q 28 943 28 882 q 217 939 85 939 q 506 943 439 939 q 497 835 506 874 q 440 815 457 828 q 415 772 422 803 q 408 675 408 742 l 408 356 q 447 163 408 226 q 564 100 486 100 q 631 115 599 100 q 683 160 663 129 q 713 243 703 189 q 722 399 722 297 l 722 649 q 714 756 722 718 q 686 810 706 793 q 631 835 667 828 q 622 943 622 892 q 778 939 679 939 q 926 943 875 939 q 915 835 926 875 q 860 813 879 829 q 835 763 842 797 q 828 661 828 728 l 828 385 m 817 1207 q 561 1001 817 1001 q 311 1201 311 1001 q 411 1219 357 1219 q 456 1215 432 1219 q 579 1146 468 1146 q 661 1163 632 1146 q 692 1215 690 1181 q 739 1221 722 1221 q 817 1207 778 1221 z "},"Û":{"ha":968,"x_min":28,"x_max":926,"o":"m 828 385 q 810 183 828 258 q 744 61 792 107 q 499 -12 665 -12 q 279 23 360 -12 q 165 133 199 58 q 131 332 131 207 l 131 675 q 123 772 131 740 q 97 815 115 803 q 39 835 79 828 q 28 943 28 882 q 217 939 85 939 q 506 943 439 939 q 497 835 506 874 q 440 815 457 828 q 415 772 422 803 q 408 675 408 742 l 408 356 q 447 163 408 226 q 564 100 486 100 q 631 115 599 100 q 683 160 663 129 q 713 243 703 189 q 722 399 722 297 l 722 649 q 714 756 722 718 q 686 810 706 793 q 631 835 667 828 q 622 943 622 892 q 778 939 679 939 q 926 943 875 939 q 915 835 926 875 q 860 813 879 829 q 835 763 842 797 q 828 661 828 728 l 828 385 m 389 1011 q 331 1037 356 1015 q 296 1085 306 1058 q 506 1226 440 1171 q 631 1242 553 1242 q 831 1085 704 1168 q 775 1035 806 1054 q 700 1007 744 1015 q 539 1086 646 1040 q 517 1076 528 1081 q 497 1067 507 1071 q 389 1011 428 1036 z "},"Ȕ":{"ha":968,"x_min":28,"x_max":926,"o":"m 828 385 q 810 183 828 258 q 744 61 792 107 q 499 -12 665 -12 q 279 23 360 -12 q 165 133 199 58 q 131 332 131 207 l 131 675 q 123 772 131 740 q 97 815 115 803 q 39 835 79 828 q 28 943 28 882 q 217 939 85 939 q 506 943 439 939 q 497 835 506 874 q 440 815 457 828 q 415 772 422 803 q 408 675 408 742 l 408 356 q 447 163 408 226 q 564 100 486 100 q 631 115 599 100 q 683 160 663 129 q 713 243 703 189 q 722 399 722 297 l 722 649 q 714 756 722 718 q 686 810 706 793 q 631 835 667 828 q 622 943 622 892 q 778 939 679 939 q 926 943 875 939 q 915 835 926 875 q 860 813 879 829 q 835 763 842 797 q 828 661 828 728 l 828 385 m 403 993 q 249 1161 318 1094 q 340 1188 286 1179 q 449 1197 394 1197 q 490 1106 464 1157 q 544 1018 517 1056 q 403 993 476 993 m 681 993 q 540 1167 599 1103 q 626 1190 575 1182 q 726 1197 676 1197 q 768 1106 742 1157 q 822 1018 794 1056 q 681 993 754 993 z "},"Ü":{"ha":968,"x_min":28,"x_max":926,"o":"m 828 385 q 810 183 828 258 q 744 61 792 107 q 499 -12 665 -12 q 279 23 360 -12 q 165 133 199 58 q 131 332 131 207 l 131 675 q 123 772 131 740 q 97 815 115 803 q 39 835 79 828 q 28 943 28 882 q 217 939 85 939 q 506 943 439 939 q 497 835 506 874 q 440 815 457 828 q 415 772 422 803 q 408 675 408 742 l 408 356 q 447 163 408 226 q 564 100 486 100 q 631 115 599 100 q 683 160 663 129 q 713 243 703 189 q 722 399 722 297 l 722 649 q 714 756 722 718 q 686 810 706 793 q 631 835 667 828 q 622 943 622 892 q 778 939 679 939 q 926 943 875 939 q 915 835 926 875 q 860 813 879 829 q 835 763 842 797 q 828 661 828 728 l 828 385 m 389 999 q 292 1031 329 999 q 254 1110 254 1063 q 287 1199 254 1163 q 385 1235 319 1235 q 486 1201 453 1235 q 519 1113 519 1168 q 482 1031 519 1064 q 389 999 444 999 m 746 999 q 642 1033 678 999 q 606 1124 606 1067 q 642 1206 606 1176 q 739 1235 678 1235 q 835 1203 797 1235 q 874 1124 874 1171 q 842 1034 874 1069 q 746 999 811 999 z "},"Ụ":{"ha":968,"x_min":28,"x_max":926,"o":"m 828 385 q 810 183 828 258 q 744 61 792 107 q 499 -12 665 -12 q 279 23 360 -12 q 165 133 199 58 q 131 332 131 207 l 131 675 q 123 772 131 740 q 97 815 115 803 q 39 835 79 828 q 28 943 28 882 q 217 939 85 939 q 506 943 439 939 q 497 835 506 874 q 440 815 457 828 q 415 772 422 803 q 408 675 408 742 l 408 356 q 447 163 408 226 q 564 100 486 100 q 631 115 599 100 q 683 160 663 129 q 713 243 703 189 q 722 399 722 297 l 722 649 q 714 756 722 718 q 686 810 706 793 q 631 835 667 828 q 622 943 622 892 q 778 939 679 939 q 926 943 875 939 q 915 835 926 875 q 860 813 879 829 q 835 763 842 797 q 828 661 828 728 l 828 385 m 490 -328 q 387 -297 425 -328 q 349 -215 349 -267 q 390 -124 349 -156 q 500 -92 432 -92 q 612 -122 574 -92 q 650 -212 650 -153 q 607 -296 650 -264 q 490 -328 564 -328 z "},"Ù":{"ha":968,"x_min":28,"x_max":926,"o":"m 828 385 q 810 183 828 258 q 744 61 792 107 q 499 -12 665 -12 q 279 23 360 -12 q 165 133 199 58 q 131 332 131 207 l 131 675 q 123 772 131 740 q 97 815 115 803 q 39 835 79 828 q 28 943 28 882 q 217 939 85 939 q 506 943 439 939 q 497 835 506 874 q 440 815 457 828 q 415 772 422 803 q 408 675 408 742 l 408 356 q 447 163 408 226 q 564 100 486 100 q 631 115 599 100 q 683 160 663 129 q 713 243 703 189 q 722 399 722 297 l 722 649 q 714 756 722 718 q 686 810 706 793 q 631 835 667 828 q 622 943 622 892 q 778 939 679 939 q 926 943 875 939 q 915 835 926 875 q 860 813 879 829 q 835 763 842 797 q 828 661 828 728 l 828 385 m 524 1021 q 369 1189 439 1122 q 461 1216 407 1207 q 569 1225 515 1225 q 611 1134 585 1185 q 665 1046 638 1083 q 524 1021 597 1021 z "},"Ủ":{"ha":968,"x_min":28,"x_max":926,"o":"m 828 385 q 810 183 828 258 q 744 61 792 107 q 499 -12 665 -12 q 279 23 360 -12 q 165 133 199 58 q 131 332 131 207 l 131 675 q 123 772 131 740 q 97 815 115 803 q 39 835 79 828 q 28 943 28 882 q 217 939 85 939 q 506 943 439 939 q 497 835 506 874 q 440 815 457 828 q 415 772 422 803 q 408 675 408 742 l 408 356 q 447 163 408 226 q 564 100 486 100 q 631 115 599 100 q 683 160 663 129 q 713 243 703 189 q 722 399 722 297 l 722 649 q 714 756 722 718 q 686 810 706 793 q 631 835 667 828 q 622 943 622 892 q 778 939 679 939 q 926 943 875 939 q 915 835 926 875 q 860 813 879 829 q 835 763 842 797 q 828 661 828 728 l 828 385 m 511 997 q 501 1031 501 1013 q 515 1065 501 1051 q 554 1093 528 1078 q 582 1113 572 1104 q 592 1131 592 1121 q 554 1150 592 1150 q 513 1137 529 1150 q 486 1086 497 1124 q 367 1107 417 1086 q 371 1156 371 1132 q 367 1194 371 1176 q 578 1233 444 1233 q 717 1212 674 1233 q 761 1147 761 1190 q 741 1096 761 1115 q 686 1060 721 1076 q 656 1042 665 1050 q 646 1025 646 1035 q 650 1004 646 1017 q 561 993 610 993 q 511 997 533 993 z "},"Ư":{"ha":1107,"x_min":28,"x_max":1117,"o":"m 1042 1214 q 1095 1147 1074 1192 q 1117 1056 1117 1101 q 1088 952 1117 1003 q 1013 869 1060 901 q 915 835 967 836 q 860 813 879 829 q 835 763 842 797 q 828 661 828 728 l 828 385 q 810 183 828 258 q 744 61 792 107 q 499 -12 665 -12 q 279 23 360 -12 q 165 133 199 58 q 131 332 131 207 l 131 675 q 123 772 131 740 q 97 815 115 803 q 39 835 79 828 q 28 943 28 882 q 217 939 85 939 q 506 943 439 939 q 497 835 506 874 q 440 815 457 828 q 415 772 422 803 q 408 675 408 742 l 408 356 q 447 163 408 226 q 564 100 486 100 q 631 115 599 100 q 683 160 663 129 q 713 243 703 189 q 722 399 722 297 l 722 649 q 714 756 722 718 q 686 810 706 793 q 631 835 667 828 q 622 943 622 892 q 778 939 679 939 l 829 939 q 898 968 878 942 q 918 1051 918 994 q 910 1131 918 1092 q 892 1196 903 1171 q 1010 1215 942 1215 q 1042 1214 1033 1215 z "},"Ứ":{"ha":1107,"x_min":28,"x_max":1117,"o":"m 1042 1214 q 1095 1147 1074 1192 q 1117 1056 1117 1101 q 1088 952 1117 1003 q 1013 869 1060 901 q 915 835 967 836 q 860 813 879 829 q 835 763 842 797 q 828 661 828 728 l 828 385 q 810 183 828 258 q 744 61 792 107 q 499 -12 665 -12 q 279 23 360 -12 q 165 133 199 58 q 131 332 131 207 l 131 675 q 123 772 131 740 q 97 815 115 803 q 39 835 79 828 q 28 943 28 882 q 217 939 85 939 q 506 943 439 939 q 497 835 506 874 q 440 815 457 828 q 415 772 422 803 q 408 675 408 742 l 408 356 q 447 163 408 226 q 564 100 486 100 q 631 115 599 100 q 683 160 663 129 q 713 243 703 189 q 722 399 722 297 l 722 649 q 714 756 722 718 q 686 810 706 793 q 631 835 667 828 q 622 943 622 892 q 778 939 679 939 l 829 939 q 898 968 878 942 q 918 1051 918 994 q 910 1131 918 1092 q 892 1196 903 1171 q 1010 1215 942 1215 q 1042 1214 1033 1215 m 604 1021 q 463 1046 531 1021 q 547 1211 511 1122 q 678 1225 607 1225 q 772 1217 733 1225 q 604 1021 681 1121 z "},"Ự":{"ha":1107,"x_min":28,"x_max":1117,"o":"m 1042 1214 q 1095 1147 1074 1192 q 1117 1056 1117 1101 q 1088 952 1117 1003 q 1013 869 1060 901 q 915 835 967 836 q 860 813 879 829 q 835 763 842 797 q 828 661 828 728 l 828 385 q 810 183 828 258 q 744 61 792 107 q 499 -12 665 -12 q 279 23 360 -12 q 165 133 199 58 q 131 332 131 207 l 131 675 q 123 772 131 740 q 97 815 115 803 q 39 835 79 828 q 28 943 28 882 q 217 939 85 939 q 506 943 439 939 q 497 835 506 874 q 440 815 457 828 q 415 772 422 803 q 408 675 408 742 l 408 356 q 447 163 408 226 q 564 100 486 100 q 631 115 599 100 q 683 160 663 129 q 713 243 703 189 q 722 399 722 297 l 722 649 q 714 756 722 718 q 686 810 706 793 q 631 835 667 828 q 622 943 622 892 q 778 939 679 939 l 829 939 q 898 968 878 942 q 918 1051 918 994 q 910 1131 918 1092 q 892 1196 903 1171 q 1010 1215 942 1215 q 1042 1214 1033 1215 m 490 -328 q 387 -297 425 -328 q 349 -215 349 -267 q 390 -124 349 -156 q 500 -92 432 -92 q 612 -122 574 -92 q 650 -212 650 -153 q 607 -296 650 -264 q 490 -328 564 -328 z "},"Ừ":{"ha":1107,"x_min":28,"x_max":1117,"o":"m 1042 1214 q 1095 1147 1074 1192 q 1117 1056 1117 1101 q 1088 952 1117 1003 q 1013 869 1060 901 q 915 835 967 836 q 860 813 879 829 q 835 763 842 797 q 828 661 828 728 l 828 385 q 810 183 828 258 q 744 61 792 107 q 499 -12 665 -12 q 279 23 360 -12 q 165 133 199 58 q 131 332 131 207 l 131 675 q 123 772 131 740 q 97 815 115 803 q 39 835 79 828 q 28 943 28 882 q 217 939 85 939 q 506 943 439 939 q 497 835 506 874 q 440 815 457 828 q 415 772 422 803 q 408 675 408 742 l 408 356 q 447 163 408 226 q 564 100 486 100 q 631 115 599 100 q 683 160 663 129 q 713 243 703 189 q 722 399 722 297 l 722 649 q 714 756 722 718 q 686 810 706 793 q 631 835 667 828 q 622 943 622 892 q 778 939 679 939 l 829 939 q 898 968 878 942 q 918 1051 918 994 q 910 1131 918 1092 q 892 1196 903 1171 q 1010 1215 942 1215 q 1042 1214 1033 1215 m 524 1021 q 369 1189 439 1122 q 461 1216 407 1207 q 569 1225 515 1225 q 611 1134 585 1185 q 665 1046 638 1083 q 524 1021 597 1021 z "},"Ử":{"ha":1107,"x_min":28,"x_max":1117,"o":"m 1042 1214 q 1095 1147 1074 1192 q 1117 1056 1117 1101 q 1088 952 1117 1003 q 1013 869 1060 901 q 915 835 967 836 q 860 813 879 829 q 835 763 842 797 q 828 661 828 728 l 828 385 q 810 183 828 258 q 744 61 792 107 q 499 -12 665 -12 q 279 23 360 -12 q 165 133 199 58 q 131 332 131 207 l 131 675 q 123 772 131 740 q 97 815 115 803 q 39 835 79 828 q 28 943 28 882 q 217 939 85 939 q 506 943 439 939 q 497 835 506 874 q 440 815 457 828 q 415 772 422 803 q 408 675 408 742 l 408 356 q 447 163 408 226 q 564 100 486 100 q 631 115 599 100 q 683 160 663 129 q 713 243 703 189 q 722 399 722 297 l 722 649 q 714 756 722 718 q 686 810 706 793 q 631 835 667 828 q 622 943 622 892 q 778 939 679 939 l 829 939 q 898 968 878 942 q 918 1051 918 994 q 910 1131 918 1092 q 892 1196 903 1171 q 1010 1215 942 1215 q 1042 1214 1033 1215 m 511 997 q 501 1031 501 1013 q 515 1065 501 1051 q 554 1093 528 1078 q 582 1113 572 1104 q 592 1131 592 1121 q 554 1150 592 1150 q 513 1137 529 1150 q 486 1086 497 1124 q 367 1107 417 1086 q 371 1156 371 1132 q 367 1194 371 1176 q 578 1233 444 1233 q 717 1212 674 1233 q 761 1147 761 1190 q 741 1096 761 1115 q 686 1060 721 1076 q 656 1042 665 1050 q 646 1025 646 1035 q 650 1004 646 1017 q 561 993 610 993 q 511 997 533 993 z "},"Ữ":{"ha":1107,"x_min":28,"x_max":1117,"o":"m 1042 1214 q 1095 1147 1074 1192 q 1117 1056 1117 1101 q 1088 952 1117 1003 q 1013 869 1060 901 q 915 835 967 836 q 860 813 879 829 q 835 763 842 797 q 828 661 828 728 l 828 385 q 810 183 828 258 q 744 61 792 107 q 499 -12 665 -12 q 279 23 360 -12 q 165 133 199 58 q 131 332 131 207 l 131 675 q 123 772 131 740 q 97 815 115 803 q 39 835 79 828 q 28 943 28 882 q 217 939 85 939 q 506 943 439 939 q 497 835 506 874 q 440 815 457 828 q 415 772 422 803 q 408 675 408 742 l 408 356 q 447 163 408 226 q 564 100 486 100 q 631 115 599 100 q 683 160 663 129 q 713 243 703 189 q 722 399 722 297 l 722 649 q 714 756 722 718 q 686 810 706 793 q 631 835 667 828 q 622 943 622 892 q 778 939 679 939 l 829 939 q 898 968 878 942 q 918 1051 918 994 q 910 1131 918 1092 q 892 1196 903 1171 q 1010 1215 942 1215 q 1042 1214 1033 1215 m 631 1021 q 569 1031 594 1021 q 514 1060 544 1040 q 474 1082 492 1075 q 435 1089 457 1089 q 326 1024 376 1089 q 289 1072 301 1049 q 275 1129 276 1096 q 368 1208 313 1182 q 476 1233 424 1233 q 535 1224 510 1233 q 596 1197 560 1215 q 640 1176 622 1183 q 678 1169 658 1169 q 763 1225 729 1169 q 853 1178 818 1214 q 758 1062 815 1103 q 631 1021 701 1021 z "},"Ű":{"ha":968,"x_min":28,"x_max":926,"o":"m 828 385 q 810 183 828 258 q 744 61 792 107 q 499 -12 665 -12 q 279 23 360 -12 q 165 133 199 58 q 131 332 131 207 l 131 675 q 123 772 131 740 q 97 815 115 803 q 39 835 79 828 q 28 943 28 882 q 217 939 85 939 q 506 943 439 939 q 497 835 506 874 q 440 815 457 828 q 415 772 422 803 q 408 675 408 742 l 408 356 q 447 163 408 226 q 564 100 486 100 q 631 115 599 100 q 683 160 663 129 q 713 243 703 189 q 722 399 722 297 l 722 649 q 714 756 722 718 q 686 810 706 793 q 631 835 667 828 q 622 943 622 892 q 778 939 679 939 q 926 943 875 939 q 915 835 926 875 q 860 813 879 829 q 835 763 842 797 q 828 661 828 728 l 828 385 m 471 1022 q 397 1033 435 1024 q 336 1054 358 1042 q 394 1206 369 1124 q 536 1226 449 1226 q 621 1218 593 1226 q 471 1022 544 1132 m 749 1022 q 674 1033 713 1024 q 614 1054 636 1042 q 672 1206 647 1124 q 814 1226 726 1226 q 899 1218 871 1226 q 749 1022 822 1132 z "},"Ȗ":{"ha":968,"x_min":28,"x_max":926,"o":"m 828 385 q 810 183 828 258 q 744 61 792 107 q 499 -12 665 -12 q 279 23 360 -12 q 165 133 199 58 q 131 332 131 207 l 131 675 q 123 772 131 740 q 97 815 115 803 q 39 835 79 828 q 28 943 28 882 q 217 939 85 939 q 506 943 439 939 q 497 835 506 874 q 440 815 457 828 q 415 772 422 803 q 408 675 408 742 l 408 356 q 447 163 408 226 q 564 100 486 100 q 631 115 599 100 q 683 160 663 129 q 713 243 703 189 q 722 399 722 297 l 722 649 q 714 756 722 718 q 686 810 706 793 q 631 835 667 828 q 622 943 622 892 q 778 939 679 939 q 926 943 875 939 q 915 835 926 875 q 860 813 879 829 q 835 763 842 797 q 828 661 828 728 l 828 385 m 311 1015 q 567 1221 311 1221 q 817 1021 817 1221 q 717 1003 771 1003 q 672 1007 694 1003 q 549 1076 660 1076 q 467 1059 496 1076 q 436 1007 438 1042 q 389 1001 406 1001 q 311 1015 350 1001 z "},"Ū":{"ha":968,"x_min":28,"x_max":926,"o":"m 828 385 q 810 183 828 258 q 744 61 792 107 q 499 -12 665 -12 q 279 23 360 -12 q 165 133 199 58 q 131 332 131 207 l 131 675 q 123 772 131 740 q 97 815 115 803 q 39 835 79 828 q 28 943 28 882 q 217 939 85 939 q 506 943 439 939 q 497 835 506 874 q 440 815 457 828 q 415 772 422 803 q 408 675 408 742 l 408 356 q 447 163 408 226 q 564 100 486 100 q 631 115 599 100 q 683 160 663 129 q 713 243 703 189 q 722 399 722 297 l 722 649 q 714 756 722 718 q 686 810 706 793 q 631 835 667 828 q 622 943 622 892 q 778 939 679 939 q 926 943 875 939 q 915 835 926 875 q 860 813 879 829 q 835 763 842 797 q 828 661 828 728 l 828 385 m 836 1150 q 824 1060 836 1101 q 290 1042 513 1060 q 303 1150 290 1111 l 836 1150 z "},"Ṻ":{"ha":968,"x_min":28,"x_max":926,"o":"m 828 385 q 810 183 828 258 q 744 61 792 107 q 499 -12 665 -12 q 279 23 360 -12 q 165 133 199 58 q 131 332 131 207 l 131 675 q 123 772 131 740 q 97 815 115 803 q 39 835 79 828 q 28 943 28 882 q 217 939 85 939 q 506 943 439 939 q 497 835 506 874 q 440 815 457 828 q 415 772 422 803 q 408 675 408 742 l 408 356 q 447 163 408 226 q 564 100 486 100 q 631 115 599 100 q 683 160 663 129 q 713 243 703 189 q 722 399 722 297 l 722 649 q 714 756 722 718 q 686 810 706 793 q 631 835 667 828 q 622 943 622 892 q 778 939 679 939 q 926 943 875 939 q 915 835 926 875 q 860 813 879 829 q 835 763 842 797 q 828 661 828 728 l 828 385 m 836 1150 q 824 1060 836 1101 q 290 1042 513 1060 q 303 1150 290 1111 l 836 1150 m 389 1210 q 292 1242 329 1210 q 254 1321 254 1274 q 287 1410 254 1374 q 385 1446 319 1446 q 486 1413 453 1446 q 519 1324 519 1379 q 482 1242 519 1275 q 389 1210 444 1210 m 746 1210 q 642 1244 678 1210 q 606 1335 606 1278 q 642 1417 606 1388 q 739 1446 678 1446 q 835 1414 797 1446 q 874 1335 874 1382 q 842 1245 874 1281 q 746 1210 811 1210 z "},"Ų":{"ha":968,"x_min":28,"x_max":926,"o":"m 778 939 q 926 943 875 939 q 915 835 926 875 q 860 813 879 829 q 835 763 842 797 q 828 661 828 728 l 828 385 q 810 183 828 258 q 744 61 792 107 q 700 29 721 39 q 592 -106 592 -35 q 697 -176 592 -176 q 744 -172 724 -176 q 762 -216 754 -185 q 769 -274 769 -247 q 768 -292 769 -286 q 667 -313 717 -299 q 582 -344 617 -328 q 550 -346 568 -346 q 465 -328 508 -346 q 394 -272 422 -310 q 365 -175 365 -233 q 395 -89 365 -128 q 513 -12 425 -50 l 499 -12 q 279 23 360 -12 q 165 133 199 58 q 131 332 131 207 l 131 675 q 123 772 131 740 q 97 815 115 803 q 39 835 79 828 q 28 943 28 882 q 217 939 85 939 q 506 943 439 939 q 497 835 506 874 q 440 815 457 828 q 415 772 422 803 q 408 675 408 742 l 408 356 q 447 163 408 226 q 564 100 486 100 q 631 115 599 100 q 683 160 663 129 q 713 243 703 189 q 722 399 722 297 l 722 649 q 714 756 722 718 q 686 810 706 793 q 631 835 667 828 q 622 943 622 892 q 778 939 679 939 z "},"Ů":{"ha":968,"x_min":28,"x_max":926,"o":"m 828 385 q 810 183 828 258 q 744 61 792 107 q 499 -12 665 -12 q 279 23 360 -12 q 165 133 199 58 q 131 332 131 207 l 131 675 q 123 772 131 740 q 97 815 115 803 q 39 835 79 828 q 28 943 28 882 q 217 939 85 939 q 506 943 439 939 q 497 835 506 874 q 440 815 457 828 q 415 772 422 803 q 408 675 408 742 l 408 356 q 447 163 408 226 q 564 100 486 100 q 631 115 599 100 q 683 160 663 129 q 713 243 703 189 q 722 399 722 297 l 722 649 q 714 756 722 718 q 686 810 706 793 q 631 835 667 828 q 622 943 622 892 q 778 939 679 939 q 926 943 875 939 q 915 835 926 875 q 860 813 879 829 q 835 763 842 797 q 828 661 828 728 l 828 385 m 556 990 q 431 1023 479 990 q 382 1114 382 1056 q 434 1211 382 1176 q 571 1246 486 1246 q 698 1215 650 1246 q 746 1124 746 1185 q 694 1026 746 1063 q 556 990 642 990 m 567 1054 q 601 1070 588 1054 q 615 1114 615 1086 q 601 1165 615 1142 q 558 1189 586 1189 q 526 1172 538 1189 q 514 1122 514 1154 q 528 1073 514 1092 q 567 1054 542 1054 z "},"Ũ":{"ha":968,"x_min":28,"x_max":926,"o":"m 828 385 q 810 183 828 258 q 744 61 792 107 q 499 -12 665 -12 q 279 23 360 -12 q 165 133 199 58 q 131 332 131 207 l 131 675 q 123 772 131 740 q 97 815 115 803 q 39 835 79 828 q 28 943 28 882 q 217 939 85 939 q 506 943 439 939 q 497 835 506 874 q 440 815 457 828 q 415 772 422 803 q 408 675 408 742 l 408 356 q 447 163 408 226 q 564 100 486 100 q 631 115 599 100 q 683 160 663 129 q 713 243 703 189 q 722 399 722 297 l 722 649 q 714 756 722 718 q 686 810 706 793 q 631 835 667 828 q 622 943 622 892 q 778 939 679 939 q 926 943 875 939 q 915 835 926 875 q 860 813 879 829 q 835 763 842 797 q 828 661 828 728 l 828 385 m 631 1021 q 569 1031 594 1021 q 514 1060 544 1040 q 474 1082 492 1075 q 435 1089 457 1089 q 326 1024 376 1089 q 289 1072 301 1049 q 275 1129 276 1096 q 368 1208 313 1182 q 476 1233 424 1233 q 535 1224 510 1233 q 596 1197 560 1215 q 640 1176 622 1183 q 678 1169 658 1169 q 763 1225 729 1169 q 853 1178 818 1214 q 758 1062 815 1103 q 631 1021 701 1021 z "},"Ṹ":{"ha":968,"x_min":28,"x_max":926,"o":"m 828 385 q 810 183 828 258 q 744 61 792 107 q 499 -12 665 -12 q 279 23 360 -12 q 165 133 199 58 q 131 332 131 207 l 131 675 q 123 772 131 740 q 97 815 115 803 q 39 835 79 828 q 28 943 28 882 q 217 939 85 939 q 506 943 439 939 q 497 835 506 874 q 440 815 457 828 q 415 772 422 803 q 408 675 408 742 l 408 356 q 447 163 408 226 q 564 100 486 100 q 631 115 599 100 q 683 160 663 129 q 713 243 703 189 q 722 399 722 297 l 722 649 q 714 756 722 718 q 686 810 706 793 q 631 835 667 828 q 622 943 622 892 q 778 939 679 939 q 926 943 875 939 q 915 835 926 875 q 860 813 879 829 q 835 763 842 797 q 828 661 828 728 l 828 385 m 631 1021 q 569 1031 594 1021 q 514 1060 544 1040 q 474 1082 492 1075 q 435 1089 457 1089 q 326 1024 376 1089 q 289 1072 301 1049 q 275 1129 276 1096 q 368 1208 313 1182 q 476 1233 424 1233 q 535 1224 510 1233 q 596 1197 560 1215 q 640 1176 622 1183 q 678 1169 658 1169 q 763 1225 729 1169 q 853 1178 818 1214 q 758 1062 815 1103 q 631 1021 701 1021 m 604 1315 q 463 1340 531 1315 q 547 1506 511 1417 q 678 1519 607 1519 q 772 1511 733 1519 q 604 1315 681 1415 z "},"V":{"ha":982,"x_min":11,"x_max":968,"o":"m 831 939 q 968 943 926 939 q 954 835 968 893 q 894 799 918 828 q 840 694 871 769 q 554 0 699 332 q 502 -10 533 -8 q 426 -12 471 -12 q 146 669 276 383 q 96 771 114 739 q 62 817 78 803 q 25 835 46 831 q 14 943 11 872 q 240 939 85 939 q 476 943 388 939 q 465 835 475 872 q 419 819 433 829 q 406 788 406 808 q 433 697 406 761 q 515 490 486 567 q 571 313 543 413 q 733 729 664 531 q 742 772 742 753 q 683 835 742 826 q 672 943 671 872 q 831 939 721 939 z "},"W":{"ha":1368,"x_min":14,"x_max":1354,"o":"m 1203 939 q 1354 943 1297 939 q 1352 882 1354 906 q 1342 835 1350 858 q 1298 806 1315 825 q 1265 749 1281 788 q 1226 636 1249 710 l 1039 0 q 974 -9 1018 -6 q 889 -12 929 -12 q 675 543 793 251 l 482 -3 q 338 -12 440 -12 q 133 649 226 361 q 89 771 103 736 q 62 817 75 806 q 24 831 49 828 q 15 883 17 853 q 14 943 14 913 q 247 939 81 939 q 486 943 421 939 q 475 835 486 879 q 415 815 433 828 q 397 774 397 803 q 422 672 397 742 q 507 392 474 511 l 701 939 q 818 950 742 950 q 1042 372 933 667 l 1121 636 q 1140 742 1140 699 q 1119 806 1140 785 q 1050 835 1097 828 q 1036 943 1036 871 q 1203 939 1094 939 z "},"Ẃ":{"ha":1368,"x_min":14,"x_max":1354,"o":"m 1203 939 q 1354 943 1297 939 q 1352 882 1354 906 q 1342 835 1350 858 q 1298 806 1315 825 q 1265 749 1281 788 q 1226 636 1249 710 l 1039 0 q 974 -9 1018 -6 q 889 -12 929 -12 q 675 543 793 251 l 482 -3 q 338 -12 440 -12 q 133 649 226 361 q 89 771 103 736 q 62 817 75 806 q 24 831 49 828 q 15 883 17 853 q 14 943 14 913 q 247 939 81 939 q 486 943 421 939 q 475 835 486 879 q 415 815 433 828 q 397 774 397 803 q 422 672 397 742 q 507 392 474 511 l 701 939 q 818 950 742 950 q 1042 372 933 667 l 1121 636 q 1140 742 1140 699 q 1119 806 1140 785 q 1050 835 1097 828 q 1036 943 1036 871 q 1203 939 1094 939 m 801 1021 q 660 1046 728 1021 q 744 1211 708 1122 q 875 1225 804 1225 q 969 1217 931 1225 q 801 1021 878 1121 z "},"Ŵ":{"ha":1368,"x_min":14,"x_max":1354,"o":"m 1203 939 q 1354 943 1297 939 q 1352 882 1354 906 q 1342 835 1350 858 q 1298 806 1315 825 q 1265 749 1281 788 q 1226 636 1249 710 l 1039 0 q 974 -9 1018 -6 q 889 -12 929 -12 q 675 543 793 251 l 482 -3 q 338 -12 440 -12 q 133 649 226 361 q 89 771 103 736 q 62 817 75 806 q 24 831 49 828 q 15 883 17 853 q 14 943 14 913 q 247 939 81 939 q 486 943 421 939 q 475 835 486 879 q 415 815 433 828 q 397 774 397 803 q 422 672 397 742 q 507 392 474 511 l 701 939 q 818 950 742 950 q 1042 372 933 667 l 1121 636 q 1140 742 1140 699 q 1119 806 1140 785 q 1050 835 1097 828 q 1036 943 1036 871 q 1203 939 1094 939 m 586 1011 q 528 1037 553 1015 q 493 1085 503 1058 q 703 1226 638 1171 q 828 1242 750 1242 q 1028 1085 901 1168 q 972 1035 1003 1054 q 897 1007 942 1015 q 736 1086 843 1040 q 715 1076 725 1081 q 694 1067 704 1071 q 586 1011 625 1036 z "},"Ẅ":{"ha":1368,"x_min":14,"x_max":1354,"o":"m 1203 939 q 1354 943 1297 939 q 1352 882 1354 906 q 1342 835 1350 858 q 1298 806 1315 825 q 1265 749 1281 788 q 1226 636 1249 710 l 1039 0 q 974 -9 1018 -6 q 889 -12 929 -12 q 675 543 793 251 l 482 -3 q 338 -12 440 -12 q 133 649 226 361 q 89 771 103 736 q 62 817 75 806 q 24 831 49 828 q 15 883 17 853 q 14 943 14 913 q 247 939 81 939 q 486 943 421 939 q 475 835 486 879 q 415 815 433 828 q 397 774 397 803 q 422 672 397 742 q 507 392 474 511 l 701 939 q 818 950 742 950 q 1042 372 933 667 l 1121 636 q 1140 742 1140 699 q 1119 806 1140 785 q 1050 835 1097 828 q 1036 943 1036 871 q 1203 939 1094 939 m 586 999 q 489 1031 526 999 q 451 1110 451 1063 q 484 1199 451 1163 q 582 1235 517 1235 q 683 1201 650 1235 q 717 1113 717 1168 q 679 1031 717 1064 q 586 999 642 999 m 943 999 q 839 1033 875 999 q 803 1124 803 1067 q 839 1206 803 1176 q 936 1235 875 1235 q 1033 1203 994 1235 q 1071 1124 1071 1171 q 1040 1034 1071 1069 q 943 999 1008 999 z "},"Ẁ":{"ha":1368,"x_min":14,"x_max":1354,"o":"m 1203 939 q 1354 943 1297 939 q 1352 882 1354 906 q 1342 835 1350 858 q 1298 806 1315 825 q 1265 749 1281 788 q 1226 636 1249 710 l 1039 0 q 974 -9 1018 -6 q 889 -12 929 -12 q 675 543 793 251 l 482 -3 q 338 -12 440 -12 q 133 649 226 361 q 89 771 103 736 q 62 817 75 806 q 24 831 49 828 q 15 883 17 853 q 14 943 14 913 q 247 939 81 939 q 486 943 421 939 q 475 835 486 879 q 415 815 433 828 q 397 774 397 803 q 422 672 397 742 q 507 392 474 511 l 701 939 q 818 950 742 950 q 1042 372 933 667 l 1121 636 q 1140 742 1140 699 q 1119 806 1140 785 q 1050 835 1097 828 q 1036 943 1036 871 q 1203 939 1094 939 m 721 1021 q 567 1189 636 1122 q 658 1216 604 1207 q 767 1225 713 1225 q 808 1134 782 1185 q 863 1046 835 1083 q 721 1021 794 1021 z "},"X":{"ha":1014,"x_min":28,"x_max":986,"o":"m 974 104 q 986 -4 986 68 q 726 0 926 0 q 481 -3 564 0 q 490 104 481 61 q 524 113 514 107 q 535 132 535 118 q 516 187 535 149 q 453 301 497 225 l 428 343 l 381 274 q 330 190 346 221 q 314 142 314 160 q 326 117 314 125 q 365 104 339 108 q 376 -4 376 64 q 200 0 306 0 q 28 -4 83 0 q 40 107 28 75 q 151 160 103 124 q 254 276 199 197 l 368 439 q 213 682 267 601 q 145 776 169 746 q 102 817 121 806 q 56 833 83 828 q 43 943 43 874 q 331 939 117 939 q 535 942 449 939 q 525 835 535 885 q 488 824 500 831 q 476 801 476 817 q 524 703 476 774 l 590 601 l 640 681 q 690 794 690 758 q 679 822 690 813 q 644 835 668 832 q 635 943 635 871 q 807 939 704 939 q 964 943 911 939 q 954 835 964 874 q 883 810 908 824 q 833 768 857 796 q 772 683 810 740 l 653 503 q 756 335 726 388 q 852 186 818 232 q 910 125 886 140 q 974 104 935 110 z "},"Y":{"ha":881,"x_min":14,"x_max":867,"o":"m 738 939 q 867 942 822 939 q 854 835 867 882 q 807 806 828 829 q 757 718 786 782 l 588 344 l 588 275 q 597 169 588 203 q 635 122 607 136 q 725 104 664 108 q 736 54 733 76 q 739 -4 739 32 q 442 0 658 0 q 219 -3 358 0 l 146 -4 q 163 104 149 69 q 263 122 233 110 q 301 166 292 133 q 310 276 310 199 l 310 349 l 117 753 q 25 835 81 828 q 14 942 14 875 q 247 939 81 939 q 481 942 424 939 q 471 835 481 889 q 425 790 425 829 q 444 719 425 771 l 460 681 q 542 469 511 554 q 647 728 596 608 q 660 781 660 757 q 607 835 660 831 q 594 942 594 881 q 738 939 644 939 z "},"Ý":{"ha":881,"x_min":14,"x_max":867,"o":"m 738 939 q 867 942 822 939 q 854 835 867 882 q 807 806 828 829 q 757 718 786 782 l 588 344 l 588 275 q 597 169 588 203 q 635 122 607 136 q 725 104 664 108 q 736 54 733 76 q 739 -4 739 32 q 442 0 658 0 q 219 -3 358 0 l 146 -4 q 163 104 149 69 q 263 122 233 110 q 301 166 292 133 q 310 276 310 199 l 310 349 l 117 753 q 25 835 81 828 q 14 942 14 875 q 247 939 81 939 q 481 942 424 939 q 471 835 481 889 q 425 790 425 829 q 444 719 425 771 l 460 681 q 542 469 511 554 q 647 728 596 608 q 660 781 660 757 q 607 835 660 831 q 594 942 594 881 q 738 939 644 939 m 568 1021 q 426 1046 494 1021 q 511 1211 475 1122 q 642 1225 571 1225 q 736 1217 697 1225 q 568 1021 644 1121 z "},"Ŷ":{"ha":881,"x_min":14,"x_max":867,"o":"m 738 939 q 867 942 822 939 q 854 835 867 882 q 807 806 828 829 q 757 718 786 782 l 588 344 l 588 275 q 597 169 588 203 q 635 122 607 136 q 725 104 664 108 q 736 54 733 76 q 739 -4 739 32 q 442 0 658 0 q 219 -3 358 0 l 146 -4 q 163 104 149 69 q 263 122 233 110 q 301 166 292 133 q 310 276 310 199 l 310 349 l 117 753 q 25 835 81 828 q 14 942 14 875 q 247 939 81 939 q 481 942 424 939 q 471 835 481 889 q 425 790 425 829 q 444 719 425 771 l 460 681 q 542 469 511 554 q 647 728 596 608 q 660 781 660 757 q 607 835 660 831 q 594 942 594 881 q 738 939 644 939 m 353 1011 q 294 1037 319 1015 q 260 1085 269 1058 q 469 1226 404 1171 q 594 1242 517 1242 q 794 1085 668 1168 q 739 1035 769 1054 q 664 1007 708 1015 q 503 1086 610 1040 q 481 1076 492 1081 q 461 1067 471 1071 q 353 1011 392 1036 z "},"Ÿ":{"ha":881,"x_min":14,"x_max":867,"o":"m 738 939 q 867 942 822 939 q 854 835 867 882 q 807 806 828 829 q 757 718 786 782 l 588 344 l 588 275 q 597 169 588 203 q 635 122 607 136 q 725 104 664 108 q 736 54 733 76 q 739 -4 739 32 q 442 0 658 0 q 219 -3 358 0 l 146 -4 q 163 104 149 69 q 263 122 233 110 q 301 166 292 133 q 310 276 310 199 l 310 349 l 117 753 q 25 835 81 828 q 14 942 14 875 q 247 939 81 939 q 481 942 424 939 q 471 835 481 889 q 425 790 425 829 q 444 719 425 771 l 460 681 q 542 469 511 554 q 647 728 596 608 q 660 781 660 757 q 607 835 660 831 q 594 942 594 881 q 738 939 644 939 m 353 999 q 256 1031 293 999 q 218 1110 218 1063 q 251 1199 218 1163 q 349 1235 283 1235 q 450 1201 417 1235 q 483 1113 483 1168 q 446 1031 483 1064 q 353 999 408 999 m 710 999 q 606 1033 642 999 q 569 1124 569 1067 q 606 1206 569 1176 q 703 1235 642 1235 q 799 1203 761 1235 q 838 1124 838 1171 q 806 1034 838 1069 q 710 999 775 999 z "},"Ẏ":{"ha":881,"x_min":14,"x_max":867,"o":"m 738 939 q 867 942 822 939 q 854 835 867 882 q 807 806 828 829 q 757 718 786 782 l 588 344 l 588 275 q 597 169 588 203 q 635 122 607 136 q 725 104 664 108 q 736 54 733 76 q 739 -4 739 32 q 442 0 658 0 q 219 -3 358 0 l 146 -4 q 163 104 149 69 q 263 122 233 110 q 301 166 292 133 q 310 276 310 199 l 310 349 l 117 753 q 25 835 81 828 q 14 942 14 875 q 247 939 81 939 q 481 942 424 939 q 471 835 481 889 q 425 790 425 829 q 444 719 425 771 l 460 681 q 542 469 511 554 q 647 728 596 608 q 660 781 660 757 q 607 835 660 831 q 594 942 594 881 q 738 939 644 939 m 518 992 q 415 1022 453 992 q 376 1104 376 1053 q 418 1196 376 1164 q 528 1228 460 1228 q 640 1197 601 1228 q 678 1107 678 1167 q 635 1024 678 1056 q 518 992 592 992 z "},"Ỵ":{"ha":881,"x_min":14,"x_max":867,"o":"m 738 939 q 867 942 822 939 q 854 835 867 882 q 807 806 828 829 q 757 718 786 782 l 588 344 l 588 275 q 597 169 588 203 q 635 122 607 136 q 725 104 664 108 q 736 54 733 76 q 739 -4 739 32 q 442 0 658 0 q 219 -3 358 0 l 146 -4 q 163 104 149 69 q 263 122 233 110 q 301 166 292 133 q 310 276 310 199 l 310 349 l 117 753 q 25 835 81 828 q 14 942 14 875 q 247 939 81 939 q 481 942 424 939 q 471 835 481 889 q 425 790 425 829 q 444 719 425 771 l 460 681 q 542 469 511 554 q 647 728 596 608 q 660 781 660 757 q 607 835 660 831 q 594 942 594 881 q 738 939 644 939 m 433 -328 q 330 -297 368 -328 q 292 -215 292 -267 q 333 -124 292 -156 q 443 -92 375 -92 q 555 -122 517 -92 q 593 -212 593 -153 q 550 -296 593 -264 q 433 -328 507 -328 z "},"Ỳ":{"ha":881,"x_min":14,"x_max":867,"o":"m 738 939 q 867 942 822 939 q 854 835 867 882 q 807 806 828 829 q 757 718 786 782 l 588 344 l 588 275 q 597 169 588 203 q 635 122 607 136 q 725 104 664 108 q 736 54 733 76 q 739 -4 739 32 q 442 0 658 0 q 219 -3 358 0 l 146 -4 q 163 104 149 69 q 263 122 233 110 q 301 166 292 133 q 310 276 310 199 l 310 349 l 117 753 q 25 835 81 828 q 14 942 14 875 q 247 939 81 939 q 481 942 424 939 q 471 835 481 889 q 425 790 425 829 q 444 719 425 771 l 460 681 q 542 469 511 554 q 647 728 596 608 q 660 781 660 757 q 607 835 660 831 q 594 942 594 881 q 738 939 644 939 m 488 1021 q 333 1189 403 1122 q 425 1216 371 1207 q 533 1225 479 1225 q 575 1134 549 1185 q 629 1046 601 1083 q 488 1021 561 1021 z "},"Ỷ":{"ha":881,"x_min":14,"x_max":867,"o":"m 738 939 q 867 942 822 939 q 854 835 867 882 q 807 806 828 829 q 757 718 786 782 l 588 344 l 588 275 q 597 169 588 203 q 635 122 607 136 q 725 104 664 108 q 736 54 733 76 q 739 -4 739 32 q 442 0 658 0 q 219 -3 358 0 l 146 -4 q 163 104 149 69 q 263 122 233 110 q 301 166 292 133 q 310 276 310 199 l 310 349 l 117 753 q 25 835 81 828 q 14 942 14 875 q 247 939 81 939 q 481 942 424 939 q 471 835 481 889 q 425 790 425 829 q 444 719 425 771 l 460 681 q 542 469 511 554 q 647 728 596 608 q 660 781 660 757 q 607 835 660 831 q 594 942 594 881 q 738 939 644 939 m 475 997 q 465 1031 465 1013 q 478 1065 465 1051 q 518 1093 492 1078 q 546 1113 536 1104 q 556 1131 556 1121 q 518 1150 556 1150 q 477 1137 493 1150 q 450 1086 461 1124 q 331 1107 381 1086 q 335 1156 335 1132 q 331 1194 335 1176 q 542 1233 408 1233 q 681 1212 638 1233 q 725 1147 725 1190 q 705 1096 725 1115 q 650 1060 685 1076 q 619 1042 629 1050 q 610 1025 610 1035 q 614 1004 610 1017 q 525 993 574 993 q 475 997 497 993 z "},"Ȳ":{"ha":881,"x_min":14,"x_max":867,"o":"m 738 939 q 867 942 822 939 q 854 835 867 882 q 807 806 828 829 q 757 718 786 782 l 588 344 l 588 275 q 597 169 588 203 q 635 122 607 136 q 725 104 664 108 q 736 54 733 76 q 739 -4 739 32 q 442 0 658 0 q 219 -3 358 0 l 146 -4 q 163 104 149 69 q 263 122 233 110 q 301 166 292 133 q 310 276 310 199 l 310 349 l 117 753 q 25 835 81 828 q 14 942 14 875 q 247 939 81 939 q 481 942 424 939 q 471 835 481 889 q 425 790 425 829 q 444 719 425 771 l 460 681 q 542 469 511 554 q 647 728 596 608 q 660 781 660 757 q 607 835 660 831 q 594 942 594 881 q 738 939 644 939 m 800 1150 q 788 1060 800 1101 q 254 1042 476 1060 q 267 1150 254 1111 l 800 1150 z "},"Ỹ":{"ha":881,"x_min":14,"x_max":867,"o":"m 738 939 q 867 942 822 939 q 854 835 867 882 q 807 806 828 829 q 757 718 786 782 l 588 344 l 588 275 q 597 169 588 203 q 635 122 607 136 q 725 104 664 108 q 736 54 733 76 q 739 -4 739 32 q 442 0 658 0 q 219 -3 358 0 l 146 -4 q 163 104 149 69 q 263 122 233 110 q 301 166 292 133 q 310 276 310 199 l 310 349 l 117 753 q 25 835 81 828 q 14 942 14 875 q 247 939 81 939 q 481 942 424 939 q 471 835 481 889 q 425 790 425 829 q 444 719 425 771 l 460 681 q 542 469 511 554 q 647 728 596 608 q 660 781 660 757 q 607 835 660 831 q 594 942 594 881 q 738 939 644 939 m 594 1021 q 533 1031 558 1021 q 478 1060 508 1040 q 438 1082 456 1075 q 399 1089 421 1089 q 290 1024 340 1089 q 253 1072 265 1049 q 239 1129 240 1096 q 332 1208 276 1182 q 440 1233 388 1233 q 499 1224 474 1233 q 560 1197 524 1215 q 604 1176 586 1183 q 642 1169 622 1169 q 726 1225 693 1169 q 817 1178 782 1214 q 722 1062 779 1103 q 594 1021 665 1021 z "},"Z":{"ha":814,"x_min":42,"x_max":772,"o":"m 622 294 q 772 254 713 288 q 747 124 760 201 q 733 -4 735 47 q 375 0 625 0 q 69 -4 197 0 q 42 94 42 35 q 265 496 179 338 q 440 835 351 654 l 367 835 q 294 818 322 835 q 247 759 267 801 q 207 633 226 717 q 60 653 104 633 q 86 794 78 715 q 94 942 94 872 q 419 939 164 939 q 728 942 643 939 q 757 844 753 900 q 567 464 656 633 q 367 104 478 294 l 417 104 q 516 119 479 104 q 577 175 553 135 q 622 294 601 215 z "},"Ź":{"ha":814,"x_min":42,"x_max":772,"o":"m 622 294 q 772 254 713 288 q 747 124 760 201 q 733 -4 735 47 q 375 0 625 0 q 69 -4 197 0 q 42 94 42 35 q 265 496 179 338 q 440 835 351 654 l 367 835 q 294 818 322 835 q 247 759 267 801 q 207 633 226 717 q 60 653 104 633 q 86 794 78 715 q 94 942 94 872 q 419 939 164 939 q 728 942 643 939 q 757 844 753 900 q 567 464 656 633 q 367 104 478 294 l 417 104 q 516 119 479 104 q 577 175 553 135 q 622 294 601 215 m 457 1021 q 315 1046 383 1021 q 400 1211 364 1122 q 531 1225 460 1225 q 625 1217 586 1225 q 457 1021 533 1121 z "}}}
